<?xml version="1.0" encoding="UTF-8"?>
<svg id="Layer_1" data-name="Layer 1" xmlns="http://www.w3.org/2000/svg" viewBox="0 0 768 768" preserveAspectRatio="none">
  <defs>
    <style>
      .cls-1, .cls-2, .cls-3, .cls-4 {
        fill: none;
      }

      .cls-1, .cls-3, .cls-4 {
        stroke: #81f57c;
      }

      .cls-1, .cls-4 {
        stroke-linecap: round;
        stroke-linejoin: round;
      }

      .cls-5 {
        fill: #81f57c;
      }

      .cls-2 {
        stroke: #fff;
      }

      .cls-2, .cls-3 {
        stroke-miterlimit: 10;
      }

      .cls-6 {
        opacity: .2;
      }

      .cls-4 {
        stroke-width: .5px;
      }
    </style>
  </defs>
  <g id="Layer_4" data-name="Layer 4">
    <g class="cls-6">
      <g>
        <polygon class="cls-5" points="183.93 660.89 183.93 660.9 258.44 660.91 258.52 661 183.93 661 107.38 567.76 107.38 202.61 160.44 138.18 160.66 138.18 185.34 108.07 206.99 108.07 580.41 108.04 605.45 138.59 605.64 138.59 658.73 203.03 658.73 567.76 582.18 661 508.58 661 508.62 660.95 582.18 660.96 582.18 660.95 508.63 660.94 508.69 660.88 258.42 660.89 258.43 660.9 183.93 660.89"/>
        <polygon class="cls-5" points="658.73 202.32 658.73 203.03 605.64 138.59 607 138.59 658.73 202.32"/>
        <polygon class="cls-5" points="658.73 165.61 658.73 202.32 607 138.59 642.45 138.59 658.73 165.61"/>
        <polygon class="cls-5" points="605.64 138.59 605.45 138.59 580.41 108.04 582.18 108.04 582.18 108.03 580.39 108.03 580.37 108 582.18 108 607 138.59 605.64 138.59"/>
        <polygon class="cls-5" points="580.39 108.03 196.33 108.05 185.38 108.03 185.4 108 580.37 108 580.39 108.03"/>
        <polygon class="cls-5" points="580.37 108 185.4 108 204.46 84.75 561.57 84.5 561.65 85.17 580.37 108"/>
        <polygon class="cls-5" points="508.69 660.88 508.63 660.94 258.43 660.9 258.42 660.89 508.69 660.88"/>
        <polygon class="cls-5" points="508.62 660.95 508.58 661 258.52 661 258.44 660.91 508.62 660.95"/>
        <polygon class="cls-5" points="508.58 661 490.14 681.21 490.14 681.22 276.97 681.22 258.52 661 508.58 661"/>
        <polygon class="cls-5" points="196.33 108.05 185.35 108.05 185.38 108.03 196.33 108.05"/>
        <polygon class="cls-5" points="183.93 108.07 185.34 108.07 160.66 138.18 160.44 138.18 159.43 138.18 183.93 108 185.4 108 185.38 108.03 185.35 108.05 183.93 108.05 183.93 108.07"/>
        <polygon class="cls-5" points="160.44 138.18 107.38 202.61 107.38 202.32 159.43 138.18 160.44 138.18"/>
        <polygon class="cls-5" points="159.43 138.18 107.38 202.32 107.38 165.2 123.66 138.18 159.43 138.18"/>
      </g>
      <g>
        <polyline class="cls-3" points="561.57 84.5 204.46 84.75 185.4 108 185.38 108.03 185.35 108.05 185.34 108.07 160.66 138.18 160.44 138.18 159.43 138.18 123.66 138.18 107.38 165.2 107.38 202.32 107.38 202.61 160.44 138.18 161 137.5"/>
        <polyline class="cls-3" points="561.65 85.17 580.37 108 580.39 108.03 580.41 108.04 605.45 138.59 605.64 138.59 607 138.59 642.45 138.59 658.73 165.61 658.73 202.32 658.73 203.03 605.64 138.59 605.57 138.5"/>
        <polyline class="cls-3" points="276.97 681.22 490.14 681.22 490.19 681.22"/>
        <polyline class="cls-3" points="276.97 681.22 258.52 661 258.44 660.91 258.43 660.9 258.42 660.89 508.69 660.88 508.63 660.94 508.62 660.95 508.58 661 490.14 681.21"/>
        <polyline class="cls-3" points="185.38 108.03 196.33 108.05 206.99 108.07 580.74 108.73"/>
      </g>
    </g>
  </g>
  <g id="Layer_5" data-name="Layer 5">
    <g>
      <g>
        <polygon class="cls-5" points="708.58 216.19 725 243 696.04 216 696.04 151.44 689.74 151.44 667.08 116.22 626.78 116.22 578.93 51.66 405.62 51.66 417.27 40 588.07 40 634.87 105.26 674.65 105.26 698.04 140.06 707.4 140.06 708.58 216.19"/>
        <polygon class="cls-5" points="717.57 550.13 716.43 558.38 609 691.3 524.43 691.3 505 713.97 377 713.97 377 714 253.77 714 234.34 691.33 149.77 691.33 42.34 558.41 41 550.13 60.49 559.62 156.85 679.15 244.49 679.15 263.31 703.08 382.2 702.85 382.2 702.83 495.46 703.05 514.28 679.12 601.91 679.12 698.28 559.59 717.57 550.13"/>
        <polygon class="cls-5" points="352.99 40.62 364.65 52.24 191.19 52.24 143.3 116.61 102.98 116.61 80.29 151.72 73.98 151.72 73.98 216.08 45 243 61.45 216.27 62.61 140.37 71.98 140.37 95.4 105.68 135.21 105.68 182.04 40.62 352.99 40.62"/>
      </g>
      <g>
        <polygon class="cls-3" points="708.58 216.19 707.4 140.06 698.04 140.06 674.65 105.26 634.87 105.26 588.07 40 417.27 40 405.62 51.66 578.93 51.66 626.78 116.22 667.08 116.22 689.74 151.44 696.04 151.44 696.04 216 725 243 708.58 216.19"/>
        <polyline class="cls-3" points="377 713.97 505 713.97 524.43 691.3 609 691.3 716.43 558.38 717.57 550.13 698.28 559.59 601.91 679.12 514.28 679.12 495.46 703.05 382.2 702.83 376.57 702.82"/>
        <line class="cls-2" x1="71.59" y1="243.02" x2="71.59" y2="525.03"/>
        <line class="cls-2" x1="695.56" y1="243.45" x2="695.56" y2="525.47"/>
        <polygon class="cls-4" points="61.45 216.27 62.61 140.37 71.98 140.37 95.4 105.68 135.21 105.68 182.04 40.62 352.99 40.62 364.65 52.24 191.19 52.24 143.3 116.61 102.98 116.61 80.29 151.72 73.98 151.72 73.98 216.08 45 243 61.45 216.27"/>
        <polyline class="cls-1" points="381.77 714 377 714 253.77 714 234.34 691.33 149.77 691.33 42.34 558.41 41 550.13 60.49 559.62 156.85 679.15 244.49 679.15 263.31 703.08 382.2 702.85"/>
      </g>
    </g>
  </g>
</svg>