<?xml version="1.0" encoding="UTF-8"?>
<svg id="Layer_2" data-name="Layer 2" xmlns="http://www.w3.org/2000/svg" viewBox="0 0 903.86 325.98">
  <defs>
    <style>
      .cls-1 {
        fill: #db5d48;
      }

      .cls-2 {
        fill: none;
        stroke: #db5d48;
        stroke-miterlimit: 10;
      }
    </style>
  </defs>
  <g id="Layer_2-2" data-name="Layer 2">
    <g>
      <path class="cls-1" d="M861.68,162.54l-87.89-129.83v-.71H127.93L40.04,161.84l87.65,129.48,.74,.68H773.93l.1,.02,87.65-129.48ZM110.78,306.71L18.8,161.8,111.03,16.5H788.83v.79l92.23,145.3-91.98,144.91-.11-.02H111.56l-.78-.77Z"/>
      <g>
        <polyline class="cls-2" points="127.93 32 773.79 32 773.93 32"/>
        <line class="cls-2" x1="128.43" y1="292" x2="773.93" y2="292"/>
        <polyline class="cls-2" points="39.93 162 40.04 161.84 127.93 32"/>
        <polyline class="cls-2" points="127.69 291.32 40.04 161.84 39.69 161.32"/>
        <polyline class="cls-2" points="861.79 162.71 861.68 162.54 773.79 32.71"/>
        <polyline class="cls-2" points="774.03 292.02 861.68 162.54 862.03 162.02"/>
        <polyline class="cls-2" points="111.03 16.5 788.83 16.5 788.97 16.5"/>
        <line class="cls-2" x1="111.56" y1="307.48" x2="788.97" y2="307.48"/>
        <polyline class="cls-2" points="18.68 161.99 18.8 161.8 111.03 16.5"/>
        <polyline class="cls-2" points="110.78 306.71 18.8 161.8 18.43 161.22"/>
        <polyline class="cls-2" points="881.18 162.78 881.06 162.59 788.83 17.29"/>
        <polyline class="cls-2" points="789.08 307.5 881.06 162.59 881.43 162.01"/>
        <polyline class="cls-2" points="97.33 .5 806.53 .5 806.69 .5"/>
        <line class="cls-2" x1="97.87" y1="325.48" x2="806.69" y2="325.48"/>
        <polyline class="cls-2" points=".69 162.99 .82 162.78 97.33 .5"/>
        <polyline class="cls-2" points="97.06 324.62 .82 162.78 .43 162.13"/>
        <polyline class="cls-2" points="903.17 163.87 903.04 163.66 806.53 1.38"/>
        <polyline class="cls-2" points="806.8 325.5 903.04 163.66 903.43 163.01"/>
      </g>
    </g>
  </g>
</svg>