<?xml version="1.0" encoding="UTF-8"?>
<svg xmlns="http://www.w3.org/2000/svg" viewBox="0 0 768 768">
  <defs>
    <style>
      .cls-1 {
        stroke-linejoin: round;
      }

      .cls-1, .cls-2 {
        fill: none;
        stroke: #000;
      }

      .cls-3 {
        fill: #e6e6e6;
      }

      .cls-4 {
        fill: #fff;
      }

      .cls-5 {
        fill: #f5a9c6;
      }

      .cls-6 {
        fill: #ae7cfa;
      }

      .cls-7 {
        fill: #db5d48;
      }

      .cls-8 {
        fill: #a7cbe8;
      }

      .cls-9 {
        fill: #81f57c;
      }

      .cls-2 {
        stroke-miterlimit: 10;
      }
    </style>
  </defs>
  <g id="Layer_13" data-name="Layer 13">
    <g>
      <g>
        <path class="cls-3" d="M728.9,486.84c.11-.21,.2-.42,.3-.63,.89-1.95,1.64-4.1,1.24-6.21-.24-1.26-.89-2.37-1.78-3.26,3.76,3.09,4.7,8.86,3.32,13.62l-.23-.06c-1.51-.09-3.02-.19-4.52-.28,.6-1.03,1.16-2.09,1.67-3.18Z"/>
        <path class="cls-3" d="M731.75,490.3l.23,.06c-.35,1.18-.8,2.32-1.35,3.42-1.75-.36-3.54-.56-5.33-.63,.68-1.02,1.33-2.06,1.93-3.13,1.5,.09,3.01,.19,4.52,.28Z"/>
        <path class="cls-4" d="M728.66,476.74c.89,.89,1.54,2,1.78,3.26,.4,2.11-.35,4.26-1.24,6.21-.1,.21-.19,.42-.3,.63-.51,1.09-1.07,2.15-1.67,3.18-.6,1.07-1.25,2.11-1.93,3.13-.7,1.03-1.42,2.04-2.18,3.03-1.1,1.46-2.27,2.87-3.48,4.25-1.15,1.32-2.35,2.62-3.57,3.9-4.36,4.6-9.02,8.99-13.27,13.66-4.89,5.37-9.28,11.18-14.24,16.48-4.88,5.2-10.4,9.97-16.9,12.88l-.35-.76c2.43-3.4,3.56-7.72,3.08-11.88-.48-4.14-2.53-8.09-5.65-10.85,2.65-2.57,5.08-5.42,7.43-8.27,5.07-6.14,10.08-12.64,12.38-20.25,.01,.01,.03,.02,.04,.03,.63-.45,1.26-.9,1.89-1.36,4.05,1.93,6.93,6.12,7.29,10.59,9.79-5.05,18.18-12.77,24.03-22.1,.88-1.4,1.73-2.94,1.68-4.59-.05-1.66-1.36-3.38-3.01-3.27l-.04-.36c1.02-.15,2.06-.17,3.12-.03,1.9,.25,3.78,1.14,5.11,2.49Z"/>
        <path class="cls-3" d="M730.63,493.78c-.52,1.06-1.12,2.09-1.78,3.08-1.91-.23-3.82-.45-5.73-.68,.76-.99,1.48-2,2.18-3.03,1.79,.07,3.58,.27,5.33,.63Z"/>
        <path class="cls-3" d="M728.85,496.86c-.99,1.5-2.11,2.93-3.27,4.33l-.26-.21c-1.82-.12-3.65-.24-5.47-.36l-.21-.19c1.21-1.38,2.38-2.79,3.48-4.25,1.91,.23,3.82,.45,5.73,.68Z"/>
        <path class="cls-3" d="M725.32,500.98l.26,.21c-.68,.83-1.39,1.65-2.08,2.46-.35,.4-.69,.81-1.04,1.21l-.26-.22c-2.05-.02-4.09-.12-6.13-.31,1.22-1.28,2.42-2.58,3.57-3.9l.21,.19c1.82,.12,3.65,.24,5.47,.36Z"/>
        <path class="cls-3" d="M723.48,477.91c.05,1.65-.8,3.19-1.68,4.59-5.85,9.33-14.24,17.05-24.03,22.1-.36-4.47-3.24-8.66-7.29-10.59,6.29-4.6,12.22-9.68,18.58-14.17,3.47-2.45,7.29-4.99,11.37-5.56l.04,.36c1.65-.11,2.96,1.61,3.01,3.27Z"/>
        <path class="cls-3" d="M722.46,504.86c-4.99,5.81-9.99,11.62-14.99,17.44-9.52,11.09-19.1,22.21-29.98,31.98l-.11-.12c-3.05-.67-5.6-3.28-6.18-6.35l.1-.29c.12-.05,.24-.11,.36-.17,6.5-2.91,12.02-7.68,16.9-12.88,4.96-5.3,9.35-11.11,14.24-16.48,4.25-4.67,8.91-9.06,13.27-13.66,2.04,.19,4.08,.29,6.13,.31l.26,.22Z"/>
        <path class="cls-4" d="M668.74,523.86c-2.67,2.62-5.57,4.95-8.84,6.72l-.05-.09c-31.09-26.25-62.87-51.68-95.3-76.26l-.44-.4c14.17-15.54,28.02-33.96,38.31-52.38l.08,.05c13.7,16.01,29.12,34.56,42.83,50.56,13.29,15.53,26.74,31.2,43.22,43.28-2.3,7.61-7.31,14.11-12.38,20.25-2.35,2.85-4.78,5.7-7.43,8.27Z"/>
        <path class="cls-3" d="M674.39,534.71c.48,4.16-.65,8.48-3.08,11.88l-.29,.09c-5.63-3.64-9.74-9.38-11.69-15.78,.19-.1,.38-.2,.57-.32,3.27-1.77,6.17-4.1,8.84-6.72,3.12,2.76,5.17,6.71,5.65,10.85Z"/>
        <path class="cls-4" d="M550.22,701.2c-.14,0-.28,0-.42-.01v-.58c.07-.05,.13-.09,.19-.14,3.03-2.32,5.23-5.7,6.12-9.41,.91-3.78,.45-7.88-1.26-11.37h0c4.54-1.22,8.95-3.12,13.24-5.08,7.24-3.31,14.59-6.96,19.98-12.8,.01,.02,.02,.03,.03,.05,1.12-.19,2.24-.39,3.36-.6,2.63,3.51,3.28,8.41,1.66,12.48,11.01-.18,21.96-3.37,31.34-9.14,1.41-.86,2.85-1.86,3.54-3.37,.57-1.24,.4-2.92-.55-3.82,.45,.21,.89,.46,1.32,.74,1.6,1.06,2.91,2.68,3.51,4.48,.41,1.2,.51,2.47,.17,3.7-.56,2.08-2.18,3.68-3.83,5.05-.09,.08-.19,.15-.28,.22-2.42,1.98-5.01,3.65-7.73,5.13-1.23,.68-2.5,1.31-3.78,1.91-1.59,.74-3.2,1.43-4.84,2.09-1.51,.61-3.04,1.19-4.58,1.74-5.47,2-11.06,3.79-16.43,5.93-6.74,2.7-13.23,6-20.01,8.6-6.64,2.54-13.65,4.42-20.75,4.2Z"/>
        <path class="cls-3" d="M628.34,671.6c.09-.07,.19-.14,.28-.22,1.65-1.37,3.27-2.97,3.83-5.05,.34-1.23,.24-2.5-.17-3.7,2.03,4.42,.34,10.02-2.97,13.69-1.12,1.24-2.39,2.31-3.76,3.26l-.05-.08c-1.47-.75-3.35-1.89-4.82-2.64l-.07-.13c2.72-1.48,5.31-3.15,7.73-5.13Z"/>
        <path class="cls-3" d="M627.45,657.41c.95,.9,1.12,2.58,.55,3.82-.69,1.51-2.13,2.51-3.54,3.37-9.38,5.77-20.33,8.96-31.34,9.14,1.62-4.07,.97-8.97-1.66-12.48,7.3-1.37,14.51-3.22,21.84-4.43,4.72-.77,9.92-1.45,14.15,.58Z"/>
        <path class="cls-3" d="M625.5,679.5l.05,.08c-1.27,.88-2.63,1.67-4.03,2.39l-.18-.34c-1.45-.9-2.91-1.8-4.37-2.7l-.14-.29c1.28-.6,2.55-1.23,3.78-1.91l.07,.13c1.47,.75,3.35,1.89,4.82,2.64Z"/>
        <path class="cls-3" d="M621.34,681.63l.18,.34c-1.7,.86-3.46,1.64-5.21,2.39-1.3-.94-2.93-2.44-4.2-3.34l-.12-.29c1.64-.66,3.25-1.35,4.84-2.09l.14,.29c1.46,.9,2.92,1.8,4.37,2.7Z"/>
        <path class="cls-3" d="M616.31,684.36c-.15,.07-.29,.14-.44,.2-1.26,.55-2.53,1.09-3.79,1.64-1.41-1.02-3.28-2.62-4.59-3.51l-.08-.22c1.54-.55,3.07-1.13,4.58-1.74l.12,.29c1.27,.9,2.9,2.4,4.2,3.34Z"/>
        <path class="cls-3" d="M612.08,686.2c-6.26,2.71-12.51,5.42-18.78,8.13-13.42,5.8-26.87,11.62-40.92,15.64l-.07-.23c-2.27-2.12-3.11-5.62-2.09-8.54,7.1,.22,14.11-1.66,20.75-4.2,6.78-2.6,13.27-5.9,20.01-8.6,5.37-2.14,10.96-3.93,16.43-5.93l.08,.22c1.31,.89,3.18,2.49,4.59,3.51Z"/>
        <path class="cls-3" d="M603.47,399.47l.03,.03c-.35,.65-.71,1.3-1.08,1.95-10.29,18.42-24.14,36.84-38.31,52.38-.16,.17-.32,.35-.47,.52-1.24-.91-2.49-1.81-3.73-2.71,16.1-15.75,32-34.6,41.53-55.01,.68,.95,1.35,1.89,2.03,2.84Z"/>
        <path class="cls-4" d="M596.83,390.21c1.54,2.14,3.08,4.28,4.61,6.42-9.53,20.41-25.43,39.26-41.53,55.01-2.46-1.79-4.92-3.57-7.39-5.35-2.4-1.74-4.84-3.5-7.65-4.41-3.11-1-6.45-.91-9.71-.8-11.21,.37-22.42,.75-33.62,1.12,3.85-25.82,3.95-56.1-1.04-81.7v-.18c2.64,.08,5.27,.17,7.9,.26,1,13.49,1.22,27.03,.65,40.55,12.95-1.31,26.07-1.87,38.93,.14s25.51,6.74,35.51,15.07c5.41-7.92,9.71-16.59,12.73-25.69l.61-.44Z"/>
        <path class="cls-3" d="M596.46,389.69c.12,.17,.25,.35,.37,.52l-.61,.44c-3.02,9.1-7.32,17.77-12.73,25.69-10-8.33-22.65-13.06-35.51-15.07s-25.98-1.45-38.93-.14c.57-13.52,.35-27.06-.65-40.55,12.96,.41,25.91,.84,38.88,1.26,8.4,.27,17.05,.6,24.73,4.02,10.53,4.69,17.74,14.47,24.45,23.83Z"/>
        <path class="cls-4" d="M588.07,661.81c-5.39,5.84-12.74,9.49-19.98,12.8-4.29,1.96-8.7,3.86-13.24,5.07-2.52,.68-5.09,1.15-7.71,1.29v-.22c-16.36-37.25-33.69-74.08-51.97-110.42,16.24-3.04,31.49-10.32,45.65-18.9,4.06-2.46,8.15-5.13,11.31-8.63l.02,.02c5.33,20.39,10.65,40.78,15.97,61.17,5.17,19.77,10.41,39.74,19.95,57.82Z"/>
        <path class="cls-3" d="M554.85,679.69c1.71,3.49,2.17,7.59,1.26,11.37-.89,3.71-3.09,7.09-6.12,9.41l-.13-.16c-3.47-5.73-4.66-12.69-3.62-19.3,.3-.01,.6-.02,.9-.04,2.62-.14,5.19-.61,7.71-1.29h0Z"/>
        <path class="cls-3" d="M495.17,570.33c-.88,.17-1.78,.32-2.67,.46l-.02-.09c-.42-.68-.82-1.37-1.22-2.06l.24-.14c21.97-4.43,44.65-16.81,62-31h.05c.18,.82,.37,1.66,.55,2.49l.15,.1c-.64,.96-1.35,1.86-2.12,2.71-3.16,3.5-7.25,6.17-11.31,8.63-14.16,8.58-29.41,15.86-45.65,18.9Z"/>
        <path class="cls-4" d="M553.55,537.49h-.05c-17.35,14.2-40.03,26.58-62,31.01l-.24,.14c-4.61-7.95-8.2-16.46-12.14-24.77-1.22-2.55-2.52-5.16-4.69-6.97-2.87-2.4-6.79-3.02-10.5-3.46-6-.7-12.04-1.15-18.07-1.26,18.71-16.62,35.63-41.39,44.64-64.68l.09-.33c3.47,.93,6.95,1.91,10.38,3l-.03,.09c-2.95,9.78-7.93,18.95-14.53,26.75-1.14,1.35-2.38,2.78-2.52,4.54-.22,2.66,2.12,4.75,4.25,6.37,13.61,10.4,27.81,21.29,35.16,36.77,10.19-2.52,20.01-6.55,29.02-11.92l.15-.04h.01c.36,1.59,.72,3.17,1.07,4.76Z"/>
        <path class="cls-3" d="M552.47,532.73l-.15,.04c-9.01,5.37-18.83,9.4-29.02,11.92-7.35-15.48-21.55-26.37-35.16-36.77-2.13-1.62-4.47-3.71-4.25-6.37,.14-1.76,1.38-3.19,2.52-4.54,6.6-7.8,11.58-16.97,14.53-26.75l.03-.09c10.37,3.28,20.34,7.57,28.35,14.78,7.61,6.85,12.93,15.93,16.65,25.47,2.82,7.22,4.77,14.74,6.5,22.31Z"/>
        <path class="cls-3" d="M498.25,364.52c-.22-1.35-.48-2.69-.75-4.02v-.28c1.01,.03,2.01,.07,3.01,.1v.18c4.98,25.6,4.88,55.88,1.03,81.7-1.65,.06-3.3,.11-4.95,.17,.11-.9,.21-1.81,.32-2.72,2.83-24.17,5.44-51.15,1.34-75.13Z"/>
        <path class="cls-4" d="M293.89,499.21c-3.45-1.28-6.83-2.69-10.17-4.21-1.67-.75-3.33-1.54-4.99-2.34-.29-.14-.58-.29-.87-.43,17.88-15.4,34.35-32.44,49.13-50.83l.24-.33c.52,.37,1.03,.74,1.55,1.11l29.18-40.61-2.05-1.47,.04-.05c8.78-10.37,14.39-24.56,19.55-37.55,2.84,.66,7.52,1,8.87,3.35,.35,.63,.54,1.56,.59,2.65l-5.46-1-6,17,26.97,3.5,.53-16.54-5.88-1.08c-.14-.98-.32-1.95-.53-2.88,8,.16,10.76-.3,18.91-.31v6.86c0,3.01,2.44,5.45,5.45,5.45h49.1c3.01,0,5.45-2.44,5.45-5.45v-8.15c8.34-.37,16.61-.83,24.75-1.38,4.1,23.98,1.49,50.96-1.34,75.13l-.35-.04c-24.03,4.18-52.36,5.53-76.83,3.97,21.75,8.22,43.51,16.44,65.26,24.66l1.01,.3c-9.47,23.44-24.09,44.96-42.88,61.88-9.94-2.15-21.49-5.95-31.4-8.08l1.11-5.35c.61-2.95-1.28-5.84-4.23-6.45l-58.37-12.13c-2.95-.61-5.84,1.28-6.45,4.23l-1.32,6.36v.02c-1.88-.2-3.76-.36-5.65-.48v-.06c-7.49-.6-14.93-1.73-22.27-3.36,.72-.47,1.42-.98,2.08-1.52,2.13-1.75,3.94-3.85,5.43-6.16l7.45,2.06,9.73-20.38-21.73-11.62-19.03,23.42,9.46,2.62c-.97,.98-1.94,1.92-2.87,2.82-1.6,1.57-3.47,2.95-5.63,3.53-1.02,.27-2.1,.34-3.14,.19-.81-.28-1.61-.57-2.4-.87Z"/>
        <path class="cls-3" d="M443.12,530.42c18.79-16.92,33.41-38.44,42.88-61.88,.32-.78,.63-1.56,.93-2.35,1.22,.32,2.44,.65,3.66,.98l-.09,.33c-9.01,23.29-25.93,48.06-44.64,64.68-1.51-.03-3.03-.04-4.54-.02l-.08-.09c.63-.55,1.26-1.1,1.88-1.65Z"/>
        <path class="cls-4" d="M473.5,365.9v8.15c0,3.01-2.44,5.45-5.45,5.45h-49.1c-3.01,0-5.45-2.44-5.45-5.45v-9.1c0-2.86,2.2-5.2,5-5.43,0,4.22-.33,9.36-.34,13.58,0,.4,.01,.84,.25,1.17,.34,.46,.99,.53,1.56,.56,1.92,.1,3.84,.2,5.77,.3,1.06,.06,2.23,.08,3.08-.56,.87-.65,1.16-1.8,1.35-2.86,.7-3.86,.81-7.83,.33-11.72v-.49h37.55c3.01,0,5.45,2.44,5.45,5.45v.95Z"/>
        <path class="cls-3" d="M430.5,359.99c.48,3.89,.37,7.86-.33,11.72-.19,1.06-.48,2.21-1.35,2.86-.85,.64-2.02,.62-3.08,.56-1.93-.1-3.85-.2-5.77-.3-.57-.03-1.22-.1-1.56-.56-.24-.33-.25-.77-.25-1.17,.01-4.22,.34-9.36,.34-13.58,.15-.01,.3-.02,.45-.02h11.55v.49Z"/>
        <path class="cls-4" d="M342.46,509.02v-.02l1.32-6.36c.61-2.95,3.5-4.84,6.45-4.23l58.37,12.13c2.95,.61,4.84,3.5,4.23,6.45l-1.11,5.35-1.46,6.99c-.61,2.94-3.5,4.84-6.44,4.22l-42.73-8.87c2.09-5.12,3.37-10.58,3.76-16.09,.05-.69,.08-1.41-.23-2.01-.43-.85-1.39-1.25-2.29-1.57-3.23-1.15-6.57-2-9.96-2.53-.57-.09-1.16-.16-1.68,.06-1.02,.44-1.26,1.74-1.39,2.84-.63,5.47-1.85,10.88-3.6,16.1l-.26-.05c-2.94-.61-4.84-3.5-4.22-6.45l1.24-5.96Z"/>
        <path class="cls-4" d="M395.12,370.38l5.88,1.08-.53,16.54-26.97-3.5,6-17,5.46,1c-.05-1.09-.24-2.02-.59-2.65-1.35-2.35-6.03-2.69-8.87-3.35,.67-1.69,1.34-3.36,2-5-.31-.35-.63-.69-.97-1,4.46,.51,13.35,2.47,15.94,5.75,.94,1.18,1.63,3.1,2.12,5.25,.21,.93,.39,1.9,.53,2.88Zm4.38,3.12c0-.55-.45-1-1-1s-1,.45-1,1,.45,1,1,1,1-.45,1-1Zm-1,10.5c0-.83-.9-1.5-2-1.5s-2,.67-2,1.5,.9,1.5,2,1.5,2-.67,2-1.5Zm-15-13c0-.83-.67-1.5-1.5-1.5s-1.5,.67-1.5,1.5,.67,1.5,1.5,1.5,1.5-.67,1.5-1.5Zm-4,11c0-.83-.67-1.5-1.5-1.5s-1.5,.67-1.5,1.5,.67,1.5,1.5,1.5,1.5-.67,1.5-1.5Z"/>
        <circle cx="398.5" cy="373.5" r="1"/>
        <ellipse cx="396.5" cy="384" rx="2" ry="1.5"/>
        <circle cx="382" cy="371" r="1.5"/>
        <circle cx="378" cy="382" r="1.5"/>
        <path class="cls-3" d="M376.53,356.5c.34,.31,.66,.65,.97,1-.66,1.64-1.33,3.31-2,5-5.16,12.99-10.77,27.18-19.55,37.55l-.04,.05-16.17-11.62,.19-.26c9.62-11.35,15.47-25.34,21.04-39.15,.1-.22,.19-.45,.28-.67l.25,.1c1.32-.11,2.88,.64,4.05,1.26,1.59,.84,3.16,1.7,4.72,2.59,2.22,1.28,4.44,2.44,6.26,4.15Z"/>
        <path class="cls-3" d="M364.62,506.58c.31,.6,.28,1.32,.23,2.01-.39,5.51-1.67,10.97-3.76,16.09l-15.39-3.2c1.75-5.22,2.97-10.63,3.6-16.1,.13-1.1,.37-2.4,1.39-2.84,.52-.22,1.11-.15,1.68-.06,3.39,.53,6.73,1.38,9.96,2.53,.9,.32,1.86,.72,2.29,1.57Z"/>
        <path class="cls-4" d="M218.48,454.4c-6.47-4.6-12.85-9.26-18.98-13.9l-.19,.02c-.02-.2-.05-.39-.09-.58-2.78-14.8-9.71-28.8-19.78-39.99-10.07-11.2-23.26-19.55-37.69-23.88-3.79-1.14-7.81-2-11.69-1.23-1.21,.24-2.41,.68-3.51,1.29l-.05-.63c.33-2.95,1.06-5.74,2.02-8.46,1.16-3.3,2.67-6.5,4.23-9.75,1.47-3.08,3.01-6.14,4.41-9.25,1.29-2.89,2.46-5.83,3.32-8.88l.05-.41c35.59,4.14,52-11.89,59.97-19.25,14.03-12.96,25.58-38.46,23.97-46.92,5.6-.29,11.09-2.28,15.59-5.62l.15,.15c4.62-.92,9.49-.55,13.93,1.04,3.72,1.34,7.09,3.49,10.42,5.64,5.77,3.71,11.55,7.42,17.32,11.13,8.02,5.15,16.1,10.36,22.9,17.03l-.18,.19c.67,1.3,1.44,2.52,2.3,3.69,3.49,4.76,8.33,8.54,13.07,12.17,.21,.16,.41,.32,.62,.47,2.65,2.03,5.3,4.06,7.96,6.09,1.93,1.87,3.05,4.63,3.47,7.41l-1.81-1.38-14.41,18.24,24.7,18.67,12-20-8.8-6.68c.17-1.58,.19-3.18,.02-4.76,4.76,3.6,9.52,7.19,14.29,10.78,.98,.74,1.97,1.48,2.96,2.23-5.57,13.81-11.42,27.8-21.04,39.15l-.19,.26-1.57-1.13-29.18,40.6s.49,.35,1.3,.94v.26c-1.12,.21-3.04,3.46-3.8,4.36-1.33,1.6-2.66,3.19-4,4.77-2.69,3.17-5.4,6.31-8.13,9.44-5.46,6.25-11.02,12.41-16.68,18.48-5.34,5.73-10.76,11.37-16.27,16.93-5.57-3.39-11.02-6.96-16.46-10.56-.86-.57-1.71-1.14-2.58-1.71,2.06-.53,4.04-1.34,5.87-2.4,.58-.34,1.15-.7,1.7-1.09l6.03,4.2,20.53-22.07-25.47-20.07-19.53,25.07,6.79,4.73c-.08,.07-.17,.13-.26,.19-1.84,1.28-3.9,2.33-6.13,2.55-1.01,.1-2.07,0-3.04-.3-3.47-2.39-6.94-4.82-10.38-7.27Zm17.48-33.51l72.63-84.26-54.5-46.97-72.62,84.27,54.49,46.96Z"/>
        <path class="cls-7" d="M357.96,401.57l-29.18,40.61c-.52-.37-1.03-.74-1.55-1.11-1.93-1.4-3.87-2.79-5.8-4.18-2.01-1.44-4.02-2.89-6.03-4.33-.9-.65-1.8-1.29-2.7-1.94-.53-.38-1.7-1.6-2.4-1.47v-.26c-.82-.59-1.31-.94-1.31-.94l29.18-40.6,1.57,1.13,16.17,11.62,2.05,1.47Z"/>
        <path class="cls-4" d="M332.02,331.97c-.42-2.78-1.54-5.54-3.47-7.41-2.66-2.03-5.31-4.06-7.96-6.09,5.36-1.82,10.41-.58,14.98,2.78,4.59,3.39,7.51,8.84,8.13,14.52,.01,.1,.02,.19,.02,.29,.17,1.58,.15,3.18-.02,4.76l8.8,6.68-12,20-24.7-18.67,14.41-18.24,1.81,1.38Zm17.48,16.03c0-.83-.45-1.5-1-1.5s-1,.67-1,1.5,.45,1.5,1,1.5,1-.67,1-1.5Zm-9,15c0-.83-.67-1.5-1.5-1.5s-1.5,.67-1.5,1.5,.67,1.5,1.5,1.5,1.5-.67,1.5-1.5Zm-9-28c0-.83-.45-1.5-1-1.5s-1,.67-1,1.5,.45,1.5,1,1.5,1-.67,1-1.5Zm-10,14c0-.83-.67-1.5-1.5-1.5s-1.5,.67-1.5,1.5,.67,1.5,1.5,1.5,1.5-.67,1.5-1.5Z"/>
        <ellipse cx="348.5" cy="348" rx="1" ry="1.5"/>
        <circle cx="339" cy="363" r="1.5"/>
        <path class="cls-4" d="M314.54,505.12c-4.9,3.21-11.03,4.61-16.71,3.21-6.5-1.6-13.48-6.19-14.33-12.83l.22-.5c3.34,1.52,6.72,2.93,10.17,4.21,.72,.46,1.54,.74,2.4,.87,1.04,.15,2.12,.08,3.14-.19,2.16-.58,4.03-1.96,5.63-3.53,.93-.9,1.9-1.84,2.87-2.82l-9.46-2.62,19.03-23.42,21.73,11.62-9.73,20.38-7.45-2.06c-1.49,2.31-3.3,4.41-5.43,6.16-.66,.54-1.36,1.05-2.08,1.52Zm20.96-25.62c0-.55-.67-1-1.5-1s-1.5,.45-1.5,1,.67,1,1.5,1,1.5-.45,1.5-1Zm-6,16c0-.55-.67-1-1.5-1s-1.5,.45-1.5,1,.67,1,1.5,1,1.5-.45,1.5-1Zm-9-22.5c0-.83-.67-1.5-1.5-1.5s-1.5,.67-1.5,1.5,.67,1.5,1.5,1.5,1.5-.67,1.5-1.5Zm-14,17c0-.83-.67-1.5-1.5-1.5s-1.5,.67-1.5,1.5,.67,1.5,1.5,1.5,1.5-.67,1.5-1.5Z"/>
        <ellipse cx="334" cy="479.5" rx="1.5" ry="1"/>
        <ellipse cx="330.5" cy="335" rx="1" ry="1.5"/>
        <ellipse cx="328" cy="495.5" rx="1.5" ry="1"/>
        <path class="cls-3" d="M261.41,483.13c5.51-5.56,10.93-11.2,16.27-16.93,5.66-6.07,11.22-12.23,16.68-18.48,2.73-3.13,5.44-6.27,8.13-9.44,1.34-1.58,2.67-3.17,4-4.77,.76-.9,2.68-4.15,3.81-4.36,.7-.13,1.87,1.09,2.4,1.47,.9,.65,1.8,1.29,2.7,1.94,2.01,1.44,4.02,2.89,6.03,4.33,1.93,1.39,3.87,2.78,5.8,4.18l-.24,.33c-14.78,18.39-31.25,35.43-49.13,50.83-.29,.26-.59,.51-.89,.77l-.4,.16c-1.69-.66-4.64-1.87-5.51-2.33-3.72-1.94-7.48-3.92-10.57-6.76,.31-.31,.62-.63,.92-.94Z"/>
        <circle cx="320" cy="349" r="1.5"/>
        <circle cx="319" cy="473" r="1.5"/>
        <path class="cls-3" d="M314.96,200.98c.03,1.66-.26,4.05-.61,5.35-.48,1.85-.83,3.7-1.2,5.52l-.58-.12c-6.77,.38-13.56,.36-20.32-.06,3.06-6.27,4.21-13.37,3.27-20.23,5.77,.06,11.48-.64,17.17-1.58l.36-.04c.57,2.82,1.18,5.73,1.55,7.95,.17,1.06,.34,2.15,.36,3.21Z"/>
        <path class="cls-4" d="M313.15,211.85c-.17,.9-.35,1.78-.55,2.66-15.7,.18-32.23,1.27-47.9,1.98,1.24-2.76,2.06-5.55,3.51-8.56,.66-1.37,1.31-3.89,1.36-5.62,.03-1.1-.2-2.23-.43-3.32-.58-2.83-1.17-5.65-1.76-8.47l.12-.02c16.62-1.36,28.34-3.15,45-3l.07-.02c.15,.76,.31,1.54,.48,2.34l-.36,.04c-5.69,.94-11.4,1.64-17.17,1.58,.94,6.86-.21,13.96-3.27,20.23,6.76,.42,13.55,.44,20.32,.06l.58,.12Z"/>
        <path class="cls-3" d="M312.57,187.48l-.07,.02c-16.66-.15-28.38,1.64-45,3l-.12,.02c-.21-1.02-.42-2.03-.63-3.04,.38-.03,.75-.06,1.12-.1,14.64-1.26,27.67-2.94,42.26-3.75,.57-.04,1.15-.07,1.74-.1v.22c.19,1.1,.43,2.38,.7,3.73Z"/>
        <path class="cls-3" d="M312.6,214.51c-.31,1.36-.67,2.69-1.17,3.99-.53-.03-1.05-.05-1.58-.07-14.79-.55-28.88,1.09-43.62,1.89-1.24,.07-2.48,.13-3.73,.18,.91-1.35,1.6-2.68,2.2-4.01,15.67-.71,32.2-1.8,47.9-1.98Z"/>
        <path class="cls-4" d="M310.12,183.48v.15c-14.58,.81-27.61,2.49-42.25,3.75l-.04-.43c-3.74-16.25-7.95-34.12-11.33-50.45l-.07-.38,36.53-6.33,.04,.22c3.16,18.51,8.95,36.57,17.12,53.47Z"/>
        <path class="cls-4" d="M309.85,218.43v.14c-2.53,20.74-4.27,54.17-5.12,77.33-.88-1.02-1.88-1.96-2.88-2.86-5.67-5.1-11.86-9.59-18.04-14.06-8.45-6.14-16.93-12.28-26.02-17.41-2.23-1.26-4.53-2.47-7.03-3.02-.05-.01-.11-.02-.16-.03,6-12.27,11.24-24.94,15.65-37.88l-.02-.32c14.74-.8,28.83-2.44,43.62-1.89Z"/>
        <path class="cls-3" d="M308.59,336.63l-72.63,84.26-54.49-46.96,72.62-84.27,54.5,46.97Zm-45.34,38.62l34.25-39.75-19.95-17.19-34.26,39.74,19.96,17.2Zm-10-44.5c8.7-8.7,13.32-18.18,10.33-21.17s-12.48,1.63-21.18,10.32c-8.69,8.7-13.32,18.18-10.32,21.18s12.47-1.63,21.17-10.33Zm-7.75,62.75c0-3.87-3.13-7-7-7s-7,3.13-7,7,3.13,7,7,7,7-3.13,7-7Zm-14-13c0-3.87-3.13-7-7-7s-7,3.13-7,7,3.13,7,7,7,7-3.13,7-7Zm-14.21-12.57c9.01-9.01,13.89-18.75,10.9-21.74s-12.73,1.88-21.75,10.9-13.89,18.75-10.89,21.74c2.99,3,12.73-1.88,21.74-10.9Z"/>
        <path class="cls-3" d="M250.6,258.52c.05,0,.11,.02,.16,.03,2.5,.55,4.8,1.76,7.03,3.02,9.09,5.13,17.57,11.27,26.02,17.41,6.18,4.47,12.37,8.96,18.04,14.06,1,.9,2,1.84,2.88,2.86,.72,.83,1.36,1.71,1.88,2.68,1.14,2.16,1.56,4.84,.54,7.06l-.25,.19c-.86-1.17-1.63-2.39-2.3-3.69l.18-.19c-6.8-6.67-14.88-11.88-22.9-17.03-5.77-3.71-11.55-7.42-17.32-11.13-3.33-2.15-6.7-4.3-10.42-5.64-4.44-1.59-9.31-1.96-13.93-1.04l-.15-.15,.66-.51-.29-.37c-.64-2.47,.76-5.18,2.92-6.55,2.12-1.33,4.8-1.52,7.25-1.01Z"/>
        <circle cx="305" cy="490" r="1.5"/>
        <polygon class="cls-9" points="297.5 335.5 263.25 375.25 243.29 358.05 277.55 318.31 297.5 335.5"/>
        <path class="cls-3" d="M295.78,126.59c.25,1.45-.72,2.84-2.17,3.09l-.65,.11-36.53,6.33-2.12,.37c-1.45,.25-2.83-.72-3.09-2.17l-1.34-7.74c-.19-1.13,.35-2.22,1.28-2.76,.27-.16,.57-.28,.9-.33l39.29-6.81c.15-.03,.31-.04,.46-.04,1.28,0,2.41,.91,2.63,2.21l1.34,7.74Z"/>
        <path class="cls-4" d="M292.06,116.39l-.25,.25c-.15,0-.31,.01-.46,.04l-39.29,6.81c-.33,.05-.63,.17-.9,.33l-.25-.27c-.44-4.65-.87-9.3-1.31-13.96-.14-1.47-.29-3-1.03-4.29-1.57-2.73-5.08-3.45-8-4.63-5.33-2.15-9.6-6.69-11.67-12.05-.54-1.42-.95-2.96-.71-4.46,.24-1.51,1.27-2.97,2.75-3.32,1.31-.32,2.69,.26,3.73,1.11s1.84,1.96,2.78,2.93c2.14,2.23,5.01,3.74,8.06,4.23,.58,.1,.76,.08,1.34-.03-4.81-10.72-9.25-21.6-13.3-32.62-.54-1.48-1.08-3.04-.81-4.59,.28-1.55,1.69-3.01,3.24-2.75,1.22,.2,2.04,1.32,2.69,2.37,2.79,4.44,5.01,9.2,7.22,13.95,1.95,4.18,3.9,8.37,5.85,12.55-2.22-11.26-4.44-22.53-6.66-33.79-.3-1.57-.43-3.57,.94-4.38,1.01-.59,2.36-.15,3.16,.7,.8,.84,1.18,1.99,1.54,3.1l9.39,29.46c-.56-9.76-1.12-19.51-1.69-29.26-.04-.78-.08-1.6,.2-2.33,.29-.74,1-1.36,1.79-1.29,.72,.07,1.26,.68,1.67,1.27,5.84,8.31,2.72,20.69,8.79,28.83-.21-7.6-.43-15.21-.64-22.81-.02-.94,.08-2.09,.93-2.47,1.12-.51,2.17,.82,2.68,1.94,4.98,11.02,7.62,23.1,7.68,35.2,.03,5.76-.49,11.67,1.26,17.16,1.97,6.18,6.62,11.15,9.28,17.07Z"/>
        <path class="cls-4" d="M275.22,576.49c.67,.48,1.3,1.02,1.87,1.63,1.7,1.81,2.81,4.32,2.41,6.76-.4,2.45-2.62,4.63-5.09,4.48,.73,2.12,.16,4.64-1.42,6.23-1.59,1.6-4.11,2.18-6.23,1.46,.2,2.36-.99,4.79-2.98,6.08-1.99,1.3-4.7,1.4-6.78,.25,1.16,1.24,.9,3.4-.31,4.58-1.22,1.17-3.12,1.45-4.76,1.03-1.63-.43-3.06-1.45-4.31-2.59-7.67-7.01-9.91-18.45-17.35-25.7-4.94-4.81-11.88-7.46-16-12.99l-.12-.17,30.59-21.4,.1,.14c.86,5.19,3.91,9.97,8.25,12.95,2.71,1.85,5.83,3,8.89,4.18,3.07,1.19,6.16,2.46,8.72,4.52s4.56,5.04,4.7,8.32l-.18,.24Z"/>
        <path class="cls-4" d="M238.29,459.23l-6.79-4.73,19.53-25.07,25.47,20.07-20.53,22.07-6.03-4.2c-.55,.39-1.12,.75-1.7,1.09-1.83,1.06-3.81,1.87-5.87,2.4-4.45,1.15-9.22,.99-13.43-.82-6.12-2.64-10.66-8.99-10.46-15.64,3.44,2.45,6.91,4.88,10.38,7.27,.97,.3,2.03,.4,3.04,.3,2.23-.22,4.29-1.27,6.13-2.55,.09-.06,.18-.12,.26-.19Zm34.21-9.23c0-.83-.67-1.5-1.5-1.5s-1.5,.67-1.5,1.5,.67,1.5,1.5,1.5,1.5-.67,1.5-1.5Zm-16,18.5c0-.55-.45-1-1-1s-1,.45-1,1,.45,1,1,1,1-.45,1-1Zm-3-33.5c0-.83-.67-1.5-1.5-1.5s-1.5,.67-1.5,1.5,.67,1.5,1.5,1.5,1.5-.67,1.5-1.5Zm-14,19c0-.83-.9-1.5-2-1.5s-2,.67-2,1.5,.9,1.5,2,1.5,2-.67,2-1.5Z"/>
        <circle cx="271" cy="450" r="1.5"/>
        <path class="cls-5" d="M263.58,309.58c2.99,2.99-1.63,12.47-10.33,21.17s-18.18,13.32-21.17,10.33,1.63-12.48,10.32-21.18c8.7-8.69,18.18-13.32,21.18-10.32Z"/>
        <circle cx="255.5" cy="468.5" r="1"/>
        <circle cx="252" cy="435" r="1.5"/>
        <path class="cls-3" d="M245.59,541.49c1.05,1.5,.68,3.58-.82,4.63l-.03,.02-30.59,21.4-.98,.68c-1.51,1.06-3.59,.69-4.64-.82l-3.74-5.35c-1.06-1.51-.69-3.58,.82-4.64l.82-.57,30.6-21.41,.18-.12c1.5-1.05,3.58-.69,4.63,.82l3.75,5.36Z"/>
        <circle class="cls-8" cx="238.5" cy="393.5" r="7"/>
        <ellipse cx="237.5" cy="454" rx="2" ry="1.5"/>
        <path class="cls-4" d="M237.03,535.43l-30.6,21.41-.1-.14c-16.25-18.81-32.49-37.61-48.73-56.41l-.02-.33c18.58-1.16,35.69-2.65,54.35-2.47,8.28,12.52,16.55,25.03,24.82,37.54l.28,.4Z"/>
        <circle class="cls-7" cx="224.5" cy="380.5" r="7"/>
        <path class="cls-6" d="M228.19,346.19c2.99,2.99-1.89,12.73-10.9,21.74-9.01,9.02-18.75,13.9-21.74,10.9-3-2.99,1.88-12.73,10.89-21.74s18.75-13.9,21.75-10.9Z"/>
        <path class="cls-4" d="M139.49,332.49c18.86-.03,36.3-1.29,56.01-17.99,17.64-14.95,22-33,23-45,0-.05,.03-.09,.07-.12,.52-.48,4.06,.25,4.93,1.12,.48,.48,.8,1.18,.97,2.08,1.61,8.46-9.94,33.96-23.97,46.92-7.97,7.36-24.38,23.39-59.97,19.25-.67-.07-1.35-.16-2.03-.25,.24-1.28-3-6,0-6,.33,0,.66,0,.99-.01Z"/>
        <path class="cls-4" d="M218.42,269.27l.15,.11s-.07,.07-.07,.12c-1,12-5.36,30.05-23,45-19.71,16.7-37.15,17.96-56.01,17.99-2.19-.94-4-4.01-3.74-6.38l.21-.02c2.55,.5,38.21,6.67,60.93-19.01,13.88-15.68,14.91-34.18,15-40l.19-.08c.04,.09,.08,.18,.12,.28,2.21,0,4.42,.7,6.22,1.99Z"/>
        <path class="cls-3" d="M211.93,497.49c-18.66-.18-35.77,1.31-54.35,2.47l-2.43,.15c-1.7-1.43-2.97-2.52-4.07-3.52l.42-.09c19.29-1.2,39.54-1.95,58.86-2.59,.93,1.25,1.94,2.45,3.14,3.59-.53-.01-1.05-.01-1.57-.01Z"/>
        <path class="cls-4" d="M135.96,326.09l-.21,.02h-.02c-2.01,0-3.89-1.62-4.19-3.6,2.24,.44,38.13,6.79,60.96-19.01,13.88-15.68,14.91-34.19,15-40l.13-.03c.02,.08,.04,.17,.05,.26,1.89,.27,3.6,1.55,4.4,3.27l-.19,.08c-.09,5.82-1.12,24.32-15,40-22.72,25.68-58.38,19.51-60.93,19.01Z"/>
        <path class="cls-4" d="M204.5,485.5c2.22,2.79,3.83,5.69,5.86,8.41-19.32,.64-39.57,1.39-58.86,2.59l-.42,.09c-1.04-.95-1.92-1.83-2.87-2.86l.29-.23c6.63-.29,14.92-.49,21.44-1.57-2.78-5.45-3.93-11.53-3.3-17.47,.13-1.22,.17-2.75-1.07-3.34-.41-.19-.88-.23-1.34-.27-7.99-.69-15.99-1.38-23.98-2.07l-.3-.04c.16-1.22,.32-2.45,.49-3.68l.22,.03c19.98,2.47,40.16,3.35,60.29,2.65h.36c.06,2.99,.11,6,.16,9,.02,1.13,.05,2.3,.33,3.39,.46,1.72,1.7,4.12,2.7,5.37Z"/>
        <path class="cls-4" d="M207.63,263.47l-.13,.03c-.09,5.81-1.12,24.32-15,40-22.83,25.8-58.72,19.45-60.96,19.01-.01-.03-.02-.06-.02-.09-2.41-1.04-4.3-3.22-5-5.75l.07-.19c5.78,1.96,11.97,3.02,18.41,3.02,31.76,0,57.5-25.74,57.5-57.5,0-1.37-.05-2.74-.15-4.09l.21-.02c2.53,.75,4.55,2.99,5.07,5.58Z"/>
        <path class="cls-4" d="M175.25,220.5c-6.65-.08-27.87,.58-47.75,16-21.39,16.59-26.77,39.05-28,45,.2,.72,.53,1.77,1,3,5.23,13.58,19.06,23.7,33,27,25.68,6.08,45.42-12.47,47-14,3.1-3.01,15.06-14.87,16-34,1.14-23.16-14.77-38.15-17.76-40.79l.04-.04c-.87-1.11-2.15-1.89-3.53-2.17Zm-61.12,90.01v.02c-1.71,1.6-4.39,1.77-6.6,1s-4.04-2.33-5.76-3.9c-6.13-5.59-11.7-11.91-15.55-19.25-.85-1.62-1.63-3.37-1.5-5.2,.2-2.59,2.76-4.74,4.66-6.56-1.23-4.67-1.88-9.56-1.88-14.62,0-31.76,25.74-57.5,57.5-57.5,.67,0,1.33,.01,1.99,.03l-8.18-8.19-.6-.08c-.54,.16-1.12,.24-1.71,.24-3.31,0-6-2.69-6-6s2.69-6,6-6,6,2.69,6,6c0,.82-.16,1.6-.46,2.31h.3l12.54,12.54c7.55,1.31,14.6,4.08,20.83,8.03,2.29-1.3,5.26-3.64,7.77-3.07,1.78,.4,3.23,1.66,4.54,2.95,5.89,5.82,10.31,13,13.86,20.48,1,2.12,1.96,4.32,2.05,6.66,.1,2.33-.4,4.94-2.43,6.1-.26,.16-.51,.33-.76,.5l-.2,.05c.94,3.5,1.56,7.13,1.81,10.86,.1,1.35,.15,2.72,.15,4.09,0,31.76-25.74,57.5-57.5,57.5-6.44,0-12.63-1.06-18.41-3.02-4.42-1.49-8.6-3.51-12.46-5.97Z"/>
        <path class="cls-3" d="M198.91,464.53c.79-.01,1.57-.01,2.35-.03,.02,1.08,.04,2.15,.05,3.23h-.36c-20.13,.71-40.31-.17-60.29-2.64l-.22-.03c.11-.87,.23-1.74,.34-2.61v-.16c.71,.04,1.41,.08,2.12,.13,18.46,1.11,37.52,2.25,56.01,2.11Z"/>
        <path class="cls-3" d="M128.67,389.03c-1.65,.84-3.87,.48-5.26-.8-1.59-1.46-2.15-3.83-1.73-5.95,.54-2.67,2.46-4.82,4.87-6.15,1.1-.61,2.3-1.05,3.51-1.29,3.88-.77,7.9,.09,11.69,1.23,14.43,4.33,27.62,12.68,37.69,23.88,10.07,11.19,17,25.19,19.78,39.99,.04,.19,.07,.38,.09,.58,.11,.7,.1,1.43-.3,2-.51,.73-1.91,.75-2.1-.11l-.41,.09c0,.38,0,.75,.01,1.11-3.97-13.33-10.69-25.9-20.01-36.23-9.34-10.34-21.31-18.39-34.61-22.58-2.38-.75-4.89-1.38-7.36-.98s-4.88,2.08-5.42,4.52l.2,.27c-.2,.16-.41,.3-.64,.42Z"/>
        <path class="cls-4" d="M129.31,388.61l-.2-.27c.54-2.44,2.95-4.12,5.42-4.52s4.98,.23,7.36,.98c13.3,4.19,25.27,12.24,34.61,22.58,9.32,10.33,16.04,22.9,20.01,36.23,.06,8.97,.89,11.56,2.4,20.92-18.49,.14-37.55-1-56.01-2.11-4.16-23.25-6.78-50.92-14.23-73.39,.23-.12,.44-.26,.64-.42Z"/>
        <path d="M178.74,222.71c2.99,2.64,18.9,17.63,17.76,40.79-.94,19.13-12.9,30.99-16,34-1.58,1.53-21.32,20.08-47,14-13.94-3.3-27.77-13.42-33-27-.47-1.23-.8-2.28-1-3,1.23-5.95,6.61-28.41,28-45,19.88-15.42,41.1-16.08,47.75-16,1.38,.28,2.66,1.06,3.53,2.17l-.04,.04Zm-42.46,27.17c-7.5,.25-14.62,4.73-18.53,11.15-3.95,6.51-4.67,14.77-2.43,22.05,2.19,7.09,7.06,13.23,13.17,17.44v-.02c-3.86-8.54-7.89-18.42-6.8-27.73s6.24-18.47,14.6-22.7v-.19Z"/>
        <path class="cls-3" d="M165.57,471.12c1.24,.59,1.2,2.12,1.07,3.34-.63,5.94,.52,12.02,3.3,17.47-6.52,1.08-14.81,1.28-21.44,1.57l-.29,.23c-1.05-1.13-2.19-2.44-3.71-4.23-1.27-1.49-4.6-5.09-5-7-.26-1.21-.69-5.1-.53-6.33,.32-2.47,.65-4.95,.98-7.43l.3,.04c7.99,.69,15.99,1.38,23.98,2.07,.46,.04,.93,.08,1.34,.27Z"/>
        <path class="cls-4" d="M136.28,249.88v.19c-8.35,4.23-13.5,13.39-14.59,22.7s2.94,19.19,6.81,27.73v.02c-6.12-4.21-10.99-10.35-13.18-17.44-2.24-7.28-1.52-15.54,2.43-22.05,3.91-6.42,11.03-10.9,18.53-11.15Z"/>
      </g>
      <g>
        <path class="cls-2" d="M200.49,246.86c.02,.06,.03,.13,.05,.19,.94,3.5,1.56,7.13,1.81,10.86,.1,1.35,.15,2.72,.15,4.09,0,31.76-25.74,57.5-57.5,57.5-6.44,0-12.63-1.06-18.41-3.02-4.42-1.49-8.6-3.51-12.46-5.97-.07-.04-.14-.09-.21-.13"/>
        <path class="cls-2" d="M154.55,205.29l.33,.06c7.55,1.31,14.6,4.08,20.83,8.03,.06,.03,.12,.07,.18,.11"/>
        <path class="cls-2" d="M89.42,276.8c-.02-.06-.03-.12-.04-.18-1.23-4.67-1.88-9.56-1.88-14.62,0-31.76,25.74-57.5,57.5-57.5,.67,0,1.33,.01,1.99,.03,.07,0,.15,.01,.22,.01"/>
        <path class="cls-2" d="M89.5,276.5s-.08,.07-.12,.12c-1.9,1.82-4.46,3.97-4.66,6.56-.13,1.83,.65,3.58,1.5,5.2,3.85,7.34,9.42,13.66,15.55,19.25,1.72,1.57,3.55,3.13,5.76,3.9s4.89,.6,6.59-1"/>
        <path class="cls-2" d="M175.5,213.5l.21-.12c2.29-1.3,5.26-3.64,7.77-3.07,1.78,.4,3.23,1.66,4.54,2.95,5.89,5.82,10.31,13,13.86,20.48,1,2.12,1.96,4.32,2.05,6.66,.1,2.33-.4,4.94-2.43,6.1"/>
        <polyline class="cls-2" points="142.34 192.81 154.88 205.35 155.15 205.62"/>
        <polyline class="cls-2" points="147.08 204.62 146.99 204.53 138.81 196.34"/>
        <path class="cls-2" d="M138.74,196.07c-.17,.07-.35,.13-.53,.19-.54,.16-1.12,.24-1.71,.24-3.31,0-6-2.69-6-6s2.69-6,6-6,6,2.69,6,6c0,.82-.16,1.6-.46,2.31"/>
        <path class="cls-2" d="M131.5,322.5s.02,0,.04,.01c2.24,.44,38.13,6.79,60.96-19.01,13.88-15.68,14.91-34.19,15-40"/>
        <path class="cls-2" d="M135.89,326.08s.04,.01,.07,.01c2.55,.5,38.21,6.67,60.93-19.01,13.88-15.68,14.91-34.18,15-40"/>
        <path class="cls-2" d="M139.49,332.49c-.33,.01-.66,.01-.99,.01-3,0,.24,4.72,0,6,.68,.09,1.36,.18,2.03,.25,35.59,4.14,52-11.89,59.97-19.25,14.03-12.96,25.58-38.46,23.97-46.92-.17-.9-.49-1.6-.97-2.08-.87-.87-4.41-1.6-4.93-1.12-.04,.03-.07,.07-.07,.12-1,12-5.36,30.05-23,45-19.71,16.7-37.15,17.96-56.01,17.99Z"/>
        <path class="cls-2" d="M202.56,257.89c2.53,.75,4.55,2.99,5.07,5.58,.02,.08,.04,.17,.05,.26,1.89,.27,3.6,1.55,4.4,3.27,.04,.09,.08,.18,.12,.28,2.21,0,4.42,.7,6.22,1.99"/>
        <path class="cls-2" d="M126.52,316.67c.7,2.53,2.59,4.71,5,5.75,0,.03,0,.06,.02,.09,.3,1.98,2.18,3.6,4.19,3.6h.02c-.26,2.37,1.55,5.44,3.74,6.38h.01"/>
        <path class="cls-2" d="M137.16,348.04c1.29-2.89,2.46-5.83,3.32-8.88"/>
        <path class="cls-2" d="M128.52,367.04c1.16-3.3,2.67-6.5,4.23-9.75,1.47-3.08,3.01-6.14,4.41-9.25"/>
        <path class="cls-2" d="M126.5,375.5c.33-2.95,1.06-5.74,2.02-8.46"/>
        <path class="cls-2" d="M224.45,272.58h.02c5.6-.29,11.09-2.28,15.59-5.62l.66-.51c.07-.06,.15-.12,.22-.18"/>
        <path class="cls-2" d="M128.5,388.5c.06,.18,.12,.35,.17,.53,7.45,22.47,10.07,50.14,14.23,73.39v.02"/>
        <path class="cls-2" d="M196.5,442.5c0,.38,0,.75,.01,1.11,.06,8.97,.89,11.56,2.4,20.92,.02,.11,.04,.22,.06,.34"/>
        <path class="cls-2" d="M140.48,462.27c.1,.01,.21,.01,.31,.02,.7,.04,1.4,.08,2.11,.13,18.46,1.11,37.52,2.25,56.01,2.11,.79-.01,1.57-.01,2.35-.03h.24"/>
        <path class="cls-2" d="M155.09,500.11h.06l2.43-.15c18.58-1.16,35.69-2.65,54.35-2.47,.52,0,1.04,0,1.57,.01"/>
        <path class="cls-2" d="M140.78,462.45c-.11,.87-.23,1.74-.34,2.61-.17,1.23-.33,2.46-.49,3.68-.33,2.48-.66,4.96-.98,7.43-.16,1.23,.27,5.12,.53,6.33,.4,1.91,3.73,5.51,5,7,1.52,1.79,2.66,3.1,3.71,4.23,.95,1.03,1.83,1.91,2.87,2.86,1.1,1,2.37,2.09,4.07,3.52l.18,.15"/>
        <path class="cls-2" d="M201.25,464.05c0,.15,.01,.3,.01,.45,.02,1.08,.04,2.15,.05,3.23,.06,3,.11,6.01,.16,9.01,.02,1.13,.05,2.3,.33,3.39,.46,1.72,1.7,4.12,2.7,5.37,2.22,2.79,3.83,5.69,5.86,8.41,.93,1.25,1.94,2.45,3.14,3.59"/>
        <path class="cls-2" d="M157.6,500.29c16.24,18.8,32.48,37.6,48.73,56.41"/>
        <path class="cls-2" d="M211.89,497.42s.03,.05,.04,.07c8.28,12.52,16.55,25.03,24.82,37.54"/>
        <path class="cls-2" d="M140.66,465.09c19.98,2.47,40.16,3.35,60.29,2.65"/>
        <path class="cls-2" d="M151.5,496.5c19.29-1.2,39.54-1.95,58.86-2.59h.1"/>
        <path class="cls-1" d="M237.03,535.43l.18-.12c1.5-1.05,3.58-.69,4.63,.82l3.75,5.36c1.05,1.5,.68,3.58-.82,4.63l-.03,.02-30.59,21.4-.98,.68c-1.51,1.06-3.59,.69-4.64-.82l-3.74-5.35c-1.06-1.51-.69-3.58,.82-4.64l.82-.57,30.6-21.41Z"/>
        <path class="cls-2" d="M99.5,281.5c1.23-5.95,6.61-28.41,28-45,19.88-15.42,41.1-16.08,47.75-16h.25"/>
        <path class="cls-2" d="M99.5,281.5c.2,.72,.53,1.77,1,3,5.23,13.58,19.06,23.7,33,27,25.68,6.08,45.42-12.47,47-14,3.1-3.01,15.06-14.87,16-34,1.14-23.16-14.77-38.15-17.76-40.79-.09-.08-.17-.15-.24-.21"/>
        <path class="cls-2" d="M174.9,220.43c.12,.02,.23,.04,.35,.07,1.38,.28,2.66,1.06,3.53,2.17l.02,.02"/>
        <path class="cls-2" d="M201.78,246.31c-.09,.06-.19,.12-.28,.19-.26,.16-.51,.33-.76,.5"/>
        <path class="cls-2" d="M250.41,258.92c.07-.13,.13-.27,.19-.4,6-12.27,11.24-24.94,15.65-37.88"/>
        <path class="cls-2" d="M304.72,296.12c0-.07,.01-.14,.01-.22,.85-23.16,2.59-56.59,5.11-77.33"/>
        <path class="cls-2" d="M266.6,186.76l.15,.72c.21,1.01,.42,2.02,.63,3.04,.59,2.82,1.18,5.64,1.76,8.47,.23,1.09,.46,2.22,.43,3.32-.05,1.73-.7,4.25-1.36,5.62-1.45,3.01-2.27,5.8-3.51,8.56-.6,1.33-1.29,2.66-2.2,4.01"/>
        <path class="cls-2" d="M311.88,183.75c.18,1.1,.42,2.38,.69,3.73,.15,.76,.31,1.54,.48,2.34,.57,2.82,1.18,5.73,1.55,7.95,.17,1.06,.34,2.15,.36,3.21,.03,1.66-.26,4.05-.61,5.35-.48,1.85-.83,3.7-1.2,5.52-.17,.9-.35,1.78-.55,2.66-.31,1.36-.67,2.69-1.17,3.99-.02,.06-.05,.13-.07,.19"/>
        <path class="cls-2" d="M267.5,190.5c16.62-1.36,28.34-3.15,45-3"/>
        <path class="cls-2" d="M266.5,187.5c.08-.01,.17-.01,.25-.02,.38-.03,.75-.06,1.12-.1,14.64-1.26,27.67-2.94,42.26-3.75,.57-.04,1.15-.07,1.74-.1l.63-.03"/>
        <path class="cls-2" d="M262.5,220.5c1.25-.05,2.49-.11,3.73-.18,14.74-.8,28.83-2.44,43.62-1.89,.53,.02,1.05,.04,1.58,.07h.07"/>
        <path class="cls-2" d="M264.5,216.5c.07,0,.13-.01,.2-.01,15.67-.71,32.2-1.8,47.9-1.98,.3,0,.6-.01,.9-.01"/>
        <path class="cls-1" d="M291.81,116.64c1.28,0,2.41,.91,2.63,2.21l1.34,7.74c.25,1.45-.72,2.84-2.17,3.09l-.65,.11-36.53,6.33-2.12,.37c-1.45,.25-2.83-.72-3.09-2.17l-1.34-7.74c-.19-1.13,.35-2.22,1.28-2.76,.27-.16,.57-.28,.9-.33l39.29-6.81c.15-.03,.31-.04,.46-.04Z"/>
        <path class="cls-1" d="M267.83,186.95c-3.74-16.25-7.95-34.12-11.33-50.45"/>
        <path class="cls-1" d="M310.12,183.48c-8.17-16.9-13.96-34.96-17.12-53.47"/>
        <path class="cls-1" d="M292.06,116.39c-2.66-5.92-7.31-10.89-9.28-17.07-1.75-5.49-1.23-11.4-1.26-17.16-.06-12.1-2.7-24.18-7.68-35.2-.51-1.12-1.56-2.45-2.68-1.94-.85,.38-.95,1.53-.93,2.47,.21,7.6,.43,15.21,.64,22.81-6.07-8.14-2.95-20.52-8.79-28.83-.41-.59-.95-1.2-1.67-1.27-.79-.07-1.5,.55-1.79,1.29-.28,.73-.24,1.55-.2,2.33,.57,9.75,1.13,19.5,1.69,29.26l-9.39-29.46c-.36-1.11-.74-2.26-1.54-3.1-.8-.85-2.15-1.29-3.16-.7-1.37,.81-1.24,2.81-.94,4.38,2.22,11.26,4.44,22.53,6.66,33.79-1.95-4.18-3.9-8.37-5.85-12.55-2.21-4.75-4.43-9.51-7.22-13.95-.65-1.05-1.47-2.17-2.69-2.37-1.55-.26-2.96,1.2-3.24,2.75-.27,1.55,.27,3.11,.81,4.59,4.05,11.02,8.49,21.9,13.3,32.62-.58,.11-.76,.13-1.34,.03-3.05-.49-5.92-2-8.06-4.23-.94-.97-1.74-2.08-2.78-2.93s-2.42-1.43-3.73-1.11c-1.48,.35-2.51,1.81-2.75,3.32-.24,1.5,.17,3.04,.71,4.46,2.07,5.36,6.34,9.9,11.67,12.05,2.92,1.18,6.43,1.9,8,4.63,.74,1.29,.89,2.82,1.03,4.29,.44,4.66,.87,9.31,1.31,13.96"/>
        <polygon class="cls-1" points="308.59 336.63 235.96 420.89 181.47 373.93 254.09 289.66 308.59 336.63"/>
        <path class="cls-2" d="M314.36,505.08c.06,.01,.12,.03,.18,.04,7.34,1.63,14.78,2.76,22.27,3.36,.87,.07,1.75,.13,2.62,.19"/>
        <path class="cls-2" d="M277.77,492.19s.06,.03,.09,.04c.29,.14,.58,.29,.87,.43,1.66,.8,3.32,1.59,4.99,2.34,3.34,1.52,6.72,2.93,10.17,4.21,.79,.3,1.59,.59,2.4,.87,.4,.14,.8,.28,1.21,.42"/>
        <path class="cls-2" d="M242.18,470.73c.06,.04,.13,.09,.19,.13,.87,.57,1.72,1.14,2.58,1.71,5.44,3.6,10.89,7.17,16.46,10.56,.03,.02,.07,.04,.1,.06"/>
        <path class="cls-2" d="M199.5,440.5c6.13,4.64,12.51,9.3,18.98,13.9,3.44,2.45,6.91,4.88,10.38,7.27,.2,.14,.39,.27,.59,.41"/>
        <path class="cls-2" d="M343.53,335.91c.06,.05,.13,.1,.19,.15,4.76,3.6,9.52,7.19,14.29,10.78,.98,.74,1.97,1.48,2.96,2.23,.05,.03,.1,.07,.15,.11"/>
        <path class="cls-2" d="M304.6,302.14c.67,1.3,1.44,2.52,2.3,3.69,3.49,4.76,8.33,8.54,13.07,12.17,.21,.16,.41,.32,.62,.47,2.65,2.03,5.3,4.06,7.96,6.09,.05,.03,.09,.06,.14,.1"/>
        <polygon class="cls-2" points="297.5 335.5 263.25 375.25 243.29 358.05 277.55 318.31 297.5 335.5"/>
        <path class="cls-2" d="M263.58,309.58c2.99,2.99-1.63,12.47-10.33,21.17s-18.18,13.32-21.17,10.33,1.63-12.48,10.32-21.18c8.7-8.69,18.18-13.32,21.18-10.32Z"/>
        <path class="cls-2" d="M228.19,346.19c2.99,2.99-1.89,12.73-10.9,21.74-9.01,9.02-18.75,13.9-21.74,10.9-3-2.99,1.88-12.73,10.89-21.74s18.75-13.9,21.75-10.9Z"/>
        <circle class="cls-2" cx="224.5" cy="380.5" r="7"/>
        <circle class="cls-2" cx="238.5" cy="393.5" r="7"/>
        <polyline class="cls-2" points="238.37 459.29 238.29 459.23 231.5 454.5 251.03 429.43 276.5 449.5 255.97 471.57 249.94 467.37 249.68 467.19"/>
        <polyline class="cls-2" points="343.56 340.72 343.7 340.82 352.5 347.5 340.5 367.5 315.8 348.83 330.21 330.59 332.02 331.97 332.29 332.17"/>
        <path class="cls-2" d="M310.29,428.89c-.81-.59-1.3-.94-1.3-.94l29.18-40.6,1.57,1.13,16.17,11.62,2.05,1.47-29.18,40.61c-.52-.37-1.03-.74-1.55-1.11-1.93-1.4-3.87-2.79-5.8-4.18-2.01-1.44-4.02-2.89-6.03-4.33-.9-.65-1.8-1.29-2.7-1.94-.53-.38-1.7-1.6-2.4-1.47-1.13,.21-3.05,3.46-3.81,4.36-1.33,1.6-2.66,3.19-4,4.77-2.69,3.17-5.4,6.31-8.13,9.44-5.46,6.25-11.02,12.41-16.68,18.48-5.34,5.73-10.76,11.37-16.27,16.93-.3,.31-.61,.63-.92,.94l-.06,.06"/>
        <path class="cls-2" d="M276.97,493c.3-.26,.6-.51,.89-.77,17.88-15.4,34.35-32.44,49.13-50.83"/>
        <path class="cls-2" d="M260.34,483.94c.05,.05,.1,.09,.15,.13,3.09,2.84,6.85,4.82,10.57,6.76,.87,.46,3.82,1.67,5.51,2.33,.39,.14,.72,.26,.93,.34"/>
        <path class="cls-2" d="M339.93,388.22c9.62-11.35,15.47-25.34,21.04-39.15,.1-.22,.19-.45,.28-.67,.08-.21,.17-.42,.25-.63"/>
        <path class="cls-2" d="M355.95,400.05c8.78-10.37,14.39-24.56,19.55-37.55,.67-1.69,1.34-3.36,2-5"/>
        <path class="cls-2" d="M361.5,348.5c1.32-.11,2.88,.64,4.05,1.26,1.59,.84,3.16,1.7,4.72,2.59,2.22,1.28,4.44,2.44,6.26,4.15,.34,.31,.66,.65,.97,1"/>
        <path class="cls-2" d="M327.44,344.92c2.87-2.4,4.65-6.04,4.77-9.78,.04-1.03-.02-2.1-.19-3.17-.42-2.78-1.54-5.54-3.47-7.41-.01-.02-.03-.04-.05-.06"/>
        <path class="cls-2" d="M339.62,352.05c2.2-3.37,3.64-7.25,4.08-11.23,.17-1.58,.19-3.18,.02-4.76,0-.1-.01-.19-.02-.29-.62-5.68-3.54-11.13-8.13-14.52-4.57-3.36-9.62-4.6-14.98-2.78l-.09,.03"/>
        <path class="cls-2" d="M248.42,444.2c-1.43,6.01-5.1,11.45-10.13,15.03-.08,.07-.17,.13-.26,.19-1.84,1.28-3.9,2.33-6.13,2.55-1.01,.1-2.07,0-3.04-.3-1.18-.36-2.24-1.02-2.99-1.98"/>
        <path class="cls-2" d="M260.83,453.28c-2.25,5.59-5.95,10.7-10.89,14.09-.55,.39-1.12,.75-1.7,1.09-1.83,1.06-3.81,1.87-5.87,2.4-4.45,1.15-9.22,.99-13.43-.82-6.12-2.64-10.66-8.99-10.46-15.64v-.11"/>
        <polyline class="cls-2" points="308.16 493.6 307.93 493.54 298.47 490.92 317.5 467.5 339.23 479.12 329.5 499.5 322.05 497.44 321.85 497.38"/>
        <path class="cls-2" d="M315.5,480.5c-.34,4.98-3.88,9.28-7.57,13.04-.97,.98-1.94,1.92-2.87,2.82-1.6,1.57-3.47,2.95-5.63,3.53-1.02,.27-2.1,.34-3.14,.19-.86-.13-1.68-.41-2.4-.87-.28-.16-.54-.36-.78-.58"/>
        <path class="cls-2" d="M326.54,486.55c-.85,3.85-2.35,7.59-4.49,10.89-1.49,2.31-3.3,4.41-5.43,6.16-.66,.54-1.36,1.05-2.08,1.52-4.9,3.21-11.03,4.61-16.71,3.21-6.5-1.6-13.48-6.19-14.33-12.83"/>
        <polyline class="cls-2" points="394.86 370.33 395.12 370.38 401 371.46 400.47 388 373.5 384.5 379.5 367.5 384.96 368.5 385.17 368.54"/>
        <path class="cls-2" d="M383.5,377.5c.76-1.82,1.61-5.99,1.46-9-.05-1.09-.24-2.02-.59-2.65-1.35-2.35-6.03-2.69-8.87-3.35"/>
        <path class="cls-2" d="M395.5,378.5c.15-1.96,.05-5.07-.38-8.12-.14-.98-.32-1.95-.53-2.88-.49-2.15-1.18-4.07-2.12-5.25-2.59-3.28-11.48-5.24-15.94-5.75h-.03"/>
        <path class="cls-2" d="M473.38,365.91s.08,0,.12,0c8.34-.37,16.61-.83,24.75-1.38,.08-.01,.17-.01,.25-.02"/>
        <path class="cls-2" d="M394.5,367.5h.09c8,.16,10.76-.3,18.91-.31h.16"/>
        <path class="cls-2" d="M411.49,522.29c.08,.02,.15,.03,.23,.05,9.91,2.13,21.46,5.93,31.4,8.08,.13,.03,.25,.05,.38,.08"/>
        <path class="cls-2" d="M334.84,508.43c.66,.03,1.31,.07,1.97,.11,1.89,.12,3.77,.28,5.65,.48,.08,0,.15,.01,.23,.02"/>
        <path class="cls-2" d="M473.5,365.9v8.15c0,3.01-2.44,5.45-5.45,5.45h-49.1c-3.01,0-5.45-2.44-5.45-5.45v-9.1c0-2.86,2.2-5.2,5-5.43,.15-.01,.3-.02,.45-.02h49.1c3.01,0,5.45,2.44,5.45,5.45v.95Z"/>
        <path class="cls-2" d="M342.46,509l1.32-6.36c.61-2.95,3.5-4.84,6.45-4.23l58.37,12.13c2.95,.61,4.84,3.5,4.23,6.45l-1.11,5.35-1.46,6.99c-.61,2.94-3.5,4.84-6.44,4.22l-42.73-8.87-15.39-3.2-.26-.05c-2.94-.61-4.84-3.5-4.22-6.45l1.24-5.96v-.02"/>
        <path class="cls-2" d="M312.57,211.73c-6.77,.38-13.56,.36-20.32-.06,3.06-6.27,4.21-13.37,3.27-20.23,5.77,.06,11.48-.64,17.17-1.58"/>
        <path class="cls-2" d="M140.25,468.78c7.99,.69,15.99,1.38,23.98,2.07,.46,.04,.93,.08,1.34,.27,1.24,.59,1.2,2.12,1.07,3.34-.63,5.94,.52,12.02,3.3,17.47-6.52,1.08-14.81,1.28-21.44,1.57"/>
        <path class="cls-2" d="M418.5,359.5v.02c0,4.22-.33,9.36-.34,13.58,0,.4,.01,.84,.25,1.17,.34,.46,.99,.53,1.56,.56,1.92,.1,3.84,.2,5.77,.3,1.06,.06,2.23,.08,3.08-.56,.87-.65,1.16-1.8,1.35-2.86,.7-3.86,.81-7.83,.33-11.72"/>
        <path class="cls-2" d="M345.65,521.64s.04-.11,.05-.16c1.75-5.22,2.97-10.63,3.6-16.1,.13-1.1,.37-2.4,1.39-2.84,.52-.22,1.11-.15,1.68-.06,3.39,.53,6.73,1.38,9.96,2.53,.9,.32,1.86,.72,2.29,1.57,.31,.6,.28,1.32,.23,2.01-.39,5.51-1.67,10.97-3.76,16.09-.03,.08-.07,.17-.1,.25"/>
        <path class="cls-2" d="M441.32,532.16c1.51-.02,3.03-.01,4.54,.02,6.03,.11,12.07,.56,18.07,1.26,3.71,.44,7.63,1.06,10.5,3.46,2.17,1.81,3.47,4.42,4.69,6.97,3.94,8.31,7.53,16.82,12.14,24.77,.4,.69,.8,1.38,1.22,2.06"/>
        <path class="cls-2" d="M441.21,532.1l.03-.03c.63-.55,1.26-1.1,1.88-1.65,18.79-16.92,33.41-38.44,42.88-61.88,.32-.78,.63-1.56,.93-2.35,1.22,.32,2.44,.65,3.66,.98,3.47,.93,6.95,1.91,10.38,3,10.37,3.28,20.34,7.57,28.35,14.78,7.61,6.85,12.93,15.93,16.65,25.47,2.82,7.22,4.77,14.74,6.5,22.31h.01c.36,1.59,.72,3.17,1.07,4.76,.18,.83,.37,1.67,.55,2.5"/>
        <path class="cls-2" d="M445.5,532.5c.12-.11,.24-.21,.36-.32,18.71-16.62,35.63-41.39,44.64-64.68"/>
        <path class="cls-2" d="M492.32,570.82l.18-.03c.89-.14,1.79-.29,2.67-.46,16.24-3.04,31.49-10.32,45.65-18.9,4.06-2.46,8.15-5.13,11.31-8.63,.77-.85,1.48-1.75,2.12-2.71,.06-.07,.11-.15,.16-.23"/>
        <path class="cls-2" d="M491.5,568.5c21.97-4.43,44.65-16.81,62-31"/>
        <path class="cls-2" d="M496.81,360.2c.23,.01,.47,.01,.7,.02,1,.03,2,.07,3,.1,2.63,.08,5.26,.17,7.89,.26,12.96,.41,25.91,.84,38.88,1.26,8.4,.27,17.05,.6,24.73,4.02,10.53,4.69,17.74,14.47,24.45,23.83,.12,.17,.25,.35,.37,.52,1.54,2.14,3.08,4.28,4.61,6.42,.68,.95,1.35,1.89,2.03,2.84"/>
        <path class="cls-2" d="M497.5,360.5c.27,1.33,.53,2.67,.75,4.02,4.1,23.98,1.49,50.96-1.34,75.13-.11,.91-.21,1.82-.32,2.72,1.65-.06,3.3-.11,4.95-.17,11.2-.37,22.41-.75,33.62-1.12,3.26-.11,6.6-.2,9.71,.8,2.81,.91,5.25,2.67,7.65,4.41,2.47,1.78,4.93,3.56,7.39,5.35,1.24,.9,2.49,1.8,3.73,2.71l.09,.06"/>
        <path class="cls-2" d="M500.5,360.5c4.99,25.6,4.89,55.88,1.04,81.7-.01,.1-.03,.2-.04,.3"/>
        <path class="cls-2" d="M563.5,454.5s.09-.1,.14-.15c.15-.17,.31-.35,.47-.52,14.17-15.54,28.02-33.96,38.31-52.38,.37-.65,.73-1.3,1.08-1.95"/>
        <path class="cls-2" d="M559.86,451.69l.05-.05c16.1-15.75,32-34.6,41.53-55.01,.02-.04,.04-.09,.06-.13"/>
        <path class="cls-2" d="M500.94,470.26c-2.95,9.78-7.93,18.95-14.53,26.75-1.14,1.35-2.38,2.78-2.52,4.54-.22,2.66,2.12,4.75,4.25,6.37,13.61,10.4,27.81,21.29,35.16,36.77,10.19-2.52,20.01-6.55,29.02-11.92"/>
        <path class="cls-2" d="M508.39,360.42c0,.05,.01,.11,.01,.16,1,13.49,1.22,27.03,.65,40.55,12.95-1.31,26.07-1.87,38.93,.14s25.51,6.74,35.51,15.07c5.41-7.92,9.71-16.59,12.73-25.69"/>
        <path class="cls-2" d="M399.67,436c6.69,2.53,13.37,5.05,20.06,7.58,21.75,8.22,43.51,16.44,65.26,24.66"/>
        <path class="cls-2" d="M418.5,443.5c.41,.03,.82,.05,1.23,.08,24.47,1.56,52.8,.21,76.83-3.97"/>
        <path class="cls-2" d="M550.24,701.12s-.02,.05-.02,.08c-1.02,2.92-.18,6.42,2.09,8.54"/>
        <path class="cls-2" d="M552.15,542.82c5.33,20.39,10.65,40.78,15.97,61.17,5.17,19.77,10.41,39.74,19.95,57.82,.01,.02,.02,.03,.03,.05,1.12-.19,2.24-.39,3.36-.6,7.3-1.37,14.51-3.22,21.84-4.43,4.72-.77,9.92-1.45,14.15,.58,.45,.21,.89,.46,1.32,.74,1.6,1.06,2.91,2.68,3.51,4.48,.41,1.2,.51,2.47,.17,3.7-.56,2.08-2.18,3.68-3.83,5.05-.09,.08-.19,.15-.28,.22-2.42,1.98-5.01,3.65-7.73,5.13-1.23,.68-2.5,1.31-3.78,1.91-1.59,.74-3.2,1.43-4.84,2.09-1.51,.61-3.04,1.19-4.58,1.74-5.47,2-11.06,3.79-16.43,5.93-6.74,2.7-13.23,6-20.01,8.6-6.64,2.54-13.65,4.42-20.75,4.2-.14,0-.28,0-.42-.01h-.06"/>
        <path class="cls-2" d="M552.02,710.07c.12-.03,.24-.07,.36-.1,14.05-4.02,27.5-9.84,40.92-15.64,6.27-2.71,12.52-5.42,18.78-8.13,1.26-.55,2.53-1.09,3.79-1.64,.15-.06,.29-.13,.44-.2,1.75-.75,3.51-1.53,5.21-2.39,1.4-.72,2.76-1.51,4.03-2.39,1.37-.95,2.64-2.02,3.76-3.26,3.31-3.67,5-9.27,2.97-13.69-.14-.31-.3-.62-.48-.92"/>
        <path class="cls-2" d="M588.52,661.33c-.14,.16-.29,.32-.45,.48-5.39,5.84-12.74,9.49-19.98,12.8-4.29,1.96-8.7,3.86-13.24,5.07-2.52,.68-5.09,1.15-7.71,1.29-.3,.02-.6,.03-.9,.04-1.04,6.61,.15,13.57,3.62,19.3"/>
        <path class="cls-2" d="M602.5,401.5c13.7,16.01,29.12,34.56,42.83,50.56,13.29,15.53,26.74,31.2,43.22,43.28,.01,.01,.03,.02,.04,.03,.63-.45,1.26-.9,1.89-1.36,6.29-4.6,12.22-9.68,18.58-14.17,3.47-2.45,7.29-4.99,11.37-5.56,1.02-.15,2.06-.17,3.12-.03,1.9,.25,3.78,1.14,5.11,2.49,.89,.89,1.54,2,1.78,3.26,.4,2.11-.35,4.26-1.24,6.21-.1,.21-.19,.42-.3,.63-.51,1.09-1.07,2.15-1.67,3.18-.6,1.07-1.25,2.11-1.93,3.13-.7,1.03-1.42,2.04-2.18,3.03-1.1,1.46-2.27,2.87-3.48,4.25-1.15,1.32-2.35,2.62-3.57,3.9-4.36,4.6-9.02,8.99-13.27,13.66-4.89,5.37-9.28,11.18-14.24,16.48-4.88,5.2-10.4,9.97-16.9,12.88-.12,.06-.24,.12-.36,.17"/>
        <path class="cls-2" d="M677.23,554.51c.09-.08,.17-.16,.26-.23,10.88-9.77,20.46-20.89,29.98-31.98,5-5.82,10-11.63,14.99-17.44,.35-.4,.69-.81,1.04-1.21,.69-.81,1.4-1.63,2.08-2.46,1.16-1.4,2.28-2.83,3.27-4.33,.66-.99,1.26-2.02,1.78-3.08,.55-1.1,1-2.24,1.35-3.42,1.38-4.76,.44-10.53-3.32-13.62-.26-.22-.54-.42-.83-.61"/>
        <path class="cls-2" d="M688.74,494.71c-.06,.21-.12,.42-.19,.63-2.3,7.61-7.31,14.11-12.38,20.25-2.35,2.85-4.78,5.7-7.43,8.27-2.67,2.62-5.57,4.95-8.84,6.72-.19,.12-.38,.22-.57,.32,1.95,6.4,6.06,12.14,11.69,15.78"/>
        <path class="cls-2" d="M564.55,454.23c32.43,24.58,64.21,50.01,95.3,76.26"/>
        <path class="cls-2" d="M495.16,570.31s.01,.01,.01,.02c18.28,36.34,35.61,73.17,51.96,110.42"/>
        <path class="cls-2" d="M671.2,547.81c.58,3.07,3.13,5.68,6.18,6.35"/>
        <path class="cls-2" d="M690.48,494.01c4.05,1.93,6.93,6.12,7.29,10.59,9.79-5.05,18.18-12.77,24.03-22.1,.88-1.4,1.73-2.94,1.68-4.59-.05-1.66-1.36-3.38-3.01-3.27"/>
        <path class="cls-2" d="M591.28,661.02l.18,.24c2.63,3.51,3.28,8.41,1.66,12.48,11.01-.18,21.96-3.37,31.34-9.14,1.41-.86,2.85-1.86,3.54-3.37,.57-1.24,.4-2.92-.55-3.82-.2-.19-.43-.34-.69-.45"/>
        <path class="cls-2" d="M214.27,567.71c4.12,5.53,11.06,8.18,16,12.99,7.44,7.25,9.68,18.69,17.35,25.7,1.25,1.14,2.68,2.16,4.31,2.59,1.64,.42,3.54,.14,4.76-1.03,1.21-1.18,1.47-3.34,.31-4.58,2.08,1.15,4.79,1.05,6.78-.25,1.99-1.29,3.18-3.72,2.98-6.08,2.12,.72,4.64,.14,6.23-1.46,1.58-1.59,2.15-4.11,1.42-6.23,2.47,.15,4.69-2.03,5.09-4.48,.4-2.44-.71-4.95-2.41-6.76-.57-.61-1.2-1.15-1.87-1.63-1.32-.98-2.79-1.76-4.27-2.48"/>
        <path class="cls-2" d="M244.84,546.28c.86,5.19,3.91,9.97,8.25,12.95,2.71,1.85,5.83,3,8.89,4.18,3.07,1.19,6.16,2.46,8.72,4.52s4.56,5.04,4.7,8.32"/>
        <path class="cls-2" d="M136.59,249.87c-.1,0-.21,0-.31,.01-7.5,.25-14.62,4.73-18.53,11.15-3.95,6.51-4.67,14.77-2.43,22.05,2.19,7.09,7.06,13.23,13.17,17.44l.48,.33"/>
        <path class="cls-2" d="M136.29,250.07c-8.36,4.23-13.51,13.39-14.6,22.7s2.94,19.19,6.81,27.73"/>
        <path class="cls-2" d="M129.11,388.34c.54-2.44,2.95-4.12,5.42-4.52s4.98,.23,7.36,.98c13.3,4.19,25.27,12.24,34.61,22.58,9.32,10.33,16.04,22.9,20.01,36.23,0,.03,.01,.05,.02,.08"/>
        <path class="cls-2" d="M129.34,388.59s-.02,.02-.03,.02c-.2,.16-.41,.3-.64,.42-1.65,.84-3.87,.48-5.26-.8-1.59-1.46-2.15-3.83-1.73-5.95,.54-2.67,2.46-4.82,4.87-6.15,1.1-.61,2.3-1.05,3.51-1.29,3.88-.77,7.9,.09,11.69,1.23,14.43,4.33,27.62,12.68,37.69,23.88,10.07,11.19,17,25.19,19.78,39.99,.04,.19,.07,.38,.09,.58,.11,.7,.1,1.43-.3,2-.51,.73-1.91,.75-2.1-.11"/>
        <path class="cls-2" d="M240.43,266.08c-.64-2.47,.76-5.18,2.92-6.55,2.12-1.33,4.8-1.52,7.25-1.01,.05,0,.11,.02,.16,.03,2.5,.55,4.8,1.76,7.03,3.02,9.09,5.13,17.57,11.27,26.02,17.41,6.18,4.47,12.37,8.96,18.04,14.06,1,.9,2,1.84,2.88,2.86,.72,.83,1.36,1.71,1.88,2.68,1.14,2.16,1.56,4.84,.54,7.06"/>
        <path class="cls-2" d="M240.21,267.11c4.62-.92,9.49-.55,13.93,1.04,3.72,1.34,7.09,3.49,10.42,5.64,5.77,3.71,11.55,7.42,17.32,11.13,8.02,5.15,16.1,10.36,22.9,17.03l.1,.1"/>
        <path class="cls-2" d="M716.01,504.32s.04,0,.06,.01c2.04,.19,4.08,.29,6.13,.31"/>
        <path class="cls-2" d="M719.85,500.62c1.82,.12,3.65,.24,5.47,.36"/>
        <path class="cls-2" d="M723.12,496.18c1.91,.23,3.82,.45,5.73,.68,.03,0,.06,.01,.09,.01"/>
        <path class="cls-2" d="M725.18,493.14s.08,0,.12,.01c1.79,.07,3.58,.27,5.33,.63l.3,.06"/>
        <path class="cls-2" d="M727.18,490.02h.05c1.5,.09,3.01,.19,4.52,.28"/>
        <path class="cls-2" d="M728.62,486.88c.09-.01,.19-.02,.28-.04,1.11-.14,2.22-.29,3.33-.44"/>
        <path class="cls-2" d="M612.11,681.02c1.27,.9,2.9,2.4,4.2,3.34,.06,.05,.13,.1,.19,.14"/>
        <path class="cls-2" d="M616.97,678.93c1.46,.9,2.92,1.8,4.37,2.7"/>
        <path class="cls-2" d="M620.68,676.86c1.47,.75,3.35,1.89,4.82,2.64"/>
        <path class="cls-2" d="M625.07,674.27c1.13,.63,2.3,1.6,3.43,2.23"/>
        <path class="cls-2" d="M628.32,671.59s.01,.01,.02,.01c.94,.51,1.89,1.02,2.83,1.53"/>
        <path class="cls-2" d="M607.49,682.69c1.31,.89,3.18,2.49,4.59,3.51,.15,.11,.29,.21,.42,.3"/>
        <path class="cls-2" d="M549.81,700.61c.06-.05,.12-.09,.18-.14,3.03-2.32,5.23-5.7,6.12-9.41,.91-3.78,.45-7.88-1.26-11.37"/>
        <path class="cls-2" d="M671.31,546.59c2.43-3.4,3.56-7.72,3.08-11.88-.48-4.14-2.53-8.09-5.65-10.85-.01-.01-.03-.02-.04-.03"/>
        <path class="cls-2" d="M399.77,512.52c2.43,.95,4.95,1.68,7.51,2.17,.61,.11,1.3,.27,1.61,.81,.25,.43,.16,.96,.07,1.44-.37,1.8-.82,3.59-1.37,5.35"/>
        <path class="cls-2" d="M459.32,375.7c2.45,.57,5.02,.64,7.5,.2,.84-.16,1.7-.38,2.35-.93,1.18-.98,1.36-2.69,1.45-4.22"/>
        <circle class="cls-2" cx="252" cy="435" r="1.5"/>
        <ellipse class="cls-2" cx="237.5" cy="454" rx="2" ry="1.5"/>
        <circle class="cls-2" cx="271" cy="450" r="1.5"/>
        <circle class="cls-2" cx="255.5" cy="468.5" r="1"/>
        <circle class="cls-2" cx="305" cy="490" r="1.5"/>
        <circle class="cls-2" cx="319" cy="473" r="1.5"/>
        <ellipse class="cls-2" cx="334" cy="479.5" rx="1.5" ry="1"/>
        <ellipse class="cls-2" cx="328" cy="495.5" rx="1.5" ry="1"/>
        <circle class="cls-2" cx="320" cy="349" r="1.5"/>
        <circle class="cls-2" cx="339" cy="363" r="1.5"/>
        <ellipse class="cls-2" cx="348.5" cy="348" rx="1" ry="1.5"/>
        <ellipse class="cls-2" cx="330.5" cy="335" rx="1" ry="1.5"/>
        <circle class="cls-2" cx="378" cy="382" r="1.5"/>
        <circle class="cls-2" cx="382" cy="371" r="1.5"/>
        <ellipse class="cls-2" cx="396.5" cy="384" rx="2" ry="1.5"/>
        <circle class="cls-2" cx="398.5" cy="373.5" r="1"/>
      </g>
    </g>
  </g>
  <g id="Layer_14" data-name="Layer 14">
    <g>
      <g>
        <path class="cls-3" d="M266.53,239.68c1.18,1.99,1.19,4.55,.32,6.69-.92,2.3-2.81,4.18-5.11,5.1-2.29,.92-4.96,.86-7.21-.16l-.68-.29,6.16-14.37,.63,.27c2.27-.49,4.71,.77,5.89,2.76Z"/>
        <path class="cls-3" d="M154.92,427.53c1.09,.98,2.28,2.6,2.05,4.61-.13,1.17-.75,2.06-1.43,2.45-.68,.4-1.42,.39-2.15,.34-5.02-.32-10.12-2-15.04-.46l-2.25-11.8,.37-.07c6.3-.85,12.89-.01,18.45,4.93Z"/>
        <path class="cls-3" d="M155,416.45c-1.11,1.38-2.81,.6-4.19-.1-5.18-2.63-10.85-3.22-16.24-1.72l-2.68-14.11c8.49,.56,17.77,6.47,23.11,15.93Z"/>
      </g>
      <g>
        <path class="cls-2" d="M508.07,586.42c1.06,1.25,2.99,1.24,4.61,.97,4.27-.7,8.38-2.4,11.89-4.94"/>
        <path class="cls-2" d="M546.08,619.41c7.06-.74,13.81-4.17,18.57-9.44"/>
        <path class="cls-2" d="M545.8,668.93c4.04,.17,8.11-.54,11.86-2.06"/>
        <path class="cls-2" d="M608.38,440.95c6.1-4.01,10.51-10.52,11.97-17.68"/>
        <path class="cls-2" d="M647.28,494.07c-2.45,5.34-6.58,9.88-11.67,12.82"/>
        <path class="cls-2" d="M361.12,509.3c-.51,4.98-1.79,9.88-3.8,14.47"/>
        <path class="cls-2" d="M426.99,371.6c.91-.94,1.04-2.38,1.06-3.69,.04-2.65-.14-5.3-.56-7.92"/>
        <path class="cls-2" d="M252.25,443.13c1.63-.13,3.23,.68,4.42,1.8s2.05,2.55,2.89,3.96"/>
        <path class="cls-2" d="M327.6,344.66c-.31,1.3-.12,2.72,.52,3.9s1.72,2.12,2.99,2.57"/>
        <path class="cls-2" d="M384.44,379.09c1.16,1,2.66,1.61,4.2,1.71,1.53,.1,3.09-.31,4.38-1.16"/>
        <path class="cls-2" d="M322.47,479.95c1.34,.48,2.51,1.42,3.27,2.63,.76,1.2,1.1,2.67,.95,4.08"/>
        <path class="cls-2" d="M593.56,673.69c4.41-3.91,8.81-7.82,13.21-11.73,1.93-1.71,3.86-3.43,5.79-5.14"/>
        <path class="cls-2" d="M597.77,660.09c3.02,.51,6.02,1.14,9,1.87,4.73,1.18,9.4,2.63,13.96,4.35"/>
        <path class="cls-2" d="M698.02,504.22c2.62-4.4,5-8.96,7.1-13.63,1.7-3.74,3.23-7.55,4.59-11.42"/>
        <path class="cls-2" d="M693.95,491.84c3.72-.48,7.44-.9,11.17-1.25,3.66-.35,7.32-.63,10.99-.85"/>
        <path class="cls-2" d="M252.39,255.48c4.44,2.47,10.27,2.19,14.45-.7,4.18-2.88,6.51-8.23,5.78-13.26s-4.5-9.49-9.33-11.06"/>
        <path class="cls-2" d="M131.5,400.5c.13,.01,.26,.01,.39,.02,8.49,.56,17.77,6.47,23.11,15.93-1.11,1.38-2.81,.6-4.19-.1-5.18-2.63-10.85-3.22-16.24-1.72-.16,.04-.31,.08-.46,.13"/>
        <path class="cls-2" d="M136.47,422.6c6.3-.85,12.89-.01,18.45,4.93,1.09,.98,2.28,2.6,2.05,4.61-.13,1.17-.75,2.06-1.43,2.45-.68,.4-1.42,.39-2.15,.34-5.02-.32-10.12-2-15.04-.46-.24,.06-.47,.14-.7,.23"/>
        <path class="cls-2" d="M254.53,251.31c2.25,1.02,4.92,1.08,7.21,.16,2.3-.92,4.19-2.8,5.11-5.1,.87-2.14,.86-4.7-.32-6.69s-3.62-3.25-5.89-2.76"/>
        <path class="cls-2" d="M248.94,85.91c5.96,.84,11.18,5.6,12.57,11.46"/>
        <polyline class="cls-2" points="251.5 256.5 252.01 255.32 253.85 251.02 260.01 236.65 262.76 230.23 263.5 228.5"/>
        <polyline class="cls-2" points="131.5 398.5 131.89 400.52 134.57 414.63 136.1 422.67 138.35 434.47 139.5 440.5"/>
      </g>
    </g>
  </g>
</svg>