<?xml version="1.0" encoding="UTF-8"?>
<svg id="Layer_1" data-name="Layer 1" xmlns="http://www.w3.org/2000/svg" viewBox="0 0 1920 504.2">
  <defs>
    <style>
      .cls-1 {
        fill: #fff;
      }

      .cls-2 {
        fill: #999280;
      }

      .cls-3 {
        fill: #726a56;
      }

      .cls-4 {
        fill: #2d2921;
      }

      .cls-5 {
        stroke-width: 2px;
      }

      .cls-5, .cls-6 {
        fill: #514831;
        stroke: #726a56;
      }

      .cls-5, .cls-6, .cls-7 {
        stroke-miterlimit: 10;
      }

      .cls-7 {
        fill: none;
        stroke: #000;
        stroke-width: .5px;
      }
    </style>
  </defs>
  <g id="Layer_3" data-name="Layer 3">
    <path class="cls-3" d="M1920,259.5c-77.7,9-196.2,2.4-341.6,6.8-131.6,4-164.3-1.4-430.2-4.5-239.5-2.8-232.2,1.4-419-2.3-216.4-4.2-238-10.1-335.6-6.8-170.8,5.9-307.6,1.3-393.6,20.3v231.2H1920v-244.7Z"/>
  </g>
  <g id="Layer_1-2" data-name="Layer 1">
    <g>
      <path class="cls-1" d="M730.9,170.3l.1-.4-.1,.4,8.8-63.8h0l-3.2-21.5h0l-9.8-3.2-4.7-1.5c-.6-.8-1.4-1.6-2.2-2.5-2.5-2.6-6.1-5.4-11.1-7.8l.1-.3-8.2-4.6v-.1h-.1v.2c-.1,0-.1-.1-.1-.1v-.1c-.3-.7-.4-1.5-.5-2.2h0c.1,.8,.3,1.5,.6,2.2h.1l-.7-3.6h.3l-26.2-2.9-.1-.1c.3,.4,.5,1,.6,1.5,.5,2.1,.6,4.4,0,6.5v.1h.1l-9.7,3.5v.1c-4.3-1.1-9.4-2.2-12-2,2.6-.1,7.7,1.1,11.9,2.1-4.2-1-9.3-2.2-12-2-2.2,.3-8.8,1.4-14.3,5.7,5.5-4.2,12.2-5.4,14.4-5.8-2.6,.2-11.7,1.9-17.4,8.5h0c-.2,.2-.3,.4-.5,.6-.3,.4-.6,.8-.8,1.1-.1,.2-.2,.3-.4,.5-5,7.5-2.2,24.3-1.8,50.4,.4,29.6,4.6,25.3,10.3,30.4,3.7,3.6,9.1,5.1,14.7,5.1v-.1h.1v.1c-.1,.1-.1,.2-.1,.3l5.1,30.4h0l-5.1-30.4c-.2,.8-.3,1.6-.4,2.4,.1-.8,.3-1.6,.4-2.4v-.2c-1,4.2-.9,8.7-.5,13.9,.4,5.5,0,8.3,3.7,13.9,.6,.8,.8,1.7,1.4,2.4q.1,0,.1-.1v.2h0c.1,1.7,.1,3.3,.1,4.9l4.4,133.4h.4c.7,1.2,2.6,2.2,4.2,2.6h.1c.5,.1,1,.2,1.4,.2l-.2-.1-5.8-3.2h0l5.8,3.2h.2v.2h.2l-.3,.1h.1l24,.8,19.9-1.4,9.2-6.5v-.1l-1.7-6.4-.1-.4h-.1l-50.9,13.9,50.8-13.9-15.9-22.3,.2,.1,15.8,22.2h.1l.1,.4,2.6-2v-4.4l-.7-7.4-17.5-8.6-.2-.1c-.5-6.8-.8-15.5-.2-25.5,.4-7.3,2.4-8.9,4.1-20.8,1.3-9.1,2.5-18,3.5-26.3l3.3-32.7c.1-.3,.1-.6,.1-.9q-.1-.1-.2-.1l.3-.6,11.6-23.1h.1l-11.6,23.1-.3,.6c.1,0,.1,.1,.2,.1h.1c.9,.4,2,.6,2.8,.7,1.2,.2,3.9,2.1,6.5,.9,3.3-1.5,5.4-6.4,6-8.3,2.2-6.5,0-15.5-3.3-17.1,0,.1-.1,.1,0,0h0l-9.3-90.1-13.6-10.5c.1,0,.2,.1,.3,.1l13.4,10.4m-65.3,88.4c-.1,.8-.1,1.6-.1,2.4,0-.8,0-1.6,.1-2.4Zm5.3,26.5c.1,.1,.3,.2,.4,.3-.2-.1-.3-.2-.4-.3Z"/>
      <path class="cls-1" d="M724.9,52.5c1.7-2,2.5-12.7,0-23.4,2.5,10.7,1.6,21.3,0,23.4Z"/>
      <path class="cls-1" d="M721.8,19.9c1.4,2.9,2.4,6.1,3.1,9.2-.7-3.1-1.7-6.3-3.1-9.2Z"/>
      <path class="cls-1" d="M724.9,52.5s-.1,.1-.2,.2c.1,0,.1-.1,.2-.2Z"/>
      <path class="cls-1" d="M724.6,52.8c-1.3,1-5,1.8-7.9,2.8,3-1,6.7-1.8,7.9-2.8Z"/>
      <path class="cls-1" d="M720.7,17.7c.4,.7,.7,1.4,1.1,2.2-.3-.8-.7-1.5-1.1-2.2Z"/>
      <path class="cls-1" d="M718.9,194.1l-.2,.9c.1-.3,.1-.6,.1-.9l-.1,.9h0l-3.3,32.7c-1,8.3-2.2,17.2-3.5,26.3,1.2-7.5,2.2-14.8,3-21.8,1.9-14.9,3.2-28.3,4-38.1Z"/>
      <path class="cls-1" d="M714.6,56.3c.6-.2,1.1-.3,1.5-.5-.5,.2-1,.3-1.5,.5Z"/>
      <path class="cls-1" d="M712,254c-1.6,11.2-3.5,13.3-4,19.5,.5-6.2,2.4-8.3,4-19.5-1.8,11.9-3.8,13.5-4.1,20.8-.6,9.7-.3,18.2,.1,25v.1l-.1,.4,.1,.1v-.1h0v-1.1l6.8-67c-.7,7-1.7,14.3-2.8,21.8Z"/>
      <path class="cls-1" d="M714.6,56.3c-3.7,1.1-9.4,2-14.4,5.1,5-3,10.7-4,14.4-5.1Z"/>
      <path class="cls-1" d="M664.9,70l9.6-3.5c-.6,0-1.2,.1-1.9,.2-2.7,.5-5.6,1.8-7.7,3.3Z"/>
      <path class="cls-1" d="M661.8,200.1l-.1-3.1c.1,9.3-1.3,16,.8,34.8-1.3-12.6-1.1-19.7-.9-25.8-.2,6.1-.4,13.2,1,25.8,.3,2.9,.1,43.2,0,47.1,0,2.5-.1,4.7-.2,6.6,0,.5,0,1-.1,1.5,0-.5,0-1,.1-1.5,.1-2,.1-4.2,.2-6.6,.1-3.9,.3-44.2-.1-47.1,.3,2.9,.1,43.3,0,47.1-.3,15.1-1.2,19.2,0,36.5,.7,10.7,3,17.6,3.6,18h.1l-4.4-133.3c0-.1,0,0,0,0Zm.4,109.2c-.1-1.2-.1-2.3-.1-3.4,0,1,.1,2.2,.1,3.4Zm0,.1c.1,1.8,.2,3.8,.4,6,.1,1.2,.2,2.3,.3,3.4-.1-1.1-.2-2.2-.3-3.4-.2-2.2-.3-4.1-.4-6Z"/>
      <path class="cls-1" d="M664.6,10.5l-2.2-4.2,4.5-2.3h0l-4.4,2.3,2.1,4.2c.3,.1,.5,.1,.7,.1,.4,0,.9-.1,1.3-.2-.4,.2-.9,.3-1.4,.3-.2,0-.4-.1-.6-.1l2.7,5.5c-2,2.1-3.5,4.4-4.5,6.8-3.7,8.8-1.8,19.1,2.7,26.4,2.2,3.4,5,6.4,8.2,8.8v.1h0l.7,8.2c.6-2.1,.5-4.4,0-6.5-.1-.5-.3-1.1-.6-1.6l-.1-.1c.1,0,.1,.1,.2,.1l.1,.1,26.2,2.9c5-3.1,10.6-4,14.4-5.1,.6-.2,1.1-.3,1.5-.5,.2-.1,.4-.1,.6-.2,2.9-1,6.6-1.7,7.9-2.8,.1,0,.1-.1,.2-.2,2.1-2.6,2.9-19.6-3.1-32.6-.3-.8-.7-1.5-1.1-2.2-.3-.8-.7-1.5-1.2-2.1,.4,.5,.7,1,.9,1.5-.3-.5-.6-1-.9-1.5-1.7-2.8-3.9-5.2-6.5-7-10.7-7.6-29.8-4.6-41.5,4.1h0l-2.3-4.4s0-.1,.1-.1l-.1-.1c.3-.6,.5-1.2,.5-1.9,0-2.4-2-4.4-4.4-4.4s-4.4,2-4.4,4.4c0,2.2,1.7,4,3.8,4.3Zm2.9,5.6h0l1.2,2.5h0l-1.2-2.5h0Z"/>
    </g>
  </g>
  <g id="Layer_3-2" data-name="Layer 3">
    <path class="cls-5" d="M145.85,329.32c0,10.3-26.8,22.7-70.6,17.2-44.1-5.6-55.1-13.3-55.1-23.6s34.2-23.6,78.7-23.6,47,19.7,47,30Z"/>
    <path class="cls-2" d="M15.15,324.82c2.7-6.2,9.1-10.9,15.8-11.5-2.5,1.5-6,3.6-8.2,5.3-2.3,1.6-5.4,4.3-7.6,6.2h0Z"/>
    <path class="cls-4" d="M21.45,321.62c.4-2.8,2.5-5.4,4.9-6.8,6.8-4.3,14.7-7.3,22.4-9.4,20.5-6.7,42.8-8.3,64.1-4.7,5.3,.9,10.6,2,15.8,4,3.7,1.4,7.9,3.2,10.3,6.5,.8,1.1,1.4,2.3,2.2,3.4-1-.9-1.8-2-2.7-2.9-2.8-2.8-6.8-3.7-10.5-4.5-15.4-2.9-31.4-3.1-46.9-2-10.5,.8-20.6,2.7-31,5.1-7.9,1.7-15.1,3.8-22.3,7.3-2.4,.7-4.7,1.8-6.3,4h0Z"/>
    <g>
      <path class="cls-4" d="M140.55,310.72c-1.2-.5,3.6,3,5.7,11.6,.4,1.8,1.2,4.9,.9,7.9-.1,1-1.6,4.2-2.4,5.2-4.4,5.3-18.8,9.5-20.4,10-3,.9,36.4,4.8,49.2-5.8,2.1-1.7,1.9-3-2.4-7.7-2.3-2.5-6.7-6.1-11-8.4-8.1-4.2-17.9-12-19.6-12.8Z"/>
      <path class="cls-4" d="M140.55,310.72c-.5-.3,.3,.6,.4,.7,3.7,4.5,5.7,10.2,6.3,15.9,.1,1.5,.2,3.2-.5,4.6-.6,1.4-1.2,2.9-2.3,4-4.5,4.3-10.6,6.4-16.3,8.6-.8,.3-2.8,.9-3.6,1.2-.1,0-.2,.1-.2,.1l.1-.1v-.1c1.5,.5,3.2,.5,4.9,.7,12.2,.7,24.7,.6,36.5-3,2.9-.9,5.7-2.2,8-4.2,.5-.5,.9-1,.8-1.7-.5-2.1-2.4-3.8-3.8-5.5-4.1-4.6-9.6-7.6-14.9-10.7-5.3-3.2-10.3-7.2-15.4-10.5h0Zm0,0c5.1,3.2,10.1,7.2,15.4,10.3,6.8,3.7,13.7,7.6,18.2,14.1,1,1.4,1.7,3.3,.1,4.6-2.4,2.2-5.3,3.5-8.2,4.5-11.9,3.7-24.6,3.7-36.8,2.7-1.6-.2-3.3-.3-4.9-.8-.1-.1-.3-.1-.3-.3,0-.3,.3-.3,.5-.4,.8-.2,2.7-.8,3.6-1.1,5.7-2.1,11.8-4.1,16.3-8.3,1.9-2.4,3.3-5.4,2.8-8.5-.1-1.5-.4-3.1-.8-4.5-.9-4.1-2.7-8.1-5.4-11.4l-.4-.5c-.1-.1-.1-.2-.2-.2,0,0-.1-.1,0-.1q0-.1,.1-.1h0Z"/>
    </g>
  </g>
  <g id="Layer_4" data-name="Layer 4">
    <path class="cls-5" d="M412.52,260.82c0,4.4-15.53,9.69-40.9,7.34-25.55-2.39-24.97-7.32-24.97-11.71s12.86-8.43,38.64-8.43,27.23,8.41,27.23,12.8Z"/>
    <path class="cls-2" d="M345.15,256.72c.42-1.98,2.22-3.91,4.44-4.72-.73,.66-1.22,2.08-1.83,2.77-.65,.67-2.01,1.22-2.6,1.96h0Z"/>
    <path class="cls-4" d="M347.68,257.72c-.52-1.21,.24-5.02,1.54-5.62,3.45-2.13,6.14-2.5,10.29-3.4,11.07-2.35,24-2.92,35.48-1.39,2.86,.38,5.86,.79,8.66,1.65,1.99,.6,3.76,1.52,5.05,2.93,.6,.49,.9,3.07,1.33,3.54-.54-.38-3.49-2.64-3.98-3.02-1.82-.63-2.17-.73-4.17-1.07-8.3-1.24-15.74-1.88-24.1-1.41-5.66,.34-11.18,.55-16.79,1.58-4.18,.31-2.53,.23-6.45,.88-1.15,.76-3.51,1.44-4.38,2.38l-2.5,2.96Z"/>
    <path class="cls-4" d="M409.45,252.89c-.7-.21,2.09,1.28,3.3,4.95,.23,.77,.7,2.09,.52,3.37-.06,.43-.93,1.79-1.39,2.22-2.55,2.26-10.89,4.05-11.82,4.27-1.74,.38,24.47,.36,32.34-2.2,1.44-.18-3.17-.99-5.71-2.45-1.33-1.07-4.05-1.69-6.54-2.67-4.69-1.79-9.71-7.14-10.7-7.48Z"/>
  </g>
  <g id="Layer_4-2" data-name="Layer 4">
    <path class="cls-5" d="M414.64,470.53c0,14.81-65.05,30.44-127.74,12.79-64.3-8.05-63.88-18.7-67.77-32.99-4.16-15.28,68.77-22.21,133.53-26.32,66.97-4.24,61.98,31.71,61.98,46.52Z"/>
    <path class="cls-2" d="M202.35,460.87c5.1-11.74,20.56-24.27,38.2-30.78-6.15,4.38-11.27,12.95-16.56,17.39-5.59,4.37-16.42,8.64-21.64,13.39h0Z"/>
    <path class="cls-4" d="M220.41,450.21c-1.57-4.66,2.65-10.85,6.59-13.15,10.49-8.21,18.66-9.66,31.28-13.12,33.67-9.07,72.96-11.28,107.88-5.35,8.69,1.48,17.81,3.07,26.33,6.36,6.07,2.31,11.43,5.87,15.37,11.31,1.81,1.88,2.75,11.85,4.06,13.66-1.64-1.48-10.61-10.18-12.09-11.66-5.55-2.45-6.61-2.83-12.68-4.14-25.25-4.78-47.86-7.25-73.27-5.44-17.21,1.32-34.01,2.13-51.05,6.08-12.71,1.2-8.65,.25-19.61,3.41-4.73,1.71-10.23,4.77-13.3,6.8l-9.51,5.25Z"/>
    <path class="cls-4" d="M412.57,441.42c-4.49-9.8,1.29,7.06,3.09,17.93,.54,2.08,.18,10.45-.22,13.93-.14,1.16-6.54,5.68-7.62,6.83-5.96,6.14-46.13,12.42-48.99,11.04-4.06,1.04,60.78,10.01,81.15,2.22,2.84-1.97,4.34-6.13,2.44-15.62-1.34-4.47-4.92-8.05-8.85-13.32-9.64-7.03-19.38-21.55-21.01-23.01Z"/>
  </g>
  <g id="Layer_4-3" data-name="Layer 4">
    <path class="cls-5" d="M1684.44,444.43c0,18.7-49.13,38.44-96.49,16.15-48.57-10.17-48.26-23.61-51.19-41.66-3.14-19.3,51.95-28.05,100.86-33.24,50.59-5.36,46.82,40.04,46.82,58.75Z"/>
    <path class="cls-2" d="M1530.02,432.93c2.38-9.52,6.51-23.09,14.89-28.33-2.91,3.54-5.31,10.49-7.81,14.07-2.64,3.53-4.62,10.42-7.08,14.26h0Z"/>
    <path class="cls-4" d="M1538.91,425.58c-1.19-5.89-2.34-15.11,.63-18.02,6.07-10.78,17.26-17.6,26.79-21.97,25.44-11.45,55.12-14.25,81.49-6.76,6.56,1.87,13.45,3.87,19.89,8.03,4.58,2.91,8.64,7.42,11.61,14.28,1.37,2.38,2.07,14.97,3.07,17.26-1.24-1.87-8.02-12.85-9.13-14.73-4.19-3.09-4.99-3.57-9.58-5.23-19.07-6.03-36.15-9.16-55.35-6.87-13,1.66-25.69,2.69-38.57,7.68-9.6,1.51-6.53,.32-14.81,4.3-3.58,2.16-9.34,4.73-11.66,7.29l-4.39,14.73Z"/>
    <path class="cls-4" d="M1684.69,408.58c-3.39-12.37,.98,8.91,2.33,22.65,.41,2.63,.14,13.2-.17,17.59-.1,1.46-4.94,7.17-5.75,8.63-4.5,7.75-34.85,15.68-37,13.94-3.07,1.32,39.1,8.93,54.48-.9,2.15-2.49,10.09-4.04,8.66-16.02-1.01-5.65-3.72-10.17-6.68-16.82-7.28-8.87-14.64-27.21-15.87-29.06Z"/>
  </g>
  <g id="Layer_4-4" data-name="Layer 4">
    <path class="cls-6" d="M1800.06,267.49c.06,4.33-40.21,11.53-79.25,6.92-40-1.79-39.79-4.9-42.26-9.04-2.65-4.43,42.15-9.83,82.36-7.61,39.68,2.18,39.09,5.41,39.16,9.73Z"/>
    <path class="cls-2" d="M1669.42,269.83c2.53-4,6.41-5.01,16.98-8.9-3.57,1.97,.2-.09-2.84,1.8-3.22,1.91-4.06,.99-7.04,2.96l-7.1,4.14Z"/>
    <path class="cls-4" d="M1680.08,267.33c-1.01-1.19-2.89-3.83-.42-4.46,6.57-2.22,14.39-3.7,22.32-4.71,21.16-2.65,45.85-2.85,67.84-1.62,5.47,.31,11.03,1.31,16.41,2.08,3.83,.54,9.69,2.33,12.19,3.7,.36,2.34,1.12,4.53,1.1,3.7,.43,.54-2.69-2.84-3.62-3.21-3.5-.58-9.05-2.48-12.88-2.76-15.9-1.01-30.25-2.34-46.23-1.64-10.83,.49-21.03,.44-31.74,1.62-7.99,.42-5.6,1.04-12.49,1.96-2.97,.48-10.1,2.1-12.03,2.65l-.44,2.71Z"/>
    <path class="cls-4" d="M1800.62,264.42c-2.87-2.87-1.37-.31,.21,2.16,.35,.61-.77,2.21-1.74,2.66-.08,.34-2.05,1.14-2.73,1.5-3.72,1.87-29.44,5.49-31.24,5.11-2.55,.35,38.36,2.87,51.15,.38,1.83-.17,2.11-.29,6.43,.33-.86-1.31-9.21-4.18-11.7-5.71-6.09-2-9.35-6-10.37-6.42Z"/>
  </g>
  <g id="Layer_4-5" data-name="Layer 4">
    <path class="cls-5" d="M1001.55,407.69c0,10.04-56.76,20.65-111.46,8.67-56.11-5.46-55.74-12.68-59.14-22.37-3.63-10.36,60.01-15.07,116.51-17.85,58.44-2.88,54.08,21.5,54.08,31.55Z"/>
    <path class="cls-2" d="M816.32,401.14c4.45-7.96,17.94-16.46,33.33-20.87-5.37,2.97-9.84,8.79-14.45,11.79-4.87,2.96-14.33,5.86-18.88,9.08h0Z"/>
    <path class="cls-4" d="M832.07,393.91c-1.37-3.16,2.31-7.36,5.75-8.92,9.16-5.57,16.28-6.55,27.29-8.9,29.38-6.15,63.67-7.65,94.13-3.63,7.58,1.01,15.54,2.08,22.98,4.31,5.29,1.56,9.98,3.98,13.41,7.67,1.58,1.28,2.4,8.04,3.54,9.27-1.43-1.01-9.26-6.9-10.55-7.91-4.84-1.66-5.77-1.92-11.06-2.81-22.03-3.24-41.76-4.92-63.93-3.69-15.02,.89-29.67,1.44-44.55,4.13-11.09,.81-7.54,.17-17.11,2.31-4.13,1.16-8.93,3.23-11.61,4.61l-8.3,3.56Z"/>
    <path class="cls-4" d="M999.75,387.95c-3.92-6.64,1.13,4.79,2.7,12.16,.47,1.41,.16,7.09-.19,9.45-.12,.79-5.7,3.85-6.65,4.63-5.2,4.16-40.25,8.42-42.74,7.49-3.54,.71,45.83,3.79,63.61-1.49,2.48-1.33,9.23-.76,7.58-7.2-1.17-3.03-5.47-4-8.9-7.58-8.41-4.76-13.98-16.47-15.39-17.47Z"/>
  </g>
  <g id="Layer_4-6" data-name="Layer 4">
    <path class="cls-5" d="M1246.87,279.22c0,5.59-29.65,11.5-58.23,4.83-29.31-3.04-29.12-7.06-30.89-12.46-1.9-5.77,31.31-10.54,60.87-9.94,28.91,.59,28.25,11.97,28.25,17.57Z"/>
    <path class="cls-2" d="M1153.94,274.3c2.32-4.19,7.85-6.83,15.89-9.15-2.8,1.56-3.62,2.78-6.03,4.37-2.55,1.56-7.49,3.09-9.86,4.78Z"/>
    <path class="cls-4" d="M1159.23,272.93c-.72-1.67,.31-4.43,2.11-5.25,4.78-2.93,8.5-3.45,14.26-4.69,15.35-3.24,33.26-4.03,49.18-1.91,3.96,.53,8.12,1.1,12,2.27,2.76,.82,4.65,2.23,6.44,4.17,.83,.67,2.02,4.91,2.02,5.68-.77-.36-4.44-4.56-5.11-5.09-2.53-.87-3.01-1.01-5.78-1.48-11.51-1.71-21.82-2.59-33.4-1.94-7.85,.47-15.5,.76-23.27,2.17-5.79,.43-3.94,.09-8.94,1.22-2.16,.61-4.66,1.7-6.06,2.43l-3.44,2.43Z"/>
    <path class="cls-4" d="M1245.93,269.24c-3.33-2.69,.59,2.52,1.41,6.41,.25,.74,.08,3.73-.1,4.98-.06,.41-2.98,2.03-3.47,2.44-2.72,2.19-21.03,4.44-22.33,3.94-1.85,.37,22.29,.31,31.64-1.29,1.6-.05,4.89-2.77,7.37-5.88,.63-1.61-3.77-4.44-5.56-6.33-4.39-2.51-8.22-3.75-8.96-4.27Z"/>
  </g>
  <g id="Layer_3-3" data-name="Layer 3">
    <polygon class="cls-4" points="61.88 360.8 58.46 365.63 71.2 375.94 77.81 369.03 61.88 360.8"/>
    <polygon class="cls-4" points="313.8 270.72 313.8 275.6 322.11 281.44 331.13 282.22 313.8 270.72"/>
    <polygon class="cls-4" points="331.97 290.33 330.87 296.17 333.28 298.31 338.36 293.69 331.97 290.33"/>
    <polygon class="cls-4" points="744.35 290.53 744.32 294.86 753.86 296.53 752.06 293.53 744.35 290.53"/>
    <polygon class="cls-4" points="777.23 301.74 775.93 305.24 784.84 310.53 788.37 310.9 777.23 301.74"/>
    <polygon class="cls-4" points="1312.05 309.39 1312.62 316.25 1318.97 320.25 1322.33 319.21 1312.05 309.39"/>
    <polygon class="cls-4" points="1848.84 431.25 1841.87 445.92 1866.41 458.88 1886.91 458.88 1848.84 431.25"/>
  </g>
  <g id="Layer_2" data-name="Layer 2">
    <path class="cls-2" d="M729.06,295.18c-.23-1.23,8.59-1.98,8.99-2.16,0,0,2.49-.33,4.77-2.55,.42-.41,1.14,.04,1.71,.08,1.04,.09-.11-.16,0,0,.42,.6,2,4.26-.22,4.3-3.77,.08-14.99,1.72-15.26,.32Z"/>
    <path class="cls-2" d="M754.87,305.72c.08-1.21,3.28-1.89,6.96-2.63,6.93-1.41,15.77-2.15,16-.94,.05,.26,.21,3.14-1.67,3.11-7.95-.12-12.1,4.05-15.27,3.66-2.97-.36-6.11-1.97-6.02-3.2Z"/>
    <path class="cls-2" d="M302.96,271.34c-.26,.13-.37,.21-1.31,.73-4.66,2.56-16.43,5.28-16.44,5.72-.04,1.42,23.22,.71,29.43-2.57,1.78-.94,.22-1.61-.04-3.12-.58-3.35-7.65-2.85-11.65-.75Z"/>
    <path class="cls-2" d="M1849.9,432.36c-2.77-5.47-25.09,.87-47.65,7.28-15.23,4.33-48.82,10.57-48.43,14.39,.4,3.87,35.06,3.13,40.49,3.48,13.33,.86,31.65-5.81,46.34-11.04,7.06-2.51,9.25-14.11,9.25-14.11Z"/>
    <path class="cls-2" d="M1299.41,308.97c-2.37,.67-18.03,7.69-19,10.88-.66,2.15,14.11-.15,16.27,.35,5.81,1.34,10.19-4.47,15.31-3.91,2.38,.26,1.12-2.57,.89-5.51s-8.24-3.28-13.47-1.8Z"/>
    <path class="cls-2" d="M322.82,288.9c-3.56,.97-19.45-.65-18.93,.65,.76,1.9,25.42,7,27.18,6.61,3.2-.72,1.97-3.5,2.04-4.37,.11-1.46-5.36-4.22-10.28-2.88Z"/>
    <path class="cls-2" d="M38.05,357.08c-8.98,.8-30.73,10.73-27.57,11.41,5.13,1.1,39.78-4.68,47.84-2.86,1.19,.27,3.56-4.82,3.56-4.82-8.77-3.5-15.71-4.45-23.83-3.72Z"/>
  </g>
  <g id="Layer_4-7" data-name="Layer 4">
    <g>
      <path d="M722.23,25.77c2.26,7.71,2.71,14.57,2.61,19.63v.12c-2.5,1.27-8.2,3.95-14.23,4.91-7.61,1.23-10.68-1.09-11.52-1.84l-12.91-4.83-2.19-9.41,9.23-9.4c.44-1.1,2.19-4.75,9.45-7.6,5.77-2.28,11.36-2.81,14.06-2.98,1.61,3.12,4.19,6.93,5.5,11.4Z"/>
      <g>
        <path class="cls-7" d="M716.7,14.32s.02,.03,.03,.05c1.61,3.12,4.19,6.93,5.5,11.4,2.26,7.71,2.71,14.57,2.61,19.63"/>
        <path class="cls-7" d="M693.22,24.95c.44-1.1,2.19-4.75,9.45-7.6,5.77-2.28,11.36-2.81,14.06-2.98,.07,0,.14,0,.21,0"/>
        <polyline class="cls-7" points="693.22 24.95 683.99 34.35 686.18 43.76 699.09 48.59"/>
        <path class="cls-7" d="M699.09,48.59c.84,.75,3.91,3.07,11.52,1.84,6.03-.96,11.73-3.64,14.24-4.91,.08-.04,.16-.08,.23-.12"/>
      </g>
    </g>
    <polygon class="cls-1" points="700.84 67.24 674.5 67.24 673.69 56.3 699.09 56.49 700.84 67.24"/>
    <polygon class="cls-1" points="706.79 70.49 717.11 80.68 721.89 80.68 719.57 78.04 715.73 74.69 712.46 72.46 710.21 70.76 706.79 70.49"/>
    <polygon class="cls-1" points="707.55 69.58 708.26 71.24 709.96 71.36 709.49 70.49 708.75 69.73 707.55 69.58"/>
    <polygon class="cls-1" points="720.55 79.87 722.89 80.88 730.68 158.21 722.55 161.91 720.55 79.87"/>
    <polygon class="cls-1" points="729.2 168.46 731.59 171.97 732.01 184.93 719.88 193.42 716.65 194.4 729.2 168.46"/>
  </g>
</svg>