<?xml version="1.0" encoding="UTF-8"?>
<svg id="Layer_1" data-name="Layer 1" xmlns="http://www.w3.org/2000/svg" viewBox="0 0 1000.7 1000.7">
  <defs>
    <style>
      .cls-1, .cls-2, .cls-3 {
        opacity: .2;
      }

      .cls-1, .cls-2, .cls-4 {
        stroke: #a7cbe8;
        stroke-linecap: round;
        stroke-linejoin: round;
      }

      .cls-1, .cls-3 {
        fill: #a7cbe8;
      }

      .cls-2, .cls-4 {
        fill: none;
      }

      .cls-4 {
        opacity: .8;
        stroke-width: 4px;
      }
    </style>
  </defs>
  <polyline class="cls-3" points="778.22 141.27 223.73 141.58 193.8 168 191.85 169.82 153.83 206.49 98.27 206.49 73 239.32 73 284.42 73 284.78 73 728.42 191.85 841.71 307.67 841.71 336.31 866.28 667.31 866.27 695.94 841.71 810.22 841.71 929.07 728.42 929.07 285.28 929.07 285.28 929.07 239.82 903.8 206.99 848.77 206.99 810.22 169.82 807.8 168 778.34 142.08 807.8 169"/>
  <polyline class="cls-4" points="791.15 123.26 211.77 123.58 180.8 151 178.47 153.09 138.73 191.4 80.68 191.4 54.28 225.71 54.28 272.84 54.28 273.21 54.28 736.76 178.47 855.13 299.48 855.13 329.41 880.81 675.26 880.79 705.17 855.13 824.57 855.13 948.76 736.76 948.76 273.73 948.76 273.73 948.76 226.23 922.36 191.93 864.85 191.93 824.57 153.09 821.8 151 791.27 124.11"/>
  <polyline class="cls-2" points="803.27 104.53 197.96 104.87 165.3 133.5 163.16 135.7 121.65 175.73 61 175.73 33.41 211.57 33.41 260.81 33.41 261.2 33.41 745.5 163.16 869.18 289.59 869.18 320.86 896 682.19 895.98 713.44 869.18 838.19 869.18 967.94 745.5 967.94 261.74 967.94 261.74 967.94 212.12 940.35 176.28 880.28 176.28 838.19 135.7 835.3 133.5 803.4 105.42"/>
  <polygon class="cls-1" points="14.8 628.09 14.8 341.35 33.44 290.32 33.44 680.33 14.8 628.09"/>
  <polygon class="cls-1" points="986.8 628.22 986.8 341.48 968.17 290.45 968.17 680.47 986.8 628.22"/>
  <polygon class="cls-1" points="423.36 911.18 582.03 911.18 610.27 896.6 394.44 896.61 423.36 911.18"/>
  <polygon class="cls-1" points="331.28 89.85 674.89 89.85 736.04 104.43 268.67 104.43 331.28 89.85"/>
</svg>