<?xml version="1.0" encoding="UTF-8"?>
<svg id="Layer_2" data-name="Layer 2" xmlns="http://www.w3.org/2000/svg" viewBox="0 0 1042 649" preserveAspectRatio="none">
  <defs>
    <style>
      .cls-1 {
        stroke: #a7cbe8;
      }

      .cls-1, .cls-2 {
        fill: #a7cbe8;
      }

      .cls-1, .cls-3 {
        stroke-miterlimit: 10;
      }

      .cls-2 {
        opacity: .2;
      }

      .cls-3 {
        fill: none;
        stroke: #fff;
      }
    </style>
  </defs>
  <g id="background_reg" data-name="background reg">
    <path class="cls-2" d="M863.32,67H184.33L53.82,154.5V493.5l130.51,86.5H863.32l130.51-86.5V154.5l-130.51-87.5Zm-678.99,.08h0m0,0,0,512.82h0m678.99,.05h0s-678.99-.04-678.99-.04h0m678.99,.04M184.33,67.07v-.03l678.99-.02h0"/>
  </g>
  <g id="outlines">
    <polygon class="cls-1" points="183.89 40.5 470.92 39.5 500.41 21.5 183.89 21.5 53.82 105.5 20 105.5 20 243.5 33.87 264.5 34.74 125.5 49.48 125.5 183.89 40.5"/>
    <polygon class="cls-1" points="193.43 604.5 339.72 604.5 366.86 622.5 421.5 622.5 446.82 603.5 481.07 603.5 465.72 612.5 450.11 612.5 424.1 631.5 364.07 631.5 339.85 614.5 180.43 614.5 193.43 604.5"/>
    <polygon class="cls-1" points="861.11 40.06 574.08 39.06 544.59 21.06 861.11 21.06 991.18 105.06 1025 105.06 1025 243.06 1011.13 264.06 1010.26 125.06 995.52 125.06 861.11 40.06"/>
    <polyline class="cls-3" points="1010.3 286 1009.43 503.5 885.43 588.5"/>
    <polygon class="cls-1" points="851.57 604.06 705.28 604.06 678.14 622.06 623.5 622.06 598.18 603.06 563.93 603.06 579.28 612.06 594.89 612.06 620.9 631.06 680.93 631.06 705.15 614.06 864.57 614.06 851.57 604.06"/>
    <path class="cls-3" d="M492.59,603.06s58.25,.56,58.25,0"/>
    <polyline class="cls-3" points="34.74 286 35.61 503.5 159.61 588.5"/>
  </g>
</svg>