<?xml version="1.0" encoding="UTF-8"?>
<svg id="Layer_5" data-name="Layer 5" xmlns="http://www.w3.org/2000/svg" viewBox="0 0 440 425">
  <defs>
    <style>
      .cls-1 {
        fill: #f59ac6;
      }

      .cls-2 {
        fill: #e6e6e6;
      }

      .cls-3 {
        fill: #fff;
      }

      .cls-4 {
        fill: #ae7cfa;
      }

      .cls-5 {
        fill: #a7cbe8;
      }

      .cls-6 {
        fill: #726a56;
      }

      .cls-7 {
        fill: #584f39;
      }

      .cls-8 {
        fill: #81f57c;
      }

      .cls-9 {
        fill: none;
        stroke: #000;
        stroke-linecap: round;
        stroke-linejoin: round;
        stroke-width: .5px;
      }
    </style>
  </defs>
  <g>
    <path class="cls-6" d="M136.67,200.67c3.03,12.64,9.26,24.17,17.87,33.8l-.04,.03c-.17-.02-1.78-.23-3,1s-1.02,2.83-1,3c0,0-1,0-2,1-1.51,1.51-1.22,3.87-1,5-.49,.28-1.39,.88-2,2-1.25,2.3-.14,4.71,0,5-1.41-.63-3.08-.21-4,1-.89,1.17-.89,2.81,0,4,.13,.15,.29,.33,.47,.52-1.29,1.14-2.67,2.09-4.11,2.89l-.05-.09c.89-3.17,1.78-6.45,2.69-9.82,7.59-27.98-14.33-52.5-32-52.5s-47,24.01-47,53c0,8.29,2.4,16.09,6.23,23l.08,.12c-.46,.29-.89,.59-1.31,.88,.39,.34,.76,.68,1.13,1.03-4.21,2.39-8.17,5.38-11.68,9.11l-.16,.17-3.32-3.32v-72.08h.46c3.96-18.39,10.82-35.71,20.08-51.44l.46,.27c5.73,2.26,12.37,3.7,17.33,3.7,10.77,0,19.5-.48,19.5-13,0-6.7-7.19-17.46-16.92-18.84,31.94-35.76,78.41-58.27,130.14-58.27,78.13,0,144.26,51.34,166.5,122.12v30.55h-.52c-1.84-.15-4.25,.39-5.81,1.71-3.12,2.67-6.29,10.26-4.7,12.12,1.37,1.6,7.06-.58,10.51-2.83h.52v13.48c-3.55-2.17-7.4-4.05-11.52-5.48-23.48-8.16-58.92-5.87-62,3-1.39,4-2.84,10.45-1.87,17.08-4.85-.93-9.57-2.47-13.54-5.51,.57-.62,1.05-1.15,1.41-1.57,.06-.11,1.1-2.07,0-4-.79-1.38-2.37-2.17-4-2,.12-.26,1.94-3.1,1-5-.6-1.22-1.61-1.8-2-2l-.32-.09c.2-.73-.03-1.61-.68-2.91-.56-1.11-2-2-3-2,.02-.25,.14-1.8-1-3-.86-.91-2.48-1.75-3.55-1.29,8.5-9.59,14.65-21.04,17.65-33.58,2.92,1.34,6.12,1.53,8.54-.02,4.32-2.76,4.6-9.99,5.11-23.33,.49-12.86,.74-19.29-3.07-23.32-3.93-4.17-10.79-4.78-15.18-1.95l-.78,.25c-.19-.38-.39-.75-.59-1.13h0v-34.43l.97-.18c3.74-2.18,6.23-6.11,6.23-10.6,0-6.85-5.82-12.4-13-12.4s-13,5.55-13,12.4c0,4.49,2.5,8.42,6.24,10.6l.96,.19v17.96c-17.63-19.48-44.22-31.42-67.4-32.26-6.45-.24-13.12,.37-19.77,1.78-3.27-5.55-9.26-10.69-16.36-10.69-10.77,0-30,10.82-30,18,0,3.5,4.44,6.9,10.23,9.48-1.79,1.38-3.54,2.86-5.23,4.4-.32-.85-.68-1.64-1.06-2.29-2.05-3.56-5.44-5.46-7.57-4.23-2.13,1.22-4.06,5.96-2.01,9.53,.77,1.32,2.21,2.79,3.82,4.03-4.96,5.76-9.19,12.31-12.41,19.62-4.4-2.82-11.24-2.21-15.18,1.96-3.8,4.02-3.56,10.46-3.06,23.32,.51,13.33,.79,20.57,5.1,23.33,2.43,1.55,5.63,1.36,8.54,.02Z"/>
    <path class="cls-6" d="M110.3,148.94c0,12.52-8.73,13-19.5,13-4.96,0-11.6-1.44-17.33-3.7l-.46-.27c5.87-9.97,12.69-19.3,20.37-27.87,9.73,1.38,16.92,12.14,16.92,18.84Z"/>
    <path class="cls-5" d="M306.9,364.6l7.6-7.6,33.91-33.91,9.1-9.09,31.3-31.3,1.21-1.21V141.67l-98.87-98.87H151.33L52.47,141.67v139.82l3.32,3.32,30.91,30.91,9.1,9.1,36.7,36.7,18.83,18.83h139.82l15.75-15.75Zm114.12-235.98v166.31l-117.6,117.59H137.12L19.52,294.93V128.62L137.12,11.02h166.3l117.6,117.6Z"/>
    <path class="cls-3" d="M141.27,152.04c3.22-7.31,7.45-13.86,12.41-19.62,2.14-2.5,4.42-4.84,6.82-7.04,1.69-1.54,3.44-3.02,5.23-4.4,10.83-8.43,23.44-14.08,36.13-16.79,6.65-1.41,13.32-2.02,19.77-1.78,23.18,.84,49.77,12.78,67.4,32.26,4.53,5.01,8.46,10.51,11.6,16.45h0c.2,.39,.4,.76,.59,1.14l.78-.25c4.39-2.83,11.25-2.22,15.18,1.95,3.81,4.03,3.56,10.46,3.07,23.32-.51,13.34-.79,20.57-5.11,23.33-2.42,1.55-5.62,1.36-8.54,.02-3,12.54-9.15,23.99-17.65,33.58-15.95,18.04-40.19,29.55-67.32,29.55s-51.13-11.4-67.09-29.29c-8.61-9.63-14.84-21.16-17.87-33.8-2.91,1.34-6.11,1.53-8.54-.02-4.31-2.76-4.59-10-5.1-23.33-.5-12.86-.74-19.3,3.06-23.32,3.94-4.17,10.78-4.78,15.18-1.96Zm145.23,69.46c14.39-23.76,12.32-48.35,11-54-2.57-3.41-31.9-37-77-36-42.68,.94-69.04,32.08-72,36-1.23,5.88-3.65,30.4,11,54,20.85,33.58,60.88,34.02,64,34,3.75-.02,42.98-.94,63-34Z"/>
    <path class="cls-3" d="M307.83,105.92c0,4.49-2.49,8.42-6.23,10.6l-.97,.18v.02c-1.69,1.15-3.67,1.82-5.8,1.82-1.71,0-3.34-.43-4.79-1.22-.35-.18-.69-.39-1.01-.61l-.96-.19c-3.74-2.18-6.24-6.11-6.24-10.6,0-6.85,5.82-12.4,13-12.4s13,5.55,13,12.4Z"/>
    <path class="cls-3" d="M362.77,269.5c-3.86,5.69-8.13,13.46-11.06,23.25-3.36,11.26-3.9,21.71-3.3,30.34l-33.91,33.91v-20.16c0-9.03-7.31-16.34-16.34-16.34H148.84c-9.03,0-16.34,7.31-16.34,16.34v24.68l-36.7-36.7c.6-8.64,.06-19.07-3.3-30.32-3.14-10.5-7.83-18.67-11.89-24.45,2.37-.7,4.76-1.3,7.15-1.79,11.5-2.35,23.22-2.56,34.82-4.05,5.21-.67,10.57-1.69,15.28-4.3,1.44-.8,2.82-1.75,4.11-2.89,6.09,6.53,38.07,35.45,85.05,32.36,43.43-2.86,66.94-23.73,74.07-31.31,3.97,3.04,8.69,4.58,13.54,5.51,2.07,.4,4.16,.68,6.24,.92,11.86,1.34,23.85,1.53,35.62,3.65,2.1,.37,4.2,.82,6.28,1.35Z"/>
    <path class="cls-7" d="M390.02,248.98v32.51l-1.21,1.21c-3.81-3.51-8.11-6.28-12.69-8.48,.51-.5,1.04-.98,1.59-1.47-1.4-.99-3.07-2.03-5-3-2.95-1.49-5.71-2.41-8-3-.63,.85-1.28,1.77-1.94,2.75-2.08-.53-4.18-.98-6.28-1.35-11.77-2.12-23.76-2.31-35.62-3.65-2.08-.24-4.17-.52-6.24-.92-.97-6.63,.48-13.08,1.87-17.08,3.08-8.87,38.52-11.16,62-3,4.12,1.43,7.97,3.31,11.52,5.48Z"/>
    <path class="cls-7" d="M390.02,224.5v11h-.52c-3.45,2.25-9.14,4.43-10.51,2.83-1.59-1.86,1.58-9.45,4.7-12.12,1.56-1.32,3.97-1.86,5.81-1.71h.52Z"/>
    <path class="cls-3" d="M388.81,282.7l-31.3,31.3c1.03-10.37,4.17-21.35,11.2-31.25,1.99-2.79,4.42-5.69,7.41-8.53,4.58,2.2,8.88,4.97,12.69,8.48Z"/>
    <path class="cls-2" d="M376.12,274.22c-2.99,2.84-5.42,5.74-7.41,8.53-7.03,9.9-10.17,20.88-11.2,31.25l-9.1,9.09c-.6-8.63-.06-19.08,3.3-30.34,2.93-9.79,7.2-17.56,11.06-23.25,.66-.98,1.31-1.9,1.94-2.75,2.29,.59,5.05,1.51,8,3,1.93,.97,3.6,2.01,5,3-.55,.49-1.08,.97-1.59,1.47Z"/>
    <path class="cls-2" d="M314.5,336.84v20.16l-7.6,7.6c-.35-.06-.7-.1-1.07-.1h-73.66c-3.13,0-5.67,2.54-5.67,5.67v10.18h-40.75v-.04c2.28-1.83,3.75-4.65,3.75-7.81,0-5.52-4.48-10-10-10s-10,4.48-10,10c0,3.14,1.45,5.94,3.71,7.78v.07h-21.88l-18.83-18.83v-24.68c0-9.03,7.31-16.34,16.34-16.34h149.32c9.03,0,16.34,7.31,16.34,16.34Zm-9,6.66c0-4.97-16.79-9-37.5-9s-37.5,4.03-37.5,9,16.79,9,37.5,9,37.5-4.03,37.5-9Zm-88,.5c0-5.25-16.79-9.5-37.5-9.5s-37.5,4.25-37.5,9.5,16.79,9.5,37.5,9.5,37.5-4.25,37.5-9.5Z"/>
    <path class="cls-8" d="M306.9,364.6l-15.75,15.75h-64.65v-10.18c0-3.13,2.54-5.67,5.67-5.67h73.66c.37,0,.72,.04,1.07,.1Z"/>
    <path class="cls-2" d="M301.09,258.07c-7.13,7.58-30.64,28.45-74.07,31.31-46.98,3.09-78.96-25.83-85.05-32.36-.18-.19-.34-.37-.47-.52-.89-1.19-.89-2.83,0-4,.92-1.21,2.59-1.63,4-1,4.68,5.31,32.63,35.18,81,32,46.96-3.09,67.15-27.37,72-33,1.63-.17,3.21,.62,4,2,1.1,1.93,.06,3.89,0,4-.36,.42-.84,.95-1.41,1.57Z"/>
    <path class="cls-3" d="M300.63,142.41v8.71c-3.14-5.94-7.07-11.44-11.6-16.45v-17.96c.32,.22,.66,.43,1.01,.61,1.45,.79,3.08,1.22,4.79,1.22,2.13,0,4.11-.67,5.8-1.82v25.69Z"/>
    <path class="cls-2" d="M299.5,245.5c.94,1.9-.88,4.74-1,5-4.85,5.63-25.04,29.91-72,33-48.37,3.18-76.32-26.69-81-32-.14-.29-1.25-2.7,0-5,.61-1.12,1.51-1.72,2-2,4.68,5.31,25.45,34.3,75,33,47.04-1.24,69.15-27.37,74-33,.35-.35,.58-.7,.68-1.09l.32,.09c.39,.2,1.4,.78,2,2Z"/>
    <path d="M297.5,167.5c1.32,5.65,3.39,30.24-11,54-20.02,33.06-59.25,33.98-63,34-3.12,.02-43.15-.42-64-34-14.65-23.6-12.23-48.12-11-54,2.96-3.92,29.32-35.06,72-36,45.1-1,74.43,32.59,77,36Zm-82-17c-1.99-.62-19.2-5.7-34,5-12.58,9.1-18.25,25.86-14,42,1.16-5.72,3.75-14.35,10-23,13.03-18.04,32.38-22.82,38-24Z"/>
    <path class="cls-2" d="M296.5,240.5c.65,1.3,.88,2.18,.68,2.91-.1,.39-.33,.74-.68,1.09-4.85,5.63-26.96,31.76-74,33-49.55,1.3-70.32-27.69-75-33-.22-1.13-.51-3.49,1-5,1-1,2-1,2-1,6,4,19.69,33.3,72,32,49.66-1.24,65.88-26.37,71-32,1,0,2.44,.89,3,2Z"/>
    <ellipse class="cls-1" cx="268" cy="343.5" rx="37.5" ry="9"/>
    <path class="cls-2" d="M292.5,235.5c1.14,1.2,1.02,2.75,1,3-5.12,5.63-21.34,30.76-71,32-52.31,1.3-66-28-72-32-.02-.17-.22-1.77,1-3s2.83-1.02,3-1l.04-.03c15.96,17.89,40.09,29.29,67.09,29.29s51.37-11.51,67.32-29.55c1.07-.46,2.69,.38,3.55,1.29Z"/>
    <ellipse class="cls-4" cx="180" cy="344" rx="37.5" ry="9.5"/>
    <path class="cls-3" d="M181.5,155.5c14.8-10.7,32.01-5.62,34-5-5.62,1.18-24.97,5.96-38,24-6.25,8.65-8.84,17.28-10,23-4.25-16.14,1.42-32.9,14-42Z"/>
    <path class="cls-7" d="M185.5,93.5c7.1,0,13.09,5.14,16.36,10.69-12.69,2.71-25.3,8.36-36.13,16.79-5.79-2.58-10.23-5.98-10.23-9.48,0-7.18,19.23-18,30-18Z"/>
    <path class="cls-5" d="M189.5,372.5c0,3.16-1.47,5.98-3.75,7.81v.04h-12.54v-.07c-2.26-1.84-3.71-4.64-3.71-7.78,0-5.52,4.48-10,10-10s10,4.48,10,10Z"/>
    <path class="cls-7" d="M159.44,123.09c.38,.65,.74,1.44,1.06,2.29-2.4,2.2-4.68,4.54-6.82,7.04-1.61-1.24-3.05-2.71-3.82-4.03-2.05-3.57-.12-8.31,2.01-9.53,2.13-1.23,5.52,.67,7.57,4.23Z"/>
    <path class="cls-7" d="M108.5,197.5c17.67,0,39.59,24.52,32,52.5-.91,3.37-1.8,6.65-2.69,9.82l.05,.09c-4.71,2.61-10.07,3.63-15.28,4.3-11.6,1.49-23.32,1.7-34.82,4.05-2.39,.49-4.78,1.09-7.15,1.79-.38-.54-.75-1.05-1.11-1.55-2.29,.59-5.05,1.51-8,3-1.36,.68-2.59,1.4-3.69,2.12l-.08-.12c-3.83-6.91-6.23-14.71-6.23-23,0-28.99,29.33-53,47-53Z"/>
    <path class="cls-2" d="M80.61,270.05c4.06,5.78,8.75,13.95,11.89,24.45,3.36,11.25,3.9,21.68,3.3,30.32l-9.1-9.1c-1.03-10.36-4.17-21.33-11.2-31.22-2.09-2.93-4.66-5.99-7.87-8.97-.37-.35-.74-.69-1.13-1.03,.42-.29,.85-.59,1.31-.88,1.1-.72,2.33-1.44,3.69-2.12,2.95-1.49,5.71-2.41,8-3,.36,.5,.73,1.01,1.11,1.55Z"/>
    <path class="cls-3" d="M86.7,315.72l-30.91-30.91,.16-.17c3.51-3.73,7.47-6.72,11.68-9.11,3.21,2.98,5.78,6.04,7.87,8.97,7.03,9.89,10.17,20.86,11.2,31.22Z"/>
  </g>
  <g>
    <path class="cls-9" d="M89.67,125.01s.08,.01,.12,.01"/>
    <path class="cls-9" d="M150.5,238.5c6,4,19.69,33.3,72,32,49.66-1.24,65.88-26.37,71-32"/>
    <path class="cls-9" d="M306.6,200.63c-3,12.54-9.15,23.99-17.65,33.58-15.95,18.04-40.19,29.55-67.32,29.55s-51.13-11.4-67.09-29.29c-8.61-9.63-14.84-21.16-17.87-33.8"/>
    <path class="cls-9" d="M300.63,151.13c.2,.38,.4,.75,.59,1.13"/>
    <path class="cls-9" d="M141.2,152.2s.05-.11,.07-.16c3.22-7.31,7.45-13.86,12.41-19.62,2.14-2.5,4.42-4.84,6.82-7.04,1.69-1.54,3.44-3.02,5.23-4.4,10.83-8.43,23.44-14.08,36.13-16.79,6.65-1.41,13.32-2.02,19.77-1.78,23.18,.84,49.77,12.78,67.4,32.26,4.53,5.01,8.46,10.51,11.6,16.45"/>
    <path class="cls-9" d="M300.64,116.71s0,0,0,.01c-1.69,1.15-3.67,1.82-5.8,1.82-1.71,0-3.34-.43-4.79-1.22"/>
    <path class="cls-9" d="M288.07,116.52c-3.74-2.18-6.24-6.11-6.24-10.6,0-6.85,5.82-12.4,13-12.4s13,5.55,13,12.4c0,4.49-2.49,8.42-6.23,10.6"/>
    <path class="cls-9" d="M290.04,117.32c-.35-.18-.69-.39-1.01-.61"/>
    <polyline class="cls-9" points="289.03 134.92 289.03 134.67 289.03 116.71"/>
    <polyline class="cls-9" points="300.63 116.7 300.63 116.72 300.63 142.41 300.63 151.12 300.63 151.13"/>
    <path class="cls-9" d="M141.28,152.05s0,0,0-.01c-4.4-2.82-11.24-2.21-15.18,1.96-3.8,4.02-3.56,10.46-3.06,23.32,.51,13.33,.79,20.57,5.1,23.33,2.43,1.55,5.63,1.36,8.54,.02"/>
    <path class="cls-9" d="M302,152.01c4.39-2.83,11.25-2.22,15.18,1.95,3.81,4.03,3.56,10.46,3.07,23.32-.51,13.34-.79,20.57-5.11,23.33-2.42,1.55-5.62,1.36-8.54,.02"/>
    <path class="cls-9" d="M148.5,167.5c2.96-3.92,29.32-35.06,72-36,45.1-1,74.43,32.59,77,36"/>
    <path class="cls-9" d="M148.5,167.5c-1.23,5.88-3.65,30.4,11,54,20.85,33.58,60.88,34.02,64,34,3.75-.02,42.98-.94,63-34,14.39-23.76,12.32-48.35,11-54"/>
    <path class="cls-9" d="M167.5,197.5c-4.25-16.14,1.42-32.9,14-42,14.8-10.7,32.01-5.62,34-5"/>
    <path class="cls-9" d="M167.5,197.5c1.16-5.72,3.75-14.35,10-23,13.03-18.04,32.38-22.82,38-24"/>
    <path class="cls-9" d="M147.5,244.5c4.68,5.31,25.45,34.3,75,33,47.04-1.24,69.15-27.37,74-33"/>
    <path class="cls-9" d="M145.5,251.5c4.68,5.31,32.63,35.18,81,32,46.96-3.09,67.15-27.37,72-33"/>
    <path class="cls-9" d="M141.5,256.5c.13,.15,.29,.33,.47,.52,6.09,6.53,38.07,35.45,85.05,32.36,43.43-2.86,66.94-23.73,74.07-31.31,.57-.62,1.05-1.15,1.41-1.57"/>
    <path class="cls-9" d="M67.7,275.49s-.05,.03-.07,.04c-4.21,2.39-8.17,5.38-11.68,9.11"/>
    <path class="cls-9" d="M142,257s-.02,.02-.03,.02c-1.29,1.14-2.67,2.09-4.11,2.89-4.71,2.61-10.07,3.63-15.28,4.3-11.6,1.49-23.32,1.7-34.82,4.05-2.39,.49-4.78,1.09-7.15,1.79l-.09,.03"/>
    <path class="cls-9" d="M375.97,274.15c.05,.02,.1,.05,.15,.07,4.58,2.2,8.88,4.97,12.69,8.48,.08,.06,.15,.13,.23,.2"/>
    <path class="cls-9" d="M301,258s.06,.05,.09,.07c3.97,3.04,8.69,4.58,13.54,5.51,2.07,.4,4.16,.68,6.24,.92,11.86,1.34,23.85,1.53,35.62,3.65,2.1,.37,4.2,.82,6.28,1.35l.12,.03"/>
    <path class="cls-9" d="M132.5,361.66v-24.82c0-9.03,7.31-16.34,16.34-16.34h149.32c9.03,0,16.34,7.31,16.34,16.34v20.2"/>
    <ellipse class="cls-9" cx="180" cy="344" rx="37.5" ry="9.5"/>
    <ellipse class="cls-9" cx="268" cy="343.5" rx="37.5" ry="9"/>
    <path class="cls-9" d="M173.21,380.28c-2.26-1.84-3.71-4.64-3.71-7.78,0-5.52,4.48-10,10-10s10,4.48,10,10c0,3.16-1.47,5.98-3.75,7.81"/>
    <path class="cls-9" d="M226.5,380.43v-10.26c0-3.13,2.54-5.67,5.67-5.67h73.66c.37,0,.72,.04,1.07,.1,.02,0,.04,.01,.06,.01"/>
    <path class="cls-9" d="M150.5,238.5c-.02-.17-.22-1.77,1-3s2.83-1.02,3-1"/>
    <path class="cls-9" d="M293.5,238.5c.02-.25,.14-1.8-1-3-.86-.91-2.48-1.75-3.55-1.29-.17,.06-.32,.16-.45,.29"/>
    <path class="cls-9" d="M147.5,244.5c-.22-1.13-.51-3.49,1-5,1-1,2-1,2-1"/>
    <path class="cls-9" d="M296.5,244.5c.35-.35,.58-.7,.68-1.09,.2-.73-.03-1.61-.68-2.91-.56-1.11-2-2-3-2"/>
    <path class="cls-9" d="M145.5,251.5c-.14-.29-1.25-2.7,0-5,.61-1.12,1.51-1.72,2-2"/>
    <path class="cls-9" d="M298.5,250.5c.12-.26,1.94-3.1,1-5-.6-1.22-1.61-1.8-2-2"/>
    <path class="cls-9" d="M141.5,256.5c-.89-1.19-.89-2.83,0-4,.92-1.21,2.59-1.63,4-1"/>
    <path class="cls-9" d="M302.5,256.5c.06-.11,1.1-2.07,0-4-.79-1.38-2.37-2.17-4-2"/>
    <path class="cls-9" d="M66.5,274.5c.42-.29,.85-.59,1.31-.88,1.1-.72,2.33-1.44,3.69-2.12,2.95-1.49,5.71-2.41,8-3"/>
    <path class="cls-9" d="M66.5,274.5c.39,.34,.76,.68,1.13,1.03,3.21,2.98,5.78,6.04,7.87,8.97,7.03,9.89,10.17,20.86,11.2,31.22,0,.04,.01,.07,.01,.11"/>
    <path class="cls-9" d="M79.5,268.5c.36,.5,.73,1.01,1.11,1.55,4.06,5.78,8.75,13.95,11.89,24.45,3.36,11.25,3.9,21.68,3.3,30.32"/>
    <path class="cls-9" d="M377.71,272.75c-1.4-.99-3.07-2.03-5-3-2.95-1.49-5.71-2.41-8-3"/>
    <path class="cls-9" d="M377.71,272.75c-.55,.49-1.08,.97-1.59,1.47-2.99,2.84-5.42,5.74-7.41,8.53-7.03,9.9-10.17,20.88-11.2,31.25"/>
    <path class="cls-9" d="M364.71,266.75c-.63,.85-1.28,1.77-1.94,2.75-3.86,5.69-8.13,13.46-11.06,23.25-3.36,11.26-3.9,21.71-3.3,30.34"/>
  </g>
</svg>