<?xml version="1.0" encoding="UTF-8"?>
<svg xmlns="http://www.w3.org/2000/svg" viewBox="0 0 881 537">
  <defs>
    <style>
      .cls-1 {
        fill: #f2f2f2;
      }

      .cls-2 {
        fill: #9c9c9c;
      }

      .cls-3 {
        fill: #aeaeae;
      }

      .cls-4 {
        fill: #d6d6d6;
      }
    </style>
  </defs>
  <g id="Layer_7" data-name="Layer 7">
    <g>
      <path class="cls-4" d="M583.99,51.62c15.12,9.81,28.61,25.88,48.43,39.75l-.16,.23c.81,5.04,3.69,8.73,8.03,11.19,2.47,1.39,6.98,6.06,8.71,9.3,1.22,1.32,3.12,1.58,4.49,2.77,.8,.7,.81,1.41,1.1,2.31,.25,.81,.85,1.17,1.33,1.88,.97,1.43,1.78,2.75,3,4.07,.63,.68,1.02,1.46,1.57,2.19,.74,1,.89,1.84,1.45,2.93,.47,.93,.95,1.83,1.48,2.7,.56,.91,.87,1.35,.95,2.43,.13,1.94,.86,3.74,1.48,5.53,.49,1.42,1.74,2.93,2.08,4.29,.55,2.22-.61,2.77,1.16,4.57,1.18,1.2,2.12,2.45,3.18,3.62,1.15,1.27,2.46,2.29,3.57,3.62l.24-.2c12.19,13.45,15.88,37.3,20.25,57.7h.03c.19,1.08,.97,1.74,1.5,2.82,.66,1.3,.65,2.86,1.17,4.21,.94,2.46,3.06,4.47,4.36,6.83,.69,1.27,1.81,3.01,2.53,3.79,1.05,1.13,.69,3.37,1.24,5.03,.93,2.81,1.56,5.51,1.83,8.45,.78,8.42,2.21,17.56-.32,25.73-.79,2.55-2.86,4.27-3.49,6.94-.36,1.52-.33,2.92-.99,4.35-.49,1.06-1.78,2.28-2.12,3.46h0c-2.92,49.88-42.58,121.41-46.83,134.24l-.16,.34c-2.39,2.17-4.33,4.67-6.63,6.88-4.49,4.31-7.71,9.85-11.73,14.55-.94,1.11-1.64,2.13-2.41,3.34-.89,1.41-1.99,1.91-3.27,2.97-.97,.79-2.25,1.86-3.08,2.81-.93,1.07-1.07,2.51-2.04,3.48l.17,.17c-22.23,22.19-48.47,46.42-77.52,53.32v.05c-1.62,1.29-3.95,2.39-5.8,3.63-2.2,1.47-4.02,3.14-6.34,4.39-3.72,2.01-8.49,1.24-12.22,3.19-1.47,.76-2.55,1.85-4.14,2.4-1.63,.55-3.52,.97-5.25,1.23-4.26,.64-7.81,.44-12.08,.22-2.12-.1-3.98-.01-5.9,.73-1.16,.45-3.43,1.95-4.57,1.67l-.03,.11c-15.94,3.07-32.4,4.67-49.24,4.67h-.48c4.31-.76,10.19-1.87,17.27-3.59h0c.71-.31,1.66-.37,2.39-.67,.65-.27,1.3-.6,1.92-.95,1.27-.72,2.41-1.11,3.81-1.53,1.4-.43,2.65-1.23,4-1.88,2.09-1,4.39-1.63,6.63-2.2,1.28-.34,2.86-1.21,4.19-1.13,.82,.06,1.41,.31,2.25,.3,1.85-.02,3.67-.01,5.46-.3,.98-.15,1.9-.61,2.88-.8,1.16-.23,2.36-.19,3.53-.57,1.2-.39,2.13-1.1,3.2-1.73,.83-.49,1.84-.83,2.6-1.4,2.67-1.98,5.58-3.72,8.41-5.21l-.05-.11c24.07-11.46,50.66-28.72,74.77-54.79,13.94-15.08,24.82-30.63,33.34-45.84l-.23-.13c.61-1.47,.61-3.26,1.35-4.66,.58-1.09,2.01-1.58,2.68-2.55,.05-.06,.09-.13,.12-.2l.11,.05c16.14-31.29,22.67-60.5,26.09-80.26,.28-.55,.45-1.18,.66-1.69,.48-1.17,1.14-2.25,1.62-3.4,.83-1.96,.85-3.5,.74-5.61-.08-1.75,.19-3.33,.28-5.02,.18-3.25-1.02-6.6,.29-9.71,2.05-20.56,1.79-39.99-.02-58h-.04c-.12-.81-.63-1.6-1.01-2.27-.61-1.09-.85-1.81-.78-3.12,.06-1.13,.19-2.36,.4-3.46,.21-1.14,.09-1.94,.1-3.05,.04-2.16,.7-4.04,.01-6.21-.32-1.01-.56-1.76-.61-2.85-.04-.99-.13-2.01-.52-2.93-.67-1.54-2.11-3.82-1.98-5.53h.01c-2.47-12.3-5.56-23.69-8.89-34.04-.08-.23-.15-.46-.23-.68,0-.02-.01-.03-.01-.04-.18-.95-.23-2.41-.28-2.86-.2-2.04-1-3.72-1.79-5.55-.75-1.73-2.41-3.22-2.59-5.13h-.08c-3.22-8.54-6.52-16.18-9.62-22.79h0c5.47-10.91,6.77-23.01-2.93-32.68-5.4-5.38-13.48-8.17-21.59-10.2-19.35-28.26-40-48.28-54.94-61.03,.26,.12,.52,.23,.78,.34l.14-.34c1.5,.95,6.04,.47,8.13,1.14,2.59,.83,5.1,2.18,7.6,3.37,5.69,2.69,11.71,5.99,16.86,9.61,2.48,1.74,3.84,4.22,5.11,6.87l-.08,.12h0Z"/>
      <path class="cls-4" d="M501.56,36.27c-3.06-1.61-5.7-1.79-7.89-.94-2.16-.6-4.07-.43-5.71,.35-17.91-3.49-17.3,47.83,9.74,41.44,1.13,.03,2.31-.05,3.55-.27,2.31,.31,4.88,.11,7.74-.72,27.82-8.06,5.01-30.01-7.47-39.78l.04-.08ZM202.88,221.36c-2,2.08-13.1,21.91-2.07,25.17,1.27,.38,2.61,.31,3.96-.1,.19,.08,.4,.15,.61,.21,1.48,.44,3.05,.27,4.64-.33,.3,.14,.63,.26,.97,.36,9.24,2.74,22.12-18.14,18.16-21.08-5.38-3.16-10.62-5.84-15.06-4.44-1.74-.44-3.42-.56-4.99-.19-2.19-.5-4.27-.46-6.18,.44l-.04-.04Zm272.82,37.86c-7.05,3.26-24.85,8.28-27.69,18.24-3.26,11.41,2.77,13.9,10.66,13.13,1.52,.19,3.21,.16,4.99-.03,5.05,.78,12.15-1.07,18.04-3.06,24.37-8.21,37.01-32.88,14.99-30.51-1.4-.22-3.07-.24-5.02-.05-3.59-.45-8.78,.24-15.84,2.56l-.13-.28Zm-11.26-35.71c-6.02,1.15-9.92,19.99-3.32,19.36,5.38-1.37,7.35-10.14,8.33-15.94,.05-2.35-3.76-2.85-5.01-3.42Zm70.68-170.09c-2.02,8.21,6.88,23.85,15.33,13.17,7.81-9.9-7.99-20.75-14.95-13.09l-.38-.08Zm-21.72,409.68c-1.28,.06-2.68,.26-4.23,.64l-.16-.37c-7.74,3.34-21.49,15.39-11.43,16.1,4.6,1.01,8.57,1.15,11.91,.69,1.82,.04,3.49-.08,5.02-.34,21.65,.72,23.93-20.53,5.6-16.89-.44-.06-.9-.08-1.38-.09-1.03-.01-2.15,.08-3.38,.28-.61-.05-1.26-.06-1.95-.02Zm-154.07,18.33c22.54,5.94-9.28-16.15,.07-.26l-.07,.26Zm69.75-256.96c-.17,0-.33,.02-.5,.05-1.89,.02-3.88,.02-5.9-.17,0,0,0,.01-.01,0-1.18-.1-2.38-.27-3.55-.52l-.08,.38c-9.82-1.44-25.13,49.63-10.26,40.85,.98,1.32,2.66,1.47,5.19-.08,1.25,2.15,3.86,2.02,8.31-1.9,8.89-4.7,21.43-14.73,25.61-23.86,6.42-14.02,1.44-14.54-6.53-14.44-1.91-.35-4.37-.29-7.09-.25h-.03c-.79-.05-1.64-.06-2.55-.05-.63,0-1.28,0-1.95,.02t-.02,0c-.2,0-.41-.01-.61-.03-.01,.01-.02,.01-.03,0Zm-220.73,46.01c-.8,5.8-.63,15.9,3.04,13.77,7.75-5.47,4.83-20.03-2.89-13.75l-.15-.02Zm81.13-91.58c-1.31,23.29,13.94-12.33,.25,.02l-.25-.02Zm17.74,122.62c-6.78,14.23-20.08,24.73-29.03,37.87-3.59-1.71-7.16-2.98-10.33-3.36-.13-.01-.26-.02-.39-.02-11.16-26.87-16.09-49.72-16.93-79.43,.3,29.83,2.3,53.29,12.83,80.42-3.24,1.64-6.17,5.05-8.37,8.48-17.56-6.92-37.45,.24-54.59-6.61l-.02,.04c18.42,7.94,35.45-.07,52.78,9.74-.49,.93-.9,1.82-1.23,2.62-2.48,5.99,.4,10.26,5.16,12.44l-.08,.17c-11.14,31.54,30.45,68.66,51.42,84.7l.06-.08c-20.32-15.54-55.86-52.26-47.04-83.48,.55,.1,1.11,.17,1.67,.23,6.42,.59,15.55,1.25,22.39,.21l.05,.29c2.68,.9,5.5,1.59,8.57,2.06,9.77,1.52,24.98-.57,36.39-2.96h0c-11,2.25-23.67,1.78-34.54,.09-1.79-.28-3.51-.63-5.16-1.06,7.03-3.94,4.36-14.13-2.04-18.38-2.35-1.57-4.88-3.12-7.46-4.51,8.3-13.34,19.51-25.44,25.89-39.47Zm-53.61-209.91c8.43-8.89,20-16.24,26.84-24.9l-.08-.19c6.23-2.86,10.2-9.44,16.24-12.73,3.87-2.11,7.71-3.79,11.77-5.51,4.47-1.9,8.48-4.13,12.58-6.66,3.18-1.97,6.08-5.09,9.45-6.53l.02,.03c34.05-16.37,72.26-16.17,112.07-22.62,36.7-5.95,71.51,4.44,102.95,18,14.94,12.75,35.59,32.77,54.94,61.03-5.24-1.3-10.49-2.29-15.03-3.44-8.99-2.28-22.8-11.29-29.5-9.69-.83,0-1.66,0-2.48,.04-1.06-.11-2.03-.07-2.89,.13-1.77-.37-3.36-.46-4.67-.15-19.54,0-37.82,7.31-40.28,30.2-2.52,23.6,18.02,31.1,34.47,37.65,12.66,5.04,29.19,15.13,43.78,14.55,2.41,.24,4.78,.25,7.09-.04,6.86,.36,13.39-1.34,19-6.67,5.49-5.2,11.25-12.17,15.03-19.7,3.1,6.61,6.4,14.25,9.62,22.8h.08c.18,1.9,1.84,3.39,2.59,5.12,.79,1.83,1.59,3.51,1.79,5.55,.05,.45,.1,1.91,.28,2.86,0,.01,.01,.02,.01,.04,.06,.3,.14,.54,.23,.68,3.33,10.35,6.42,21.74,8.89,34.04h-.01c-.13,1.71,1.31,3.99,1.98,5.53,.39,.92,.48,1.94,.52,2.93,.05,1.09,.29,1.84,.61,2.85,.69,2.17,.03,4.05-.01,6.21-.01,1.11,.11,1.91-.1,3.05-.21,1.1-.34,2.33-.4,3.46-.07,1.31,.17,2.03,.78,3.12,.38,.67,.89,1.46,1.01,2.27h.04c1.81,18.01,2.07,37.44,.02,58-1.31,3.11-.11,6.46-.29,9.71-.09,1.69-.36,3.27-.28,5.02,.11,2.11,.09,3.65-.74,5.61-.48,1.15-1.14,2.23-1.62,3.4-.21,.51-.38,1.14-.66,1.69-3.42,19.76-9.95,48.97-26.09,80.26l-.11-.05c-.03,.07-.07,.14-.12,.2-.67,.97-2.1,1.46-2.68,2.55-.74,1.4-.74,3.19-1.35,4.66l.23,.13c-8.52,15.21-19.4,30.76-33.34,45.84-24.11,26.07-50.7,43.33-74.77,54.79l.05,.11c-2.83,1.49-5.74,3.23-8.41,5.21-.76,.57-1.77,.91-2.6,1.4-1.07,.63-2,1.34-3.2,1.73-1.17,.38-2.37,.34-3.53,.57-.98,.19-1.9,.65-2.88,.8-1.79,.29-3.61,.28-5.46,.3-.84,.01-1.43-.24-2.25-.3-1.33-.08-2.91,.79-4.19,1.13-2.24,.57-4.54,1.2-6.63,2.2-1.35,.65-2.6,1.45-4,1.88-1.4,.42-2.54,.81-3.81,1.53-.62,.35-1.27,.68-1.92,.95-.73,.3-1.68,.36-2.39,.67h0c-7.08,1.72-12.96,2.83-17.27,3.59h-.02c-39.23-.03-79.13-4.09-109.67-24.48l.05-.1c-2.24-.88-4.31-3.55-6.4-4.79-2.35-1.4-4.73-2.55-7.04-4.13-2.09-1.44-4.54-3.13-6.75-4.31-2.02-1.09-4.6-1.71-6.76-2.63-1.99-.84-4.18-2.25-6.29-2.76l-.02,.02c-5.78-3.84-11.41-7.91-16.85-12.19l-.41,.53c-.13-1.16-3.22-.24-4.28-.18-1.49,.08-3.67-.38-5.06-.96-.82-2.23-4.78-4.3-6.63-5.67-4.68-3.47-10.11-6.23-13.94-10.91-3.31-4.04-7.06-8.52-9.97-12.4-1.3-4.48-1.74-9.48-3.37-13.89l.05-.04c-4.35-5.52-8.49-11.23-12.39-17.1-.55-1.47-1.2-2.85-1.87-4.24-.79-1.64-1.35-2.63-2.34-4.1-.91-1.36-.85-2.91-1.85-4.26-1.11-1.52-2.66-2.63-3.75-4.13-.67-.92-2.38-2.47-2.47-3.58l.04-.02c-7.03-13.02-12.98-26.72-17.73-40.97l-.42,.14c-1.03-2.81-.16-5.37-2.29-8-1.72-2.13-2.37-2.94-3.34-5.62-.85-2.37-1.5-4.39-2.14-6.68-.71-2.55-1.55-4.03-1.41-6.67,.14-2.54,.29-5.35,.29-8.05l.31-.06c-2.8-15.33-2.25-31.26-4.3-47.27-2.95-23.15,2.98-45.86,8.82-67.33,0-.02,.02-.03,.02-.05,1.2-2.26,4.76-4.63,6.24-6.47,2.22-2.75,2.28-5.51,4.71-7.88,2.63-2.56,3.83-5.83,3.69-9.48-.14-3.73,.81-6.88,1.15-10.42,.31-3.3-.76-6.5,.47-9.4l-.17-.08c5.7-12.03,12.3-23.54,19.72-34.46,1.04-2.13,1.34-4.47,1.71-6.8,.38-2.35,1.38-3.97,2.84-5.95,1.78-2.4,3.43-4.8,5.68-6.79,2.65-2.34,4.57-5.37,7.11-7.76,1.25-1.19,2.32-2.62,3.91-3.44,1.15-.59,3.22-.38,4.1-1.19l.11,.11Zm348.95,84.4c1.14-6.44,1.24-7.17-3.29-7.97-1.59,.4-2.14,1.63-2.59,3.5-.52,2.52,4.89,6.46,5.88,4.47Zm-6.34,8.25c1.22-7.53,1.31-8.38-6.56-9.85-2.7,.3-3.5,1.69-4.06,3.87-.61,2.94,9.15,8.23,10.62,5.98Zm-5.9,222.32c4.28-8.04-2.13-15.39-5.9-12.6-.1-.01-.19-.02-.29-.02-1.41-1.16-3.1-1.46-4.45-.46-.05,0-.09-.01-.14-.01-1.42-1.19-3.12-1.5-4.48-.49-14.89-1.2-29.87,5.25-44.78,6.71-14.41,1.43-31.83,6.13-30.22,24.63,1.05,12.18,7.66,16.55,16.36,16.61,1.51,.34,3.11,.5,4.79,.5,15.89,3.58,43.03-13.35,52.29-21.44,4.14-3.61,14.45-8.98,16.82-13.43Zm-174.19,.9c1.22-7.53,1.31-8.38-6.57-9.85-2.69,.3-3.5,1.69-4.06,3.87-.6,2.94,9.15,8.23,10.63,5.98Zm-58.63,55.72c1.22-7.54,1.32-8.38-6.56-9.85-2.69,.29,1.18,1.86,.62,4.04-.6,2.93,4.47,8.06,5.94,5.81Zm-13.27,22.96c2.71-6.24-8.65-10.62-16.06-10.25-13.81,.3-1.42,11.05,6.38,11.75l-.02,.2c4.55,.75,6.69,2.51,9.7-1.7Zm-54.23-330.67c7.63-.32,8.48-.4,8.33-8.41-.83-2.58-1.58,1.53-3.83,1.42-3,0-7,6-4.5,6.99Zm-25.16-8.38c6.66,1.39,8.66-10.61,6.81-17.8-3.07-13.47-11.11,.83-10.22,8.61l-.2,.02c.17,4.61-1.12,7.07,3.61,9.17Z"/>
      <path class="cls-2" d="M624.91,134.4h0c-3.78,7.54-9.54,14.51-15.03,19.71-5.61,5.33-12.14,7.03-19,6.67,4.89-.62,9.51-2.58,13.64-6.49,6.94-6.59,14.31-15.97,17.56-25.76,.92,1.85,1.86,3.81,2.83,5.87Z"/>
      <path class="cls-2" d="M622.08,128.53c-3.25,9.79-10.62,19.17-17.56,25.76-4.13,3.91-8.75,5.87-13.64,6.49-1.14-.06-2.29-.17-3.45-.35,4.44-.77,8.64-2.71,12.42-6.3,8.04-7.62,16.67-19.02,18.78-30.45,.42,.5,.8,1.02,1.08,1.62,.29,.66,.35,1.37,.84,1.96,.39,.49,1.04,.73,1.46,1.16h.01s.04,.06,.06,.1h0Z"/>
      <path class="cls-4" d="M611.95,101.75c6.59,6.57,8.1,14.26,6.68,21.93-.76-.91-1.64-1.75-2.16-2.81-.65-1.3-.86-2.64-1.64-3.93-.86-1.4-1.76-2.8-2.66-4.19-.73-1.13-1.43-2.43-2.37-3.35-1.01-.99-2.32-1.62-3.36-2.58-.92-.85-.92-2.33-1.25-3.49-.32-1.14-.79-2.2-1.24-3.31-.62-1.56-1.98-3.14-2.34-4.86,3.93,1.65,7.5,3.77,10.34,6.59Z"/>
      <path class="cls-4" d="M616.47,120.87c.52,1.06,1.4,1.9,2.16,2.81-2.11,11.43-10.74,22.83-18.78,30.45-3.78,3.59-7.98,5.53-12.42,6.3-12.87-1.84-26.55-9.86-37.38-14.18-16.46-6.55-37-14.05-34.47-37.65,2.23-20.81,17.55-28.74,35-30.01,7.25,1.55,17.54,7.69,24.74,9.52,7.88,2,17.9,3.49,26.29,7.05,.36,1.72,1.72,3.3,2.34,4.86,.45,1.11,.92,2.17,1.24,3.31,.33,1.16,.33,2.64,1.25,3.49,1.04,.96,2.35,1.59,3.36,2.58,.94,.92,1.64,2.22,2.37,3.35,.9,1.39,1.8,2.79,2.66,4.19,.78,1.29,.99,2.63,1.64,3.93Z"/>
      <path class="cls-2" d="M616.62,101.91c-3.88-3.86-9.13-6.39-14.79-8.27-.48-.71-.95-1.41-1.44-2.11,8.11,2.03,16.19,4.82,21.59,10.2,9.7,9.67,8.4,21.77,2.93,32.67-.97-2.06-1.91-4.02-2.83-5.87h0c3.05-9.18,2.48-18.71-5.46-26.62Z"/>
      <path class="cls-3" d="M599.27,168.04c4.53,.8,4.43,1.53,3.29,7.97-.99,1.99-6.4-1.95-5.88-4.47,.45-1.87,1-3.1,2.59-3.5Z"/>
      <path class="cls-2" d="M601.83,93.64c5.66,1.88,10.91,4.41,14.79,8.27,7.94,7.91,8.51,17.44,5.46,26.61-.02-.04-.04-.07-.06-.11h-.01c-.42-.42-1.07-.66-1.46-1.15-.49-.59-.55-1.3-.84-1.96-.28-.6-.66-1.12-1.08-1.62,1.42-7.67-.09-15.36-6.68-21.93-2.84-2.82-6.41-4.94-10.34-6.59-.09-.45-.11-.92-.03-1.39l.06-.19c.07,.03,.13,.05,.19,.06Z"/>
      <path class="cls-3" d="M589.66,174.41c7.87,1.47,7.78,2.32,6.56,9.85-1.47,2.25-11.23-3.04-10.62-5.98,.56-2.18,1.36-3.57,4.06-3.87Z"/>
      <path class="cls-2" d="M584.13,393.96c2.54,2.09,4.2,6.97,1.45,12.13-2.37,4.45-12.68,9.82-16.82,13.43-8.39,7.34-31.47,21.93-47.55,21.93-.72-.16-1.41-.37-2.08-.61,15.88-1.37,37.06-14.86,45.02-21.82,4.13-3.61,14.45-8.98,16.81-13.43,2.59-4.87,1.26-9.49-1.03-11.75,1.4-.02,2.8,.01,4.2,.12Z"/>
      <path class="cls-2" d="M584.42,393.98c3.77-2.79,10.18,4.56,5.9,12.6-2.37,4.45-12.68,9.82-16.82,13.43-9.26,8.09-36.4,25.02-52.29,21.44,16.08,0,39.16-14.59,47.55-21.93,4.14-3.61,14.45-8.98,16.82-13.43,2.75-5.16,1.09-10.04-1.45-12.13,.1,0,.19,0,.29,.02Z"/>
      <path class="cls-4" d="M579.93,393.84c2.29,2.26,3.62,6.88,1.03,11.75-2.36,4.45-12.68,9.82-16.81,13.43-7.96,6.96-29.14,20.45-45.02,21.82-5.27-1.96-8.95-6.69-9.72-15.51-1.6-18.5,15.82-23.21,30.23-24.63,13.4-1.32,26.87-6.68,40.29-6.86Z"/>
      <path class="cls-4" d="M579.68,393.5c1.35-1,3.04-.7,4.45,.46-1.4-.11-2.8-.14-4.2-.12-.12-.12-.26-.24-.39-.35,.05,0,.09,.01,.14,.01Z"/>
      <path class="cls-2" d="M601.64,93.58c-7.27-2.37-15.18-3.67-21.65-5.31-7.84-1.99-19.35-9.1-26.61-9.83,.82-.03,1.65-.04,2.48-.04,6.7-1.6,20.51,7.41,29.5,9.69,4.54,1.15,9.79,2.14,15.03,3.44,.49,.7,.96,1.4,1.44,2.11-.06-.01-.12-.03-.19-.06Z"/>
      <path class="cls-2" d="M579.99,88.27c6.47,1.64,14.38,2.94,21.65,5.31l-.06,.19c-.08,.47-.06,.94,.03,1.39-8.39-3.56-18.41-5.05-26.29-7.05-7.2-1.83-17.49-7.97-24.74-9.52,.93-.07,1.86-.12,2.8-.15,7.26,.73,18.77,7.84,26.61,9.83Z"/>
      <path class="cls-3" d="M535.5,53.5c6.96-7.66,22.76,3.19,14.95,13.09-8.45,10.68-17.35-4.96-15.33-13.17l.38,.08Z"/>
      <path class="cls-2" d="M510.21,108.78c2.45-22.89,20.74-30.21,40.28-30.21,.03,0,.06,0,.09,.02-17.45,1.27-32.77,9.2-35,30.01-2.53,23.6,18.01,31.1,34.47,37.65,10.83,4.32,24.51,12.34,37.38,14.18-1.19,.21-2.41,.34-3.64,.39-13.36-1.34-27.79-9.89-39.11-14.4-16.45-6.55-36.99-14.05-34.47-37.64Z"/>
      <path class="cls-1" d="M550.49,78.57c-19.54,0-37.83,7.32-40.28,30.21-2.52,23.59,18.02,31.09,34.47,37.64,11.32,4.51,25.75,13.06,39.11,14.4-14.59,.58-31.12-9.51-43.78-14.55-16.45-6.55-36.99-14.05-34.47-37.65,2.46-22.89,20.74-30.2,40.28-30.2,1.31-.31,2.9-.22,4.67,.15Z"/>
      <path class="cls-2" d="M539.64,400.7c-14.41,1.42-31.83,6.13-30.23,24.63,.77,8.82,4.45,13.55,9.72,15.51-.92,.08-1.82,.12-2.71,.11-6.35-1.46-10.88-6.2-11.75-16.11-1.6-18.5,15.82-23.2,30.23-24.63,14.85-1.46,29.79-7.87,44.64-6.72,.13,.11,.27,.23,.39,.35-13.42,.18-26.89,5.54-40.29,6.86Z"/>
      <path class="cls-1" d="M534.9,400.21c-14.41,1.43-31.83,6.13-30.23,24.63,.87,9.91,5.4,14.65,11.75,16.11-8.7-.06-15.31-4.43-16.36-16.61-1.61-18.5,15.81-23.2,30.22-24.63,14.91-1.46,29.89-7.91,44.78-6.71,1.36-1.01,3.06-.7,4.48,.49-14.85-1.15-29.79,5.26-44.64,6.72Z"/>
      <path class="cls-2" d="M520.11,462.93c18.33-3.64,16.05,17.61-5.6,16.89,14.32-2.32,16.39-15.74,5.6-16.89Z"/>
      <path class="cls-4" d="M519.13,440.84c.67,.24,1.36,.45,2.08,.61-1.68,0-3.28-.16-4.79-.5,.89,.01,1.79-.03,2.71-.11Z"/>
      <path class="cls-2" d="M517.43,463.46c.45-.23,.89-.44,1.3-.62,.48,.01,.94,.03,1.38,.09,10.79,1.15,8.72,14.57-5.6,16.89-.76-.02-1.55-.08-2.37-.17,11.81-2.98,13.72-14.02,5.29-16.19Z"/>
      <path class="cls-4" d="M517.43,463.46c8.43,2.17,6.52,13.21-5.29,16.19-1.49-.14-3.07-.39-4.73-.75-9.47-.66,2.17-11.39,10.02-15.44Z"/>
      <path class="cls-4" d="M518.73,462.84c-.41,.18-.85,.39-1.3,.62-.63-.17-1.33-.28-2.08-.34,1.23-.2,2.35-.29,3.38-.28Z"/>
      <path class="cls-2" d="M501.91,479.23c-10.08-.71,3.75-12.81,11.49-16.13,.69-.04,1.34-.03,1.95,.02,.75,.06,1.45,.17,2.08,.34-7.85,4.05-19.49,14.78-10.02,15.44,1.66,.36,3.24,.61,4.73,.75-.83,.22-1.71,.39-2.65,.51-2.3-.04-4.82-.33-7.58-.93Z"/>
      <path class="cls-4" d="M512.14,479.65c.82,.09,1.61,.15,2.37,.17-1.53,.26-3.2,.38-5.02,.34,.94-.12,1.82-.29,2.65-.51Z"/>
      <path class="cls-2" d="M496.34,36.42c-.93-.49-1.82-.85-2.67-1.09,2.19-.85,4.83-.67,7.89,.94l-.04,.08c12.48,9.77,35.29,31.72,7.47,39.78-2.86,.83-5.43,1.03-7.74,.72,.81-.13,1.65-.33,2.52-.58,27.81-8.06,5.01-30-7.47-39.78l.04-.07Z"/>
      <path class="cls-1" d="M513.4,463.1c-7.74,3.32-21.57,15.42-11.49,16.13,2.76,.6,5.28,.89,7.58,.93-3.34,.46-7.31,.32-11.91-.69-10.06-.71,3.69-12.76,11.43-16.1l.16,.37c1.55-.38,2.95-.58,4.23-.64Z"/>
      <path class="cls-4" d="M499.7,76.56c.5,.13,1.02,.23,1.55,.29-1.24,.22-2.42,.3-3.55,.27,.38-.09,.77-.2,1.17-.31,.28-.08,.56-.16,.83-.25Z"/>
      <path class="cls-2" d="M499.7,76.56c-.27,.09-.55,.17-.83,.25-.4,.11-.79,.22-1.17,.31-19.73-.47-21.45-36.01-9.74-41.44,1.02,.19,2.11,.57,3.26,1.15-8.89,7.79-7.1,35.94,8.48,39.73Z"/>
      <path class="cls-4" d="M491.67,256.94c1.95-.19,3.62-.17,5.02,.05-.9,.1-1.85,.24-2.87,.43-.64-.22-1.35-.38-2.15-.48Z"/>
      <path class="cls-4" d="M493.82,257.42c11.16,3.64-1.13,22.98-22.15,30.06-3.09,1.04-6.51,2.04-9.79,2.66-4-1.31-6.04-4.94-3.84-12.66,2.84-9.96,20.65-14.98,27.69-18.24l.13,.28c2.98-.98,5.63-1.67,7.96-2.1Z"/>
      <path class="cls-1" d="M497.7,77.12c-27.04,6.39-27.65-44.93-9.74-41.44-11.71,5.43-9.99,40.97,9.74,41.44Z"/>
      <path class="cls-4" d="M487.96,35.68c1.64-.78,3.55-.95,5.71-.35-.9,.33-1.71,.84-2.45,1.5-1.15-.58-2.24-.96-3.26-1.15Z"/>
      <path class="cls-4" d="M491.4,37.02c12.35,9.68,34.82,31.29,8.3,39.54-15.58-3.79-17.37-31.94-8.48-39.73,.07,.04,.14,.07,.22,.12l-.04,.07Z"/>
      <path class="cls-2" d="M491.44,36.95c-.08-.05-.15-.08-.22-.12,.74-.66,1.55-1.17,2.45-1.5,.85,.24,1.74,.6,2.67,1.09l-.04,.07c12.48,9.78,35.28,31.72,7.47,39.78-.87,.25-1.71,.45-2.52,.58-.53-.06-1.05-.16-1.55-.29,26.52-8.25,4.05-29.86-8.3-39.54l.04-.07Z"/>
      <path class="cls-2" d="M476.34,287.48c22.05-7.43,34.5-28.34,20.35-30.49,22.02-2.37,9.38,22.3-14.99,30.51-5.89,1.99-12.99,3.84-18.04,3.06,4.1-.44,8.67-1.73,12.68-3.08Z"/>
      <path class="cls-2" d="M471.67,287.48c21.02-7.08,33.31-26.42,22.15-30.06,1.02-.19,1.97-.33,2.87-.43,14.15,2.15,1.7,23.06-20.35,30.49-4.01,1.35-8.58,2.64-12.68,3.08-.63-.1-1.23-.24-1.78-.42,3.28-.62,6.7-1.62,9.79-2.66Z"/>
      <path class="cls-2" d="M452.68,277.46c2.84-9.96,20.65-14.98,27.69-18.24l.13,.28c4.44-1.46,8.14-2.27,11.17-2.56,.8,.1,1.51,.26,2.15,.48-2.33,.43-4.98,1.12-7.96,2.1l-.13-.28c-7.04,3.26-24.85,8.28-27.69,18.24-2.2,7.72-.16,11.35,3.84,12.66-1.09,.19-2.17,.35-3.21,.45-5.35-.68-8.56-4.12-5.99-13.13Z"/>
      <path class="cls-3" d="M464.44,223.51c1.25,.57,5.06,1.07,5.01,3.42-.98,5.8-2.95,14.57-8.33,15.94-6.6,.63-2.7-18.21,3.32-19.36Z"/>
      <path class="cls-1" d="M480.37,259.22c-7.04,3.26-24.85,8.28-27.69,18.24-2.57,9.01,.64,12.45,5.99,13.13-7.89,.77-13.92-1.72-10.66-13.13,2.84-9.96,20.64-14.98,27.69-18.24l.13,.28c7.06-2.32,12.25-3.01,15.84-2.56-3.03,.29-6.73,1.1-11.17,2.56l-.13-.28Z"/>
      <path class="cls-2" d="M441.36,224.78c7.97-.1,12.95,.42,6.53,14.44-4.18,9.13-16.72,19.16-25.61,23.86-4.45,3.92-7.06,4.05-8.31,1.9,.86-.52,1.82-1.24,2.88-2.17,8.89-4.7,21.43-14.73,25.61-23.86,4.77-10.4,3.25-13.37-1.1-14.17Z"/>
      <path class="cls-4" d="M436.62,224.81c4.13,.88,5.47,3.95,.81,14.11-3.98,8.7-15.52,18.2-24.29,23.15-1.15-10.43,8.25-36.36,15.44-37.55,.31,0,.62-.01,.92-.02,.07,.01,.15,.01,.22,0t.02,0c.83,.04,1.65,.05,2.45,.05,1.49,.17,2.98,.24,4.42,.26h.01Z"/>
      <path class="cls-2" d="M422.68,224.35c2.02,.19,4.01,.19,5.9,.17-7.19,1.19-16.59,27.12-15.44,37.55-.45,.25-.89,.49-1.32,.72-1.13,.99-2.14,1.74-3.04,2.27-4.68-6.21,5.8-38.18,13.89-40.71,.01,.01,.01,0,.01,0Z"/>
      <path class="cls-1" d="M422.67,224.35c-8.09,2.53-18.57,34.5-13.89,40.71-14.87,8.78,.44-42.29,10.26-40.85l.08-.38c1.17,.25,2.37,.42,3.55,.52Z"/>
      <path class="cls-2" d="M413.14,262.07c8.77-4.95,20.31-14.45,24.29-23.15,4.66-10.16,3.32-13.23-.81-14.11,1.65,.03,3.25-.01,4.74-.03,4.35,.8,5.87,3.77,1.1,14.17-4.18,9.13-16.72,19.16-25.61,23.86-1.06,.93-2.02,1.65-2.88,2.17-.43-.72-.7-1.71-.83-2.91Z"/>
      <path class="cls-3" d="M409.56,397.63c7.88,1.47,7.79,2.32,6.57,9.85-1.48,2.25-11.23-3.04-10.63-5.98,.56-2.18,1.37-3.57,4.06-3.87Z"/>
      <path class="cls-4" d="M413.14,262.07c.13,1.2,.4,2.19,.83,2.91-2.53,1.55-4.21,1.4-5.19,.08,.9-.53,1.91-1.28,3.04-2.27,.43-.23,.87-.47,1.32-.72Z"/>
      <path class="cls-3" d="M359.4,481.17c-9.35-15.89,22.47,6.2-.07,.26l.07-.26Z"/>
      <path class="cls-3" d="M350.94,453.35c7.88,1.47,7.78,2.31,6.56,9.85-1.47,2.25-6.54-2.88-5.94-5.81,.56-2.18-3.31-3.75-.62-4.04Z"/>
      <path class="cls-3" d="M334.55,487.66c-7.8-.7-20.19-11.45-6.38-11.75,7.41-.37,18.77,4.01,16.06,10.25-3.01,4.21-5.15,2.45-9.7,1.7l.02-.2Z"/>
      <path class="cls-3" d="M298.33,147.08c.15,8.01-.7,8.09-8.33,8.41-2.5-.99,1.5-6.99,4.5-6.99,2.25,.11,3-4,3.83-1.42Z"/>
      <path class="cls-3" d="M289.73,178.92c13.69-12.35-1.56,23.27-.25-.02l.25,.02Z"/>
      <path class="cls-3" d="M261.43,137.92c-.89-7.78,7.15-22.08,10.22-8.61,1.85,7.19-.15,19.19-6.81,17.8-4.73-2.1-3.44-4.56-3.61-9.17l.2-.02Z"/>
      <path class="cls-2" d="M214.09,221.15c4.44-1.4,9.68,1.28,15.06,4.44,3.96,2.94-8.92,23.82-18.16,21.08-.34-.1-.67-.22-.97-.36,8.29-3.17,16.85-18.28,13.52-20.76-3.25-1.9-6.45-3.63-9.45-4.4Z"/>
      <path class="cls-2" d="M253.17,348.65c-17.33-9.81-34.36-1.8-52.78-9.74l.02-.04c17.14,6.85,37.03-.31,54.59,6.61,2.2-3.43,5.13-6.84,8.37-8.48-10.53-27.13-12.53-50.59-12.83-80.42,.84,29.71,5.77,52.56,16.93,79.43,.13,0,.26,.01,.39,.02,3.17,.38,6.74,1.65,10.33,3.36,8.95-13.14,22.25-23.64,29.03-37.87-6.38,14.03-17.59,26.13-25.89,39.47,2.58,1.39,5.11,2.94,7.46,4.51,6.4,4.25,9.07,14.44,2.04,18.38,1.65,.43,3.37,.78,5.16,1.06,10.87,1.69,23.54,2.16,34.54-.1h0c-11.41,2.4-26.62,4.49-36.39,2.97-3.07-.47-5.89-1.16-8.57-2.06l-.05-.29c-6.84,1.04-15.97,.38-22.39-.21-.56-.06-1.12-.13-1.67-.23-8.82,31.22,26.72,67.94,47.04,83.48l-.06,.08c-20.97-16.04-62.56-53.16-51.42-84.7l.08-.17c-4.76-2.18-7.64-6.45-5.16-12.44,.33-.8,.74-1.69,1.23-2.62Z"/>
      <path class="cls-4" d="M218.97,225.45c2.98,2.23-3.62,14.65-11,19.44-5.13-5.47,2.12-19.32,4.61-22.78,2.08,.88,4.22,2.07,6.39,3.34Z"/>
      <path class="cls-4" d="M209.1,220.96c1.57-.37,3.25-.25,4.99,.19-.33,.1-.66,.23-.98,.38l-.04-.03c-.12,.13-.29,.34-.49,.61-1.19-.5-2.35-.9-3.48-1.15Z"/>
      <path class="cls-2" d="M213.11,221.53c.32-.15,.65-.28,.98-.38,3,.77,6.2,2.5,9.45,4.4,3.33,2.48-5.23,17.59-13.52,20.76-.83-.36-1.51-.85-2.05-1.42,7.38-4.79,13.98-17.21,11-19.44-2.17-1.27-4.31-2.46-6.39-3.34,.2-.27,.37-.48,.49-.61l.04,.03Z"/>
      <path class="cls-3" d="M208.5,270.5c7.72-6.28,10.64,8.28,2.89,13.75-3.67,2.13-3.84-7.97-3.04-13.77l.15,.02Z"/>
      <path class="cls-2" d="M209.1,220.96c1.13,.25,2.29,.65,3.48,1.15-2.49,3.46-9.74,17.31-4.61,22.78-1.06,.69-2.14,1.22-3.2,1.54-10-3.82,.73-22.92,2.69-24.96l.04,.03c.52-.24,1.05-.42,1.6-.54Z"/>
      <path class="cls-4" d="M210.02,246.31c-1.59,.6-3.16,.77-4.64,.33-.21-.06-.42-.13-.61-.21,1.06-.32,2.14-.85,3.2-1.54,.54,.57,1.22,1.06,2.05,1.42Z"/>
      <path class="cls-1" d="M202.92,221.4c1.91-.9,3.99-.94,6.18-.44-.55,.12-1.08,.3-1.6,.54l-.04-.03c-1.96,2.04-12.69,21.14-2.69,24.96-1.35,.41-2.69,.48-3.96,.1-11.03-3.26,.07-23.09,2.07-25.17l.04,.04Z"/>
    </g>
  </g>
  <g id="Layer_9" data-name="Layer 9">
    <g>
      <path class="cls-1" d="M432.88,275.56c.1,.39,.11,.72,.04,1.01-.37,.45-.96,.99-1.48,1.49-.39,.18-.82,.33-1.24,.46-2.5,.81-3.11,2.5-5.7,2.98-3.67,.68-3,1-5,0-1-1-5.76-1.72-4.86-2.33,1.16-.78,2.61-1.01,3.86-1.67,2.71-1.43,5.24-3.88,8.25-4.31,1.13-.16,3.43-.88,4.55-.3,.01,.01,.02,.01,.03,.02,.29,.38,.77,1,1.18,1.61,.17,.38,.29,.75,.37,1.04Z"/>
      <path class="cls-2" d="M466.37,484.28c-.29-.68-.7-1.36-1.2-1.62,0-.01-.01-.01-.01-.01-.01-.02-.03-.04-.04-.06,2.56,.2,2.99,1.05,5.38,1.91,.3,.42,2.45,4.91,1.35,5.45-.98,.48-4.48-1.24-5.07-1.97-.49-.61,.61-1.64,.34-2.39-.12-.33-.41-.82-.75-1.31Z"/>
      <path class="cls-2" d="M431.44,278.06c.52-.5,1.11-1.04,1.48-1.49-.16,.7-.76,1.15-1.48,1.49Z"/>
      <path class="cls-1" d="M466.37,484.28c.17,.38,.29,.75,.37,1.05,.49,1.81-.72,2.68-2.24,3.17-2.5,.81-5.58,1.18-8.17,1.66-3.67,.69-5.21,1.43-7.21,.43-1-1-1.52-1.04-.61-1.66,1.15-.78,5.74-4.77,6.99-5.43,2.71-1.43,2.1-.12,5.11-.55,1.13-.16,3.44-.88,4.55-.3,0,0,.01,0,.01,.01,.29,.37,.78,1,1.2,1.62Z"/>
      <path class="cls-2" d="M477.12,497.59c2.56,.2,4.46,4.14,6.85,4.99,.3,.43-1.38,.38-2.47,.92-.95,.47-2.06,.23-2.66-.46,.12-.43,.16-.92,.12-1.43,.15-.36,.27-.71,.16-1.02-.12-.33-.41-.82-.75-1.31-.29-.68-.7-1.36-1.2-1.62,0-.01-.01-.01-.01-.01-.01-.02-.03-.04-.04-.06Z"/>
      <path class="cls-2" d="M432.92,276.57c.26-.31,.4-.57,.34-.75-.12-.33-.41-.81-.75-1.3-.28-.66-.69-1.34-1.18-1.61-.03-.03-.05-.06-.07-.09,2.56,.21,4.46,4.14,6.84,5,.31,.42,.98,1.83-.11,2.37-.98,.48-6.9,.04-7.49-.69-.21-.25,.3-.82,.94-1.44,.72-.34,1.32-.79,1.48-1.49Z"/>
      <path class="cls-2" d="M571.17,172.11c.3,.42,2.42,1.85,1.33,2.39-.98,.48-5.93-1.26-6.52-2-.49-.6,.61-1.63,.34-2.39-.12-.33-.41-.81-.75-1.3-.28-.67-.68-1.35-1.18-1.61-.03-.03-.05-.06-.07-.09,2.57,.21,4.46,4.14,6.85,5Z"/>
      <path class="cls-1" d="M565.94,169.85c.49,1.82-.92,.16-2.44,.65-2.5,.81-5.38,3.71-7.97,4.19-3.67,.68-5.21,1.42-7.21,.42-1-1-1.52-1.04-.61-1.65,1.15-.78,1.86-2.6,3.27-2.45,4.52,.49,5.82-3.1,8.83-3.53,1.13-.17,3.44-.88,4.55-.3,.01,0,.02,.01,.03,.02,.3,.38,.77,1,1.18,1.61,.17,.38,.29,.75,.37,1.04Z"/>
      <path class="cls-2" d="M564.39,167.2c.5,.26,.9,.94,1.18,1.61-.41-.61-.88-1.23-1.18-1.61Z"/>
      <path class="cls-2" d="M478.96,501.61c.04,.51,0,1-.12,1.43-.03-.02-.04-.04-.06-.06-.29-.36-.03-.86,.18-1.37Z"/>
      <path class="cls-1" d="M478.74,500.33c.12,.43,.2,.86,.22,1.28-.21,.51-.47,1.01-.18,1.37,.02,.02,.03,.04,.06,.06-.2,.69-.63,1.23-1.34,1.46-2.5,.81-6.58,.18-9.17,.66-3.67,.69-5.21,1.43-7.21,.43-1-1-3.52-2.48-2.62-3.09,1.16-.78,4.03-.35,5.27-1.01,2.71-1.44,5.83-3.11,8.84-3.54,1.13-.16,3.44-.88,4.55-.3,0,0,.01,0,.01,.01,.29,.37,.78,1,1.2,1.62,.17,.38,.29,.76,.37,1.05Z"/>
      <path class="cls-2" d="M477.17,497.66c.5,.26,.91,.94,1.2,1.62-.42-.62-.91-1.25-1.2-1.62Z"/>
      <path class="cls-2" d="M465.17,482.66c.5,.26,.91,.94,1.2,1.62-.42-.62-.91-1.25-1.2-1.62Z"/>
      <path class="cls-2" d="M431.33,272.91c.49,.27,.9,.95,1.18,1.61-.41-.61-.89-1.23-1.18-1.61Z"/>
      <path class="cls-2" d="M297.41,392.31c.25,.53-.98,.77-1.29,.85-.62,.16-1.14,.25-1.63-.26-.18-.19-.24-.41-.38-.62-.18-.27-.44-.34-.69-.53,.21-.17,.28-.37-.02-.59-.04-.1-.08-.18-.09-.24,.7,.14,1.53,.34,2.17,.67,.3,.15,.57,.25,.88,.29s.9,.1,1.05,.43Z"/>
      <path class="cls-2" d="M293.4,391.16c.3,.22,.23,.42,.02,.59-.02-.01-.03-.03-.05-.04,.24-.02,.12-.32,.03-.55Z"/>
      <path class="cls-1" d="M293.4,391.16c.09,.23,.21,.53-.03,.55,.02,0,.03,.03,.05,.04-.11,.1-.27,.2-.42,.3-.62,.4-1.29,.76-1.94,1.1-1.1,.57-2.65,.5-3.84,.27-.46-.08-1.85-.03-1.76-.8,.06-.47,.96-.66,1.34-.76,.32-.38,1.1-.57,1.67-.64,.43-.06,.86-.21,1.28-.23,.34-.03,1.42-.52,1.75-.49,.51,.04,.49-.26,1,0,.38,.19,.43,.39,.77,.58,.05,.03,.09,.06,.13,.08Z"/>
      <path class="cls-2" d="M288,383.11c.7,.68,2.04,.87,1.88,2.12-.11,.82-.79,1.72-1.62,1.15-.27-.19-.49-.44-.73-.66-.31-.28-.76-.57-.96-.94-.03-.06-.06-.13-.07-.2-.01-.15-.04-.32-.09-.5-.02-.17-.04-.33-.08-.47-.09-.34-.33-.64-.69-.99-.09-.1-.19-.2-.3-.31-.24-.23-.52-.49-.84-.81,0,0,1.05,.22,1.35,.23,.2,.01,.44,.11,.62,.18,.6,.23,1.08,.76,1.53,1.2Z"/>
      <path class="cls-1" d="M286.5,384.58v.15c-1.84,.87-3.43,2.31-5.24,3.18-1.64,.8-4.28,.67-6.01,.38-1.75-.79,3.04-2.91,4.27-4.15,.97-.98,3.86-2.71,5.38-2.11,.15,.06,.3,.16,.44,.28,.11,.11,.21,.21,.3,.31,.35,.42,.63,.98,.77,1.46,.02,.17,.04,.35,.09,.5Z"/>
      <path class="cls-2" d="M286.41,384.08c.05,.18,.08,.35,.09,.5-.05-.15-.07-.33-.09-.5Z"/>
      <path class="cls-2" d="M286.33,383.61c.04,.14,.06,.3,.08,.47-.14-.48-.42-1.04-.77-1.46,.36,.35,.6,.65,.69,.99Z"/>
      <path class="cls-2" d="M269.34,161.5c.31,.42,.99,1.83-.11,2.36-.98,.48-4.48-1.24-5.07-1.97-.49-.6,.61-1.64,.34-2.39-.12-.33-.41-.8-.74-1.29-.29-.68-.71-1.37-1.21-1.64t-.01-.01s-.03-.04-.04-.06c2.56,.21,4.46,4.14,6.84,5Z"/>
      <path class="cls-1" d="M264.12,159.24c.48,1.82-1.16,2.47-2.68,2.96-2.5,.81-5.14,1.39-7.73,1.88-3.68,.68-5.21,1.42-7.21,.42-1-1-1.52-1.04-.62-1.65,1.16-.79,2.03-1.79,3.27-2.45,2.71-1.44,5.83-3.1,8.84-3.54,1.13-.16,3.44-.88,4.55-.3t.01,.01c.29,.37,.79,1.02,1.21,1.64,.16,.37,.28,.74,.36,1.03Z"/>
      <path class="cls-2" d="M262.55,156.57c.5,.27,.92,.96,1.21,1.64-.42-.62-.92-1.27-1.21-1.64Z"/>
    </g>
  </g>
</svg>