<?xml version="1.0" encoding="UTF-8"?>
<svg id="version_2" data-name="version 2" xmlns="http://www.w3.org/2000/svg" viewBox="0 0 881 537">
  <defs>
    <style>
      .cls-1 {
        fill: #f9cd77;
      }

      .cls-2 {
        fill: #fff;
      }

      .cls-3 {
        fill: #e5ad4c;
      }

      .cls-4 {
        fill: #b88d49;
      }

      .cls-5 {
        fill: #d5c69f;
      }

      .cls-6 {
        opacity: .5;
        stroke: #e5ad4c;
      }

      .cls-6, .cls-7 {
        fill: none;
        stroke-linecap: round;
        stroke-linejoin: round;
        stroke-width: .5px;
      }

      .cls-7 {
        stroke: #b88d49;
      }
    </style>
  </defs>
  <g id="circle">
    <ellipse class="cls-1" cx="445.75" cy="267.5" rx="258.25" ry="259"/>
  </g>
  <g>
    <g>
      <path class="cls-4" d="M675.11,387.58c-71.24,2.79-156.51-.11-246.61-10.08-87-9.63-167.35-24.53-233.83-41.82C81.25,306.2,8.19,269.8,11.39,240.9c3.07-27.72,75.57-44.54,184.47-47.74-.6,1.85-1.16,3.69-1.69,5.5-100.8,2.54-146.99,13.09-149.75,37.99-4.56,41.18,166.01,99.72,384.08,123.85,218.07,24.13,403.44,7.18,408-34,2.68-24.2-39.72-44.87-132.82-68.95-.02-.43-.04-.86-.07-1.28-.08-1.89-.19-3.76-.33-5.63,100.39,26.46,171.2,57.93,168.22,84.86-3.13,28.3-81.49,47.59-196.39,52.08Z"/>
      <path class="cls-5" d="M703.88,264.18c-.02-1.2-.05-2.4-.09-3.6,90,23.73,120.39,40.73,117.71,64.92-4.56,41.18-181.85,50.36-393,27S54.86,277.83,59.42,236.65c2.76-24.92,36.18-33.12,134-36l.16,.04c-.56,2.01-1.09,3.99-1.58,5.94l-.5-.13c-52.37,4.41-83.98,12.26-85.98,28-2.05,16.13,28.64,34.93,80.49,52.65,57.38,19.6,140.67,37.88,234.23,49.75,102.78,13.03,204.46,15.21,272.92,8.19,50.19-5.14,82.52-15.22,84.34-29.59,1.55-12.29-42.04-37.01-73.61-50.83,0-.16,0-.33,0-.49Z"/>
      <path class="cls-1" d="M194.17,198.66c.53-1.81,1.09-3.65,1.69-5.5,1.14-3.59,2.41-7.25,3.81-10.97,2.1-5.59,3.95-9.61,5.36-12.72l.39,.18c4.44,14.8,12.95,36.1,30.25,57,54.92,66.35,147.35,67.08,158.56,67,23.79-.16,40.73-4.25,57.04-10.37,14.15-3.85,37.49-8.72,66.11-7.11,50.81,2.85,71.39,23.45,111.5,20.43,17.17-1.29,43.26-7.31,74.61-32.11h.01c.13,.07,.26,.12,.39,.18,.02,1.32,.03,2.65,.03,3.98,0,25.98-3.82,51.08-10.93,74.74l.17,1.7c-68.46,7.02-170.14,4.84-272.92-8.19-93.56-11.87-176.85-30.15-234.23-49.75-.6-6.13-.98-12.33-1.09-18.5-.15-8.01,.18-15,.23-16.02,.53-11.39,2.14-27.42,6.85-46,.49-1.95,1.02-3.93,1.58-5.94,.2-.67,.39-1.35,.59-2.03Z"/>
      <path class="cls-1" d="M703.88,264.18c0,.16,0,.33,0,.49-.13-.06-.26-.11-.39-.17h-.01c.13-.11,.26-.21,.39-.32Z"/>
      <path class="cls-4" d="M703.68,257.55c.04,1,.08,2.01,.11,3.03,.04,1.2,.07,2.4,.09,3.6-.13,.11-.26,.21-.39,.31-31.35,24.8-57.44,30.82-74.61,32.11-40.11,3.02-60.69-17.58-111.5-20.43-28.62-1.61-51.96,3.26-66.11,7.11,6.52-2.44,12.93-5.2,19.63-8.17l.02,.04c31.64-9.23,57.66-11.27,75.72-11.4,43.78-.31,66.72,10.44,109.51,4.75,20.63-2.74,36.91-8.1,47.46-12.23,.03,.42,.05,.85,.07,1.28Z"/>
      <path class="cls-1" d="M703.28,250.64c.14,1.87,.25,3.74,.33,5.63-10.55,4.13-26.83,9.49-47.46,12.23-42.79,5.69-65.73-5.06-109.51-4.75-18.06,.13-44.08,2.17-75.72,11.4l-.02-.04c21.94-9.72,47.06-21.61,89.19-31.46,58.17-13.6,108.21-13.82,140.83-12l.28-.04c.93,6.25,1.63,12.59,2.08,19.03Z"/>
      <path class="cls-3" d="M451.27,283.28c-16.31,6.12-33.25,10.21-57.04,10.37-11.21,.08-103.64-.65-158.56-67-17.3-20.9-25.81-42.2-30.25-57l-.39-.18s.02-.05,.03-.07c0,0,2.69-5.95,7.36-14.75,32.15,35.26,63.62,52.13,85.8,61,78.19,31.26,140.19,2.73,292.97-2,45.64-1.41,82.93-.19,106.73,1l.14-.03c1.25,5.58,2.29,11.24,3.14,16.99l-.28,.04c-32.62-1.82-82.66-1.6-140.83,12-42.13,9.85-67.25,21.74-89.19,31.46-6.7,2.97-13.11,5.73-19.63,8.17Z"/>
      <path class="cls-1" d="M698.06,214.62l-.14,.03c-23.8-1.19-61.09-2.41-106.73-1-152.78,4.73-214.78,33.26-292.97,2-22.18-8.87-53.65-25.74-85.8-61,5.31-10,13.2-23.66,22.61-36.38,11.39-15.38,93.57-109.58,209.39-109.12,107.89,.43,226.31,81.77,253.64,205.47Z"/>
      <path class="cls-1" d="M428.5,377.5c90.1,9.97,175.37,12.87,246.61,10.08-43.12,83.5-130.24,140.57-230.69,140.57-133.39,0-219.54-110.81-238.75-157.64-2.78-6.8-7.06-19.29-11-34.83,66.48,17.29,146.83,32.19,233.83,41.82Z"/>
    </g>
    <g>
      <path class="cls-7" d="M677.41,383.04c-.75,1.52-1.51,3.04-2.3,4.54-43.12,83.5-130.24,140.57-230.69,140.57-133.39,0-219.54-110.81-238.75-157.64-2.78-6.8-7.06-19.29-11-34.83-.4-1.54-.79-3.12-1.17-4.72"/>
      <path class="cls-7" d="M702.92,250.54c.12,.03,.24,.06,.36,.1,100.39,26.46,171.2,57.93,168.22,84.86-3.13,28.3-81.49,47.59-196.39,52.08-71.24,2.79-156.51-.11-246.61-10.08-87-9.63-167.35-24.53-233.83-41.82C81.25,306.2,8.19,269.8,11.39,240.9c3.07-27.72,75.57-44.54,184.47-47.74,.09,0,.19,0,.28,0"/>
      <path class="cls-7" d="M703.5,264.5c.13,.06,.26,.11,.39,.17,31.57,13.82,75.16,38.54,73.61,50.83-1.82,14.37-34.15,24.45-84.34,29.59-68.46,7.02-170.14,4.84-272.92-8.19-93.56-11.87-176.85-30.15-234.23-49.75-51.85-17.72-82.54-36.52-80.49-52.65,2-15.74,33.61-23.59,85.98-28"/>
      <path class="cls-7" d="M703.5,260.5c.1,.03,.19,.05,.29,.08,90,23.73,120.39,40.73,117.71,64.92-4.56,41.18-181.85,50.36-393,27S54.86,277.83,59.42,236.65c2.76-24.92,36.18-33.12,134-36"/>
      <path class="cls-7" d="M703.5,257.5c.06,.02,.12,.03,.18,.05,93.1,24.08,135.5,44.75,132.82,68.95-4.56,41.18-189.93,58.13-408,34-218.07-24.13-388.64-82.67-384.08-123.85,2.76-24.9,48.95-35.45,149.75-37.99,.08,0,.17,0,.25,0"/>
      <path class="cls-7" d="M205.42,169.65c4.44,14.8,12.95,36.1,30.25,57,54.92,66.35,147.35,67.08,158.56,67,23.79-.16,40.73-4.25,57.04-10.37,6.52-2.44,12.93-5.2,19.63-8.17,21.94-9.72,47.06-21.61,89.19-31.46,58.17-13.6,108.21-13.82,140.83-12"/>
      <path class="cls-7" d="M212.42,154.65c32.15,35.26,63.62,52.13,85.8,61,78.19,31.26,140.19,2.73,292.97-2,45.64-1.41,82.93-.19,106.73,1"/>
      <path class="cls-7" d="M470.92,275.15c31.64-9.23,57.66-11.27,75.72-11.4,43.78-.31,66.72,10.44,109.51,4.75,20.63-2.74,36.91-8.1,47.46-12.23,.1-.04,.21-.08,.31-.12"/>
      <path class="cls-7" d="M450.92,283.38c.11-.03,.23-.06,.35-.1,14.15-3.85,37.49-8.72,66.11-7.11,50.81,2.85,71.39,23.45,111.5,20.43,17.17-1.29,43.26-7.31,74.61-32.11,.13-.1,.26-.2,.39-.31,0-.01,.03-.02,.04-.03"/>
    </g>
  </g>
  <path class="cls-6" d="M649.94,388.32c.37,3.96,.56,8.03,.56,12.18,0,43.35-61.69,85-94,85s-80-23-65-67c3.67-10.76,11.37-21.67,20-33"/>
  <path class="cls-6" d="M645.27,365.11c.65,2.02,1.25,4.09,1.78,6.22"/>
  <path class="cls-6" d="M547.73,347.73c17.76-14.44,35.99-24.23,49.77-24.23,17.16,0,31.05,9.5,40.3,24.9"/>
  <path class="cls-6" d="M525.5,368.5c2.22-2.36,4.48-4.67,6.78-6.92"/>
  <g>
    <path class="cls-2" d="M704.16,268.75c34.6,12.89,54.58,31.52,53.25,42.81-3.48,29.53-148.92,38.67-324.91,17.94S116.62,266.02,120.1,236.49c1.43-12.17,27.71-23.56,69.66-27.82l.2,2.02c-32.24,4.16-52.8,15.02-53.97,24.96-3.19,27.13,129.75,65.09,296.94,84.78,167.19,19.7,305.32,13.67,308.51-13.46,1.06-8.96-12.99-26.2-37.94-36.47l.66-1.75Z"/>
    <g>
      <path class="cls-7" d="M703.5,268.5l.66,.24h0c34.6,12.9,54.58,31.53,53.25,42.82-3.48,29.53-148.92,38.67-324.91,17.94S116.62,266.02,120.1,236.49c1.43-12.17,27.71-23.56,69.66-27.82,.57-.06,1.16-.11,1.74-.17"/>
      <path class="cls-7" d="M703.5,270.5c24.95,10.27,39,27.51,37.94,36.47-3.19,27.13-141.32,33.16-308.51,13.46-167.19-19.69-300.13-57.65-296.94-84.78,1.17-9.94,21.73-20.8,53.97-24.96,.51-.06,1.02-.13,1.54-.19"/>
    </g>
  </g>
</svg>