<?xml version="1.0" encoding="UTF-8"?>
<svg id="Layer_1" data-name="Layer 1" xmlns="http://www.w3.org/2000/svg" viewBox="0 0 1211 1259">
  <defs>
    <style>
      .cls-1 {
        stroke: #a7cbe8;
      }

      .cls-1, .cls-2 {
        fill: #a7cbe8;
      }

      .cls-1, .cls-3 {
        stroke-miterlimit: 10;
      }

      .cls-2 {
        opacity: .2;
      }

      .cls-3 {
        fill: none;
        stroke: #fff;
      }
    </style>
  </defs>
  <path class="cls-2" d="M1039.98,75.14H184.99L54.49,162.64v937l130.51,86.5h854.99l130.51-86.5V162.64l-130.51-87.5Zm-854.99,.08h0m0,0,0,1110.82h0m854.99,.05h0s-854.99-.04-854.99-.04h0m854.99,.04M184.99,75.21v-.03l854.99-.02h0"/>
  <g id="outline">
    <polygon class="cls-1" points="181.56 44.64 572.59 43.64 602.07 25.64 181.56 25.64 51.49 109.64 17.67 109.64 17.67 247.64 31.54 268.64 32.41 129.64 47.15 129.64 181.56 44.64"/>
    <polygon class="cls-1" points="198.1 1214.64 405.38 1214.64 432.53 1232.64 487.16 1232.64 512.49 1213.64 546.73 1213.64 531.39 1222.64 515.78 1222.64 489.76 1241.64 429.73 1241.64 405.52 1224.64 185.09 1224.64 198.1 1214.64"/>
    <polygon class="cls-1" points="1042.77 44.2 680.74 43.2 651.26 25.2 1042.77 25.2 1172.85 109.2 1206.67 109.2 1206.67 247.2 1192.79 268.2 1191.92 129.2 1177.18 129.2 1042.77 44.2"/>
    <polyline class="cls-3" points="1191.5 305.5 1191.5 1114 1067.09 1199.14"/>
    <polygon class="cls-1" points="1038.23 1214.2 830.95 1214.2 803.8 1232.2 749.17 1232.2 723.85 1213.2 689.6 1213.2 704.95 1222.2 720.55 1222.2 746.57 1241.2 806.6 1241.2 830.82 1224.2 1051.24 1224.2 1038.23 1214.2"/>
    <path class="cls-3" d="M561.25,1213.33s116.75,.27,116.75,0"/>
    <polyline class="cls-3" points="34.5 305.5 34.5 1114 158.91 1199.14"/>
  </g>
</svg>