<?xml version="1.0" encoding="UTF-8"?>
<svg xmlns="http://www.w3.org/2000/svg" viewBox="0 0 768 768">
  <defs>
    <style>
      .cls-1 {
        fill: #60ae4d;
      }

      .cls-2 {
        fill: #787a80;
      }

      .cls-3 {
        fill: #4d6296;
      }

      .cls-4 {
        opacity: .5;
      }
    </style>
  </defs>
  <g id="Layer_1" data-name="Layer 1">
    <g>
      <path class="cls-1" d="M472.79,430.82c.05-.75,9.37-3.38,6-6-2.33-1.81,3.41-10.23-3-9-8.6,1.65-7.07-2.58-12-3-4.33-.36,4.47-8.08,3-9-6.27-3.9-17.07,3.19-15,0,2.11-3.26-16.85,3.31-15,0,1.5-2.7-3.51-5.72-3-12,.31-3.81-6.76,2.1-6-3,.6-4.05-.55-4.54,0-9,.29-2.38-8.29-8.84-6-12,2.41-3.33,17.68-10.65,21-12,2.47-1,3.62,4.89,12,3,7.66-1.72,5.52-5.03,6-6,1.61-3.25,3.08-7.29-3-9-.87-.24-.26-3.88-3-3-4.79,1.54-5.08,5.94-9,9-6.08,4.75-7.86-2.83-9-6-1.26-3.47,.52-4.51,0-12-.3-4.31-7.1-9.13-6-12,1.24-3.25,9.59,3.79,12,0,1.01-1.59,1.41-3.89,0-9-1.22-4.41-7.15-21.24-15-30l.1-.24c40.48,17.04,68.9,57.07,68.9,103.74,0,24.13-7.6,46.5-20.54,64.82l-.46-.32c-.44-2.03-6.87-5.28-6-9,.98-4.18,2.74-5.26,3-9Z"/>
      <path class="cls-3" d="M478.79,424.82c3.37,2.62-5.95,5.25-6,6-.26,3.74-2.02,4.82-3,9-.87,3.72,5.56,6.97,6,9l.46,.32c-20.37,28.84-53.97,47.68-91.96,47.68-46.06,0-85.65-27.68-103.04-67.31,.27-6.16-4.09-31.82-3.46-31.69,.91,.2,21.36-10.49,15-21-2.02-3.33-13.51-4.36-15-9-1.36-4.2,5.29-1.69,6-6,.8-4.83-1.12-17.87,0-27l-.44-.22c18.35-37.19,56.66-62.78,100.94-62.78,15.46,0,30.19,3.12,43.6,8.76l-.1,.24c7.85,8.76,13.78,25.59,15,30,1.41,5.11,1.01,7.41,0,9-2.41,3.79-10.76-3.25-12,0-1.1,2.87,5.7,7.69,6,12,.52,7.49-1.26,8.53,0,12,1.14,3.17,2.92,10.75,9,6,3.92-3.06,4.21-7.46,9-9,2.74-.88,2.13,2.76,3,3,6.08,1.71,4.61,5.75,3,9-.48,.97,1.66,4.28-6,6-8.38,1.89-9.53-4-12-3-3.32,1.35-18.59,8.67-21,12-2.29,3.16,6.29,9.62,6,12-.55,4.46,.6,4.95,0,9-.76,5.1,6.31-.81,6,3-.51,6.28,4.5,9.3,3,12-1.85,3.31,17.11-3.26,15,0-2.07,3.19,8.73-3.9,15,0,1.47,.92-7.33,8.64-3,9,4.93,.42,3.4,4.65,12,3,6.41-1.23,.67,7.19,3,9Zm-84-9c5.82-7.4,3.14-17.48,3-18-2.03-7.21-7.94-10.68-15-15-7.26-4.43-13.5-5.71-15-6-4.87-.93-9.68-1.85-15,0-7.58,2.63-13.96,10.09-15,18-.82,6.21,2.38,7.14,9,24,5.25,13.4,7.84,20.24,6,27-1.37,5.01-4,7.46-3,12,1,4.55,5.23,9.33,9,9,4.1-.35,6.79-7.24,12-21,5.53-14.6,4.9-17.17,9-21,5.9-5.52,10.49-3.26,15-9Zm-9-108c1.11-5.28-6.97-13.18-12-12-4.28,1.01-4.13,8.05-9,9-2.13,.42-.24-3.72-6-6,0,0-3-4-9-6-5.28-1.76-6.27-.03-9,0-2.4,.03-4.6-1.98-9,0-.43,.2-3.23,.11-9,3-3.89,1.95-8.83,5.92-9,6-5.09,2.41-5.5,2.18-6,3-1.86,3.03-2.54,6.51-3,12-.37,4.29,5.17,7.75,0,15-3.64,5.1-7.72,10.81-6,15,1.97,4.84,9.43,2.18,15,9,3.2,3.93,2.34,6.77,6,9,3.95,2.41,7.46,.61,9,3,1.65,2.56-1.74,5.63,0,9,1.26,2.45,4.61,3.9,6,3,1.29-.83,.32-3.34,0-9-.48-8.34,1.28-9.03,0-12-2.73-6.34-12.34-6.93-12-9,.21-1.31,3.98-6.55,9-9,5.59-2.73,5.99-.15,9,0,4.72,.24,8.96,8.95,9,9,.87-2.02,2.05-5.11,3-9,1.67-6.88,.82-8.97,3-12,1.36-1.89,2.16-1.74,9-6,2.97-1.85,1.81-1.25,9-6,10.6-7,11.65-7.33,12-9Z"/>
      <path class="cls-1" d="M397.79,397.82c.14,.52,2.82,10.6-3,18-4.51,5.74-9.1,3.48-15,9-4.1,3.83-3.47,6.4-9,21-5.21,13.76-7.9,20.65-12,21-3.77,.33-8-4.45-9-9-1-4.54,1.63-6.99,3-12,1.84-6.76-.75-13.6-6-27-6.62-16.86-9.82-17.79-9-24,1.04-7.91,7.42-15.37,15-18,5.32-1.85,10.13-.93,15,0,1.5,.29,7.74,1.57,15,6,7.06,4.32,12.97,7.79,15,15Z"/>
      <path class="cls-1" d="M373.79,295.82c5.03-1.18,13.11,6.72,12,12-.35,1.67-1.4,2-12,9-7.19,4.75-6.03,4.15-9,6-6.84,4.26-7.64,4.11-9,6-2.18,3.03-1.33,5.12-3,12-.95,3.89-2.13,6.98-3,9-.04-.05-4.28-8.76-9-9-3.01-.15-3.41-2.73-9,0-5.02,2.45-8.79,7.69-9,9-.34,2.07,9.27,2.66,12,9,1.28,2.97-.48,3.66,0,12,.32,5.66,1.29,8.17,0,9-1.39,.9-4.74-.55-6-3-1.74-3.37,1.65-6.44,0-9-1.54-2.39-5.05-.59-9-3-3.66-2.23-2.8-5.07-6-9-5.57-6.82-13.03-4.16-15-9-1.72-4.19,2.36-9.9,6-15,5.17-7.25-.37-10.71,0-15,.46-5.49,1.14-8.97,3-12,.5-.82,.91-.59,6-3,.17-.08,5.11-4.05,9-6,5.77-2.89,8.57-2.8,9-3,4.4-1.98,6.6,.03,9,0,2.73-.03,3.72-1.76,9,0,6,2,9,6,9,6,5.76,2.28,3.87,6.42,6,6,4.87-.95,4.72-7.99,9-9Z"/>
      <path class="cls-1" d="M292.79,376.82c6.36,10.51-14.09,21.2-15,21-.63-.13,3.73,25.53,3.46,31.69-6.09-13.83-9.46-29.12-9.46-45.19,0-17.85,4.16-34.73,11.56-49.72l.44,.22c-1.12,9.13,.8,22.17,0,27-.71,4.31-7.36,1.8-6,6,1.49,4.64,12.98,5.67,15,9Z"/>
    </g>
  </g>
  <g id="Layer_2" data-name="Layer 2">
    <g class="cls-4">
      <path class="cls-2" d="M466,431c11.42-21.95,12.76-43.9,9-75-2.66-22-7.79-39.81-12-52,7.41,7.22,22.81,24.2,30,51,1.74,6.48,8.57,34.3-3,67-10.65,30.1-30.7,46.8-36,51-27.77,22.03-57.46,23.66-66,24-12.95,.52-23.69-1.28-31-3,13.77-1.91,34.86-6.36,58-18,20.97-10.55,38.79-21.53,51-45Z"/>
    </g>
  </g>
</svg>