<?xml version="1.0" encoding="UTF-8"?>
<svg xmlns="http://www.w3.org/2000/svg" viewBox="0 0 768 768">
  <defs>
    <style>
      .cls-1 {
        fill: #f8d2b2;
      }

      .cls-2 {
        fill: #fa6060;
      }

      .cls-3 {
        fill: #f5b497;
      }

      .cls-4 {
        fill: #a07b3d;
      }

      .cls-5 {
        fill: #c29868;
      }

      .cls-6 {
        fill: #e2a6a6;
      }

      .cls-7 {
        opacity: .5;
      }
    </style>
  </defs>
  <g id="Layer_1" data-name="Layer 1">
    <g>
      <path class="cls-1" d="M636.22,378.4c.05,1.97,.07,3.94,.07,5.92,0,45.82-12.23,88.79-33.61,125.81-12.77-3.91-57.51-14.33-80.39-14.81-57.54-1.19-75.19,25.2-132,33-48.1,6.61-87.35-5.19-120-15-41.89-12.58-100.52-27.54-122.44-41.64-10.06-27.22-15.56-56.65-15.56-87.36,0-3.96,.09-7.9,.28-11.81,8.58,5.73,33.43,16.27,50.72,20.81,21.64,5.69,38.55,3.62,48,3,39.34-2.59,48.44,13.32,117,30,41.56,10.11,73.39,12.82,99,15,48.93,4.17,73.97,6.06,102-3,35.03-11.32,73.6-45.14,86.93-59.92Z"/>
      <path class="cls-3" d="M633.72,348.26c1.42,9.87,2.27,19.93,2.5,30.14-13.33,14.78-51.9,48.6-86.93,59.92-28.03,9.06-53.07,7.17-102,3-25.61-2.18-57.44-4.89-99-15-68.56-16.68-77.66-32.59-117-30-9.45,.62-26.36,2.69-48-3-17.29-4.54-42.14-15.08-50.72-20.81,.56-12.41,2.03-24.58,4.34-36.46l1.38,.27c54.7,20.54,121.19,36.6,153,42,24.03,4.08,38.19,5.15,90,12,60.43,8,71.77,17.29,105,15,7.56-.52,38.23-3.04,75-18,23.18-9.43,59.22-29.74,72-39l.43-.06Z"/>
      <path class="cls-6" d="M633.72,348.26l-.43,.06c-12.78,9.26-48.82,29.57-72,39-36.77,14.96-67.44,17.48-75,18-33.23,2.29-44.57-7-105-15-51.81-6.85-65.97-7.92-90-12-31.81-5.4-98.3-21.46-153-42l-1.38-.27c6.35-32.75,19.05-63.24,36.77-90.14l.61,.41c11.93,8.67,29.44,20.08,50.77,30.88l.2-.03c.58,3.74,1.58,7.47,3.03,11.15,11.19,28.4,44.99,42.18,69,33,7.82-2.99,13.71-8.08,18.16-13.61,3.91,.63,7.86,1.17,11.84,1.61,49.57,5.5,89.31-3.31,114-9,44.03-10.14,117.47-59.03,140.94-71.97,26.82,33.99,45.07,75.04,51.49,119.91Z"/>
      <path class="cls-6" d="M522.29,495.32c22.88,.48,67.62,10.9,80.39,14.81-11.8,20.44-26.39,39.08-43.25,55.38l-1.14-1.19c-6.99,.4-29.44,1.2-42,3-35.21,5.04-56.22,13.46-72,18-32.22,9.27-60.48,6.18-117,0-23.76-2.59-79.77-10.6-117-21l-1.14,1.19c-26.93-26.04-48.07-58.02-61.3-93.83,21.92,14.1,80.55,29.06,122.44,41.64,32.65,9.81,71.9,21.61,120,15,56.81-7.8,74.46-34.19,132-33Z"/>
      <path class="cls-5" d="M559.43,203.14c8.15,7.88,15.77,16.3,22.8,25.21-23.47,12.94-96.91,61.83-140.94,71.97-24.69,5.69-64.43,14.5-114,9-3.98-.44-7.93-.98-11.84-1.61,6.7-8.33,10.12-17.67,11.84-22.39,1.56-4.28,6.16-16.87,5.3-30.65,29.74,.64,55.85-2.21,84.7-5.35,46.59-5.07,68.88-11.98,78-15,23.08-7.65,50.35-22.82,63-30l1.14-1.18Z"/>
      <path class="cls-3" d="M559.43,203.14l-1.14,1.18c-12.65,7.18-39.92,22.35-63,30-9.12,3.02-31.41,9.93-78,15-28.85,3.14-54.96,5.99-84.7,5.35-.49-7.83-2.74-16.05-8.3-23.35-11.24-14.73-29.42-17.13-36-18-4.89-.64-20.93-2.76-36,6-7.62,4.43-14.29,11.22-19.15,19.37h-.01c-14.85-4.02-30.03-8.61-43.84-13.37l-.3-.25c46.2-56.61,116.53-92.75,195.3-92.75,68.05,0,129.81,26.98,175.14,70.82Z"/>
      <path class="cls-5" d="M558.29,564.32l1.14,1.19c-45.33,43.84-107.09,70.81-175.14,70.81s-129.81-26.97-175.14-70.81l1.14-1.19c37.23,10.4,93.24,18.41,117,21,56.52,6.18,84.78,9.27,117,0,15.78-4.54,36.79-12.96,72-18,12.56-1.8,35.01-2.6,42-3Z"/>
      <path class="cls-2" d="M332.59,254.67c.86,13.78-3.74,26.37-5.3,30.65-1.72,4.72-5.14,14.06-11.84,22.39-4.45,5.53-10.34,10.62-18.16,13.61-24.01,9.18-57.81-4.6-69-33-1.45-3.68-2.45-7.41-3.03-11.15-2.14-13.65,1.19-27.33,7.87-38.48h.01c4.86-8.15,11.53-14.94,19.15-19.37,15.07-8.76,31.11-6.64,36-6,6.58,.87,24.76,3.27,36,18,5.56,7.3,7.81,15.52,8.3,23.35Z"/>
      <path class="cls-5" d="M225.26,277.17l-.2,.03c-21.33-10.8-38.84-22.21-50.77-30.88l-.61-.41c4.74-7.21,9.86-14.17,15.31-20.84l.3,.25c13.81,4.76,28.99,9.35,43.84,13.37-6.68,11.15-10.01,24.83-7.87,38.48Z"/>
    </g>
  </g>
  <g id="Layer_2" data-name="Layer 2">
    <g class="cls-7">
      <path class="cls-4" d="M634,347c7.85,52.56-2.96,95.72-12,121-32.61,91.23-107.35,132.31-120,139-14.42,7.63-74.52,37.63-152,27-24.13-3.31-43.61-9.7-57-15,22.93,3.54,58.75,6.36,101-2,25.4-5.02,85.81-17.83,138-70,7.81-7.81,45.9-46.95,64-111,12.22-43.24,9.96-78.85,8-106-3.13-43.28-13.27-78.24-22-102,14.14,17.69,42.99,58.67,52,119Z"/>
    </g>
  </g>
</svg>