<?xml version="1.0" encoding="UTF-8"?>
<svg xmlns="http://www.w3.org/2000/svg" viewBox="0 0 768 768">
  <defs>
    <style>
      .cls-1 {
        fill: #ee7354;
      }

      .cls-2 {
        fill: #b53131;
      }

      .cls-3 {
        fill: #cb5454;
      }

      .cls-4 {
        fill: #733434;
      }

      .cls-5 {
        opacity: .5;
      }
    </style>
  </defs>
  <g id="Layer_1" data-name="Layer 1">
    <g>
      <path class="cls-2" d="M468.29,384.32v.22c-3.18,.68-8.17,1.29-13.79-.04-14.16-3.34-16.18-15.16-25-15-10.7,.19-14.63,17.69-27,17-1.74-.1-1.09-.41-8-2-7.89-1.82-14.66-2.77-17-3-15.73-1.54-48.69,13-48,15,.71,2.07,37.6-5.18,42.79-6.18,9.56-1.84,16.16-3.76,21,0,3.18,2.48,3.24,5.59,6,6,3.31,.5,4.93-3.75,12-9,4.39-3.26,7.59-5.64,12-6,6.34-.52,11.58,3.43,15,6,5.32,4.01,5.27,6.29,9.21,9.18,3.44,2.52,9.15,4.96,19,4l.22,.04c-7.55,38.63-41.59,67.78-82.43,67.78-18.73,0-36.03-6.13-50.01-16.51l.22-.31c17.12,6.93,29.09,6.66,37,5,3.82-.8,9.88-2.6,19-3,7.17-.32,13.09,.36,17,1-8.95-7.99-15.14-8.92-19.21-8.18-2.99,.54-5.46,2.16-12,3-4.04,.52-6.26,.78-9,0-3.73-1.05-4.74-2.98-9-6-2.44-1.73-5.63-3.15-12-6-6.9-3.08-10.35-4.62-15-6-4.14-1.22-10.25-2.63-18-3l-.41,.25c-7.98-12.85-12.59-28.01-12.59-44.25,0-1.38,.03-2.76,.1-4.12,2.47-2.88,5.63-6.86,8.9-11.88,3.55-5.45,5.34-8.26,6-12,.42-2.42,.9-7.91-3-15l-.13-.08c8.52-14.23,21.13-25.73,36.21-32.87,12.64-1.79,18.31,1,21.13,4.13,3.83,4.25,2.43,9.19,8,15,4.09,4.26,6.77,3.61,10,7,6.35,6.67-.85,15.71,4,21,4.03,4.4,13.17,3.7,19,1,6.47-2.99,5.37-6.82,16-16,7.4-6.39,11.45-7.57,14-8,4.34-.74,8.1,.07,10.57,.86,10.81,14.13,17.22,31.8,17.22,50.96Zm-24,36c.91-1.31,5.13-7.37,3-12-1.23-2.65-3.72-3.06-12-6-14.44-5.11-14.7-6.64-18-6-7.86,1.52-7.6,10.33-15,12-7.08,1.6-9.67-5.92-21-9-9.58-2.6-9.72,2.24-30,3-10.12,.38-16.86-.56-27,3-3.82,1.34-8.81,3.16-9,6-.25,3.68,7.59,8.06,15,9,7.81,.99,9.05-2.62,18-3,4.28-.18,10.91,1.88,24,6,10.28,3.24,15.41,4.86,18,6,15.5,6.86,16.88,12.73,24,12,5.04-.51,3.71-3.4,18-12,5.98-3.6,9.09-4.82,12-9Zm-85-68c.74-1.02,5.61-7.75,3-12-1.72-2.79-5.73-2.99-6-3-5.87-.21-10.15,6.22-12,9-1.57,2.36-2.48,4.53-3,6-.83,.54-5.29,3.54-6,9-.34,2.56-.08,7.51,3,9,3.6,1.75,8.43-2.5,9-3,3.09-2.72,2.32-4.48,6-9,2.92-3.59,3.78-2.93,6-6Z"/>
      <path class="cls-1" d="M447.29,408.32c2.13,4.63-2.09,10.69-3,12-2.91,4.18-6.02,5.4-12,9-14.29,8.6-12.96,11.49-18,12-7.12,.73-8.5-5.14-24-12-2.59-1.14-7.72-2.76-18-6-13.09-4.12-19.72-6.18-24-6-8.95,.38-10.19,3.99-18,3-7.41-.94-15.25-5.32-15-9,.19-2.84,5.18-4.66,9-6,10.14-3.56,16.88-2.62,27-3,20.28-.76,20.42-5.6,30-3,11.33,3.08,13.92,10.6,21,9,7.4-1.67,7.14-10.48,15-12,3.3-.64,3.56,.89,18,6,8.28,2.94,10.77,3.35,12,6Z"/>
      <path class="cls-1" d="M362.29,340.32c2.61,4.25-2.26,10.98-3,12-2.22,3.07-3.08,2.41-6,6-3.68,4.52-2.91,6.28-6,9-.57,.5-5.4,4.75-9,3-3.08-1.49-3.34-6.44-3-9,.71-5.46,5.17-8.46,6-9,.52-1.47,1.43-3.64,3-6,1.85-2.78,6.13-9.21,12-9,.27,0,4.28,.21,6,3Z"/>
      <path class="cls-1" d="M440.23,321.66c-.33,1.71-1.06,3.99-2.94,5.66-2.52,2.23-4.5,1.07-9,3-3.34,1.43-3,2.39-9,6-3.1,1.87-4.65,2.8-6,3-4.62,.7-9.47-2.36-12-6-2.68-3.85-.77-5.49-3-9-3.98-6.25-12.05-4.14-15-9-1.39-2.28-1.9-6.48,2.98-14.97,20.7,.47,39.56,8.44,53.96,21.31Z"/>
      <path class="cls-3" d="M312.29,341.32c3.9,7.09,3.42,12.58,3,15-.66,3.74-2.45,6.55-6,12-3.27,5.02-6.43,9-8.9,11.88,.69-14.2,4.89-27.47,11.77-38.96l.13,.08Z"/>
      <path class="cls-3" d="M468.29,384.54c-.01,5.47-.55,10.82-1.57,16l-.22-.04c-9.85,.96-15.56-1.48-19-4-3.94-2.89-3.89-5.17-9.21-9.18-3.42-2.57-8.66-6.52-15-6-4.41,.36-7.61,2.74-12,6-7.07,5.25-8.69,9.5-12,9-2.76-.41-2.82-3.52-6-6-4.84-3.76-11.44-1.84-21,0-5.19,1-42.08,8.25-42.79,6.18-.69-2,32.27-16.54,48-15,2.34,.23,9.11,1.18,17,3,6.91,1.59,6.26,1.9,8,2,12.37,.69,16.3-16.81,27-17,8.82-.16,10.84,11.66,25,15,5.62,1.33,10.61,.72,13.79,.04Z"/>
      <path class="cls-3" d="M407.5,454.5c-3.91-.64-9.83-1.32-17-1-9.12,.4-15.18,2.2-19,3-7.91,1.66-19.88,1.93-37-5l-.22,.31c-8.52-6.31-15.79-14.21-21.4-23.24l.41-.25c7.75,.37,13.86,1.78,18,3,4.65,1.38,8.1,2.92,15,6,6.37,2.85,9.56,4.27,12,6,4.26,3.02,5.27,4.95,9,6,2.74,.78,4.96,.52,9,0,6.54-.84,9.01-2.46,12-3,4.07-.74,10.26,.19,19.21,8.18Z"/>
      <path class="cls-3" d="M451.07,333.36c-2.47-.79-6.23-1.6-10.57-.86-2.55,.43-6.6,1.61-14,8-10.63,9.18-9.53,13.01-16,16-5.83,2.7-14.97,3.4-19-1-4.85-5.29,2.35-14.33-4-21-3.23-3.39-5.91-2.74-10-7-5.57-5.81-4.17-10.75-8-15-2.82-3.13-8.49-5.92-21.13-4.13,10.89-5.16,23.07-8.05,35.92-8.05,.66,0,1.32,0,1.98,.03-4.88,8.49-4.37,12.69-2.98,14.97,2.95,4.86,11.02,2.75,15,9,2.23,3.51,.32,5.15,3,9,2.53,3.64,7.38,6.7,12,6,1.35-.2,2.9-1.13,6-3,6-3.61,5.66-4.57,9-6,4.5-1.93,6.48-.77,9-3,1.88-1.67,2.61-3.95,2.94-5.66,3.97,3.54,7.6,7.47,10.84,11.7Z"/>
    </g>
  </g>
  <g id="Layer_2" data-name="Layer 2">
    <g class="cls-5">
      <path class="cls-4" d="M466,365c1.61,6.76,6.09,29.21-5,54-2.85,6.37-15.37,32.23-46,44-31.61,12.15-59.02,.27-64-2,9.64,1.02,30.91,1.92,54-9,9.01-4.26,30.24-14.3,42-38,14.47-29.17,4.33-58.39,1-68-5.38-15.52-13.5-26.56-19-33,5.44,3.54,29.34,19.91,37,52Z"/>
    </g>
  </g>
</svg>