<?xml version="1.0" encoding="UTF-8"?>
<svg xmlns="http://www.w3.org/2000/svg" viewBox="0 0 768 768">
  <defs>
    <style>
      .cls-1 {
        fill: #8c6239;
      }

      .cls-2 {
        fill: #735c40;
      }

      .cls-3 {
        fill: #c7b299;
      }

      .cls-4 {
        fill: #c69c6d;
      }

      .cls-5 {
        opacity: .5;
      }
    </style>
  </defs>
  <g id="Layer_1" data-name="Layer 1">
    <g>
      <path class="cls-3" d="M428.13,369.05c.46,.93,.03,2.06-1.26,2.11-1.29,.04-2.64-1.06-3.24-1.94-.44-.66-.76-1.65-.24-2.05,.88-.69,4.01,.4,4.74,1.88Z"/>
      <path class="cls-4" d="M420.5,381.5c2.69,1.21,3.97,5.66,3,9-.87,2.99-3.34,4.44-6,6-2.94,1.72-8.61,5.04-15,3-1.06-.34-8.6-2.9-9-9-.26-4,2.63-8.28,6-9,3.31-.71,4.36,2.6,9,3,5.95,.51,8.58-4.54,12-3Z"/>
      <path class="cls-4" d="M410,338c5.01-1.12,14.88,14.48,12,18-2.02,2.47-12.17,1.19-15-6-1.95-4.96,.11-11.36,3-12Z"/>
      <path class="cls-1" d="M384.5,315.5c26.51,0,48,21.49,48,48s-21.49,48-48,48-48-21.49-48-48,21.49-48,48-48Zm42.37,55.66c1.29-.05,1.72-1.18,1.26-2.11-.73-1.48-3.86-2.57-4.74-1.88-.52,.4-.2,1.39,.24,2.05,.6,.88,1.95,1.98,3.24,1.94Zm-3.37,19.34c.97-3.34-.31-7.79-3-9-3.42-1.54-6.05,3.51-12,3-4.64-.4-5.69-3.71-9-3-3.37,.72-6.26,5-6,9,.4,6.1,7.94,8.66,9,9,6.39,2.04,12.06-1.28,15-3,2.66-1.56,5.13-3.01,6-6Zm-1.5-34.5c2.88-3.52-6.99-19.12-12-18-2.89,.64-4.95,7.04-3,12,2.83,7.19,12.98,8.47,15,6Zm-4.78,20.26c1.81-1.12,1.46-3.04,0-3.94-2.35-1.44-7.8-.36-8.48,1.31-.4,.99,.92,2.08,2.12,2.63,1.62,.72,4.53,1.13,6.36,0Zm-16.25-33.74c.75-.7,.6-1.89,0-2.45-.96-.9-3.21-.23-3.49,.82-.16,.61,.38,1.29,.87,1.63,.67,.45,1.87,.71,2.62,0Zm-6-10.49c1.97-3.18,6.3-10.18,4.04-12.8-1.53-1.75-5.33-.72-8.49,.14-2.99,.82-11.85,3.23-14.67,10.85-.46,1.25-2.04,5.51,.14,8.48,2.29,3.13,7.44,3.04,10.64,1.95,3.81-1.3,5.67-4.29,8.34-8.62Zm-1.47,34.47c2.57-2.56,2.06-6.96,0-9-3.32-3.3-11.04-.83-12,3-.57,2.26,1.29,4.76,3,6,2.29,1.66,6.4,2.58,9,0Zm-6.75,37.76c1.08-1.11,.86-3.01,0-3.9-1.4-1.43-4.63-.36-5.04,1.3-.23,.98,.55,2.06,1.26,2.6,.96,.72,2.69,1.12,3.78,0Zm-5.78,2.75c.71-.57,.57-1.56,0-2.02-.92-.73-3.05-.18-3.31,.67-.16,.51,.36,1.07,.83,1.35,.63,.37,1.76,.58,2.48,0Zm-17.47-7.51c7.33-1.55,13.84-10.46,12-18-1.03-4.22-4.85-8.75-9-9-3.97-.25-5.22,3.61-9,3-3.63-.59-3.92-4.37-9-6-1.21-.39-4.21-1.36-6,0-3.25,2.46-.37,10.94,0,12,2.56,7.33,10.82,20.14,21,18Zm6.03-36.28c1.08-1.11,.86-3.02,0-3.9-1.4-1.43-4.63-.36-5.04,1.3-.23,.98,.55,2.06,1.26,2.6,.96,.72,2.69,1.12,3.78,0Zm-5.43-31.96c.52-1.12,.41-3.04,0-3.94-.67-1.44-2.22-.36-2.41,1.31-.11,.99,.26,2.08,.6,2.63,.46,.72,1.29,1.13,1.81,0Zm-5.1,18.74c3.33-.88,5.17-6.15,3-9-2-2.64-7.02-2.68-9,0-1.32,1.78-.97,4.31,0,6,1.19,2.07,3.75,3.59,6,3Zm-13.93,4.25c.56-.63,.45-1.72,0-2.22-.72-.81-2.39-.2-2.6,.74-.12,.56,.28,1.18,.65,1.48,.5,.41,1.39,.64,1.95,0Zm-3.92,4.11c.44-1.11,.35-3.02,0-3.9-.57-1.43-1.89-.36-2.06,1.3-.09,.98,.23,2.06,.52,2.6,.39,.72,1.1,1.12,1.54,0Z"/>
      <path class="cls-3" d="M417.22,372.32c1.46,.9,1.81,2.82,0,3.94-1.83,1.13-4.74,.72-6.36,0-1.2-.55-2.52-1.64-2.12-2.63,.68-1.67,6.13-2.75,8.48-1.31Z"/>
      <path class="cls-3" d="M400.97,340.07c.6,.56,.75,1.75,0,2.45-.75,.71-1.95,.45-2.62,0-.49-.34-1.03-1.02-.87-1.63,.28-1.05,2.53-1.72,3.49-.82Z"/>
      <path class="cls-4" d="M399.01,319.23c2.26,2.62-2.07,9.62-4.04,12.8-2.67,4.33-4.53,7.32-8.34,8.62-3.2,1.09-8.35,1.18-10.64-1.95-2.18-2.97-.6-7.23-.14-8.48,2.82-7.62,11.68-10.03,14.67-10.85,3.16-.86,6.96-1.89,8.49-.14Z"/>
      <path class="cls-4" d="M393.5,357.5c2.06,2.04,2.57,6.44,0,9-2.6,2.58-6.71,1.66-9,0-1.71-1.24-3.57-3.74-3-6,.96-3.83,8.68-6.3,12-3Z"/>
      <path class="cls-3" d="M386.75,400.36c.86,.89,1.08,2.79,0,3.9-1.09,1.12-2.82,.72-3.78,0-.71-.54-1.49-1.62-1.26-2.6,.41-1.66,3.64-2.73,5.04-1.3Z"/>
      <path class="cls-3" d="M380.97,404.99c.57,.46,.71,1.45,0,2.02-.72,.58-1.85,.37-2.48,0-.47-.28-.99-.84-.83-1.35,.26-.85,2.39-1.4,3.31-.67Z"/>
      <path class="cls-4" d="M375.5,381.5c1.84,7.54-4.67,16.45-12,18-10.18,2.14-18.44-10.67-21-18-.37-1.06-3.25-9.54,0-12,1.79-1.36,4.79-.39,6,0,5.08,1.63,5.37,5.41,9,6,3.78,.61,5.03-3.25,9-3,4.15,.25,7.97,4.78,9,9Z"/>
      <path class="cls-3" d="M369.53,359.32c.86,.88,1.08,2.79,0,3.9-1.09,1.12-2.82,.72-3.78,0-.71-.54-1.49-1.62-1.26-2.6,.41-1.66,3.64-2.73,5.04-1.3Z"/>
      <path class="cls-3" d="M364.1,327.32c.41,.9,.52,2.82,0,3.94-.52,1.13-1.35,.72-1.81,0-.34-.55-.71-1.64-.6-2.63,.19-1.67,1.74-2.75,2.41-1.31Z"/>
      <path class="cls-4" d="M362,341c2.17,2.85,.33,8.12-3,9-2.25,.59-4.81-.93-6-3-.97-1.69-1.32-4.22,0-6,1.98-2.68,7-2.64,9,0Z"/>
      <path class="cls-3" d="M345.07,352.03c.45,.5,.56,1.59,0,2.22-.56,.64-1.45,.41-1.95,0-.37-.3-.77-.92-.65-1.48,.21-.94,1.88-1.55,2.6-.74Z"/>
      <path class="cls-3" d="M341.15,354.46c.35,.88,.44,2.79,0,3.9-.44,1.12-1.15,.72-1.54,0-.29-.54-.61-1.62-.52-2.6,.17-1.66,1.49-2.73,2.06-1.3Z"/>
    </g>
  </g>
  <g id="Layer_8" data-name="Layer 8">
    <path class="cls-2" d="M424.45,387.65c1,3-4.71,7.71-6,9-1,1-2.86,3.84-10,4-2.42,.05-4.48-.48-6.03-1.08,1.83,.33,4.52,.28,7.53-.42,3.35-.77,5.44-2.67,8-5,1.99-1.8,3.24-2.97,4-5,.98-2.63,.55-5.11,.15-6.51,.71,1.16,1.67,2.96,2.35,5.01Z"/>
  </g>
  <g id="Layer_2" data-name="Layer 2">
    <g class="cls-5">
      <path class="cls-2" d="M431.45,355.65c.81,4.75,2.28,17.62-5,31-9.33,17.13-25.95,22.14-29,23-11.63,3.28-21.51,1.23-26,0,4.12,.41,18.3,1.29,32-8,12.08-8.19,16.61-19.41,18-23,5.96-15.36,2.42-28.89,1-34-2.58-9.32-6.98-16.06-10-20,3.04,2.31,15.84,12.56,19,31Z"/>
    </g>
  </g>
  <g id="Layer_3" data-name="Layer 3">
    <path class="cls-2" d="M375.45,380.65c.25,1.34,1.48,3.47,1,6-.96,5.11-5.1,8.18-6,9-1.13,1.03-3.85,3.53-8,4-6.67,.75-11.43-4.37-12-5,1.03,.81,3.89,2.85,8,3,4.53,.17,7.71-2.06,9-3,3.37-2.44,4.85-5.57,6-8,1.12-2.36,1.69-4.48,2-6Z"/>
  </g>
  <g id="Layer_4" data-name="Layer 4">
    <path class="cls-2" d="M361.95,340.65s2,2.11,1,5.27c-.57,1.81-1.88,3.73-4,4.22-2.3,.53-4.79-.75-6-3.16,.47,.32,1.97,1.26,4,1.05,.5-.05,2.57-.25,4-2.11,1.71-2.23,1.08-4.97,1-5.27Z"/>
  </g>
  <g id="Layer_5" data-name="Layer 5">
    <path class="cls-2" d="M399.45,319.65c.5,.5,.3,2.37,0,4-.43,2.34-1.7,3.58-3,6-3.5,6.5-3.07,6.12-5,8-1.36,1.32-4.04,3.95-8,4-2.87,.03-5.03-1.31-6-2,.75,.39,2.17,1,4,1,.37,0,1.87-.03,4-1,2.87-1.32,4.58-3.3,6-5,1.37-1.64,.67-1.18,4-6,1.53-2.21,2.3-3.21,3-5,.64-1.62,.89-3.05,1-4Z"/>
    <path class="cls-2" d="M382.45,340.65c1.24,.06,3.27,.04,4,0-.41,.29-1.09,.7-2,1-.43,.14-4.2,1.32-7-1-.46-.38-1.43-1.31-2-3,.7,1.09,1.47,1.68,2,2,1.31,.8,2.62,.88,5,1Z"/>
  </g>
  <g id="Layer_6" data-name="Layer 6">
    <path class="cls-2" d="M395.45,359.65c.66,1.65,.25,3.13,0,4-.25,.88-1.12,3.96-4,5-2.33,.84-5.1,.05-7-2,.58,.36,2.05,1.15,4,1,1.41-.11,2.4-.66,3-1,.93-.53,2.33-1.32,3-3,.72-1.79,.2-3.38,0-4-.52-1.6-1.52-2.58-2-3,.45,.2,2.21,1.03,3,3Z"/>
  </g>
  <g id="Layer_7" data-name="Layer 7">
    <path class="cls-2" d="M422.95,354.15c.5,1.5,.11,1.73,0,2-.67,1.62-3.8,1.42-4.5,1.5-3.8,.43-6.93-2.06-8-3,.66,.28,1.69,.67,3,1,2.33,.59,4.64,1.17,6,0,.68-.58,.87-1.39,1-2,.46-2.1-.37-3.94-2-7-1.08-2.03-2.41-4.39-4-7,3.81,4.18,6.66,7.4,7.5,9.5,.65,1.63,.89,4.66,1,5Z"/>
  </g>
</svg>