<?xml version="1.0" encoding="UTF-8"?>
<svg xmlns="http://www.w3.org/2000/svg" viewBox="0 0 768 768">
  <defs>
    <style>
      .cls-1 {
        fill: #c1e2ee;
      }

      .cls-2 {
        fill: #252d5e;
      }

      .cls-3 {
        fill: #748edf;
      }

      .cls-4 {
        fill: #4d5794;
      }

      .cls-5 {
        fill: #313a6f;
      }

      .cls-6 {
        opacity: .5;
      }
    </style>
  </defs>
  <g id="Layer_1" data-name="Layer 1">
    <g>
      <path class="cls-5" d="M523.5,392.5h.05c-1.14,19.74-6.38,38.38-14.89,55.08l-.16-.08c-6.18-.95-15.15-2.16-26-3-37.76-2.94-65.53,1.06-105,7-50.43,7.59-84.44,12.82-105,16l-.14,.1c-5.79-7.78-10.8-16.18-14.89-25.09h.03c23.09,1.23,42.53,.29,57-1.01,19.8-1.78,47.2-4.42,80-16,22.36-7.89,17.7-9.52,40-17,8.02-2.69,35.83-11.62,74-15,6.18-.55,11.35-.84,15-1Z"/>
      <path class="cls-1" d="M363.5,405.5c4.62,3.34,7.04,10.4,5,15-3.24,7.3-17.73,8.43-28,5-11.46-3.83-10.81-11.05-22-15-5.89-2.08-8.07-.38-30,1-19.96,1.26-28.39,2.97-32-2-4.26-5.88,1.64-16.38,2-17,4.42-7.66,11.96-10.48,19-13,11.03-3.95,28.29-10.12,41-2,12.65,8.08,8.99,22.78,21,27,9.54,3.35,16.83-4.19,24,1Z"/>
      <path class="cls-5" d="M440.61,256.67c4.01,1.76,7.92,3.72,11.73,5.85-36.37,3.5-62.47,13.37-79.84,21.98-19.2,9.51-29.33,18.27-51,25-23.33,7.24-44.28,7.25-58.6,6.03,4.7-8.28,10.23-16.03,16.47-23.14l.13,.11c10.15,.37,25.2,.18,43-3,19.8-3.54,32.61-8.91,47-14,16.51-5.83,40.36-13.15,71.11-18.83Zm-141.11,52.83c1.78-2.93,1.17-7.73-1-9-2.19-1.28-5,1.61-8,0-1.74-.93-1.4-2.23-3-3-2.99-1.45-8.83,.81-10,5-.97,3.46,1.7,6.65,2,7,4.8,5.57,16.74,5.36,20,0Z"/>
      <path class="cls-3" d="M298.5,300.5c2.17,1.27,2.78,6.07,1,9-3.26,5.36-15.2,5.57-20,0-.3-.35-2.97-3.54-2-7,1.17-4.19,7.01-6.45,10-5,1.6,.77,1.26,2.07,3,3,3,1.61,5.81-1.28,8,0Z"/>
      <path class="cls-3" d="M508.5,447.5l.16,.08c-9.41,18.45-22.79,34.52-39.03,47.09l-.13-.17c-13.89-7.23-64.24-31.28-120-13-16.51,5.42-29.72,13.3-39.7,20.78-14.51-9.17-27.21-20.95-37.44-34.68l.14-.1c20.56-3.18,54.57-8.41,105-16,39.47-5.94,67.24-9.94,105-7,10.85,.84,19.82,2.05,26,3Zm-36,30c7.98-2.36,14.9-8.98,14-13-.62-2.77-4.61-2.76-14-8-8.65-4.83-7.37-6-11-7-9.95-2.73-13.57,7.74-28,8-7.33,.13-11.99-2.46-17,1-.32,.22-4.61,3.25-4,6,.87,3.94,10.83,2.96,26,6,19.94,4,24.01,9.96,34,7Z"/>
      <path class="cls-3" d="M497.5,361.5c3.43,6.1,1.81,14.51-2,20-3.66,5.27-9.35,7.86-27,11-22.21,3.95-26.42,2.19-47,5-21.01,2.87-32.13,6.86-35,2-1.69-2.88,.09-7.38,2-10,5.28-7.25,13.97-3.47,27-8,13.51-4.69,12.04-11.48,31-21,6.26-3.14,11.92-5.92,20-7,4.45-.59,24.66-3.29,31,8Z"/>
      <path class="cls-3" d="M515.38,336.5c-37.59-1.34-63.77,6.98-80.88,15-22.66,10.61-26.61,19.36-46,23-27.86,5.23-40.43-8.93-72-12-16.55-1.61-40.72-.4-71.48,13.76,1.03-18.05,5.49-35.18,12.74-50.75,47.64,1.23,79.9-9.12,100.74-19.01,17.89-8.49,28.67-17.26,50-19,9.67-.79,15.58,.35,58,4,9.95,.85,18.15,1.53,23.65,1.97,10.82,12.59,19.43,27.13,25.23,43.03Z"/>
      <path class="cls-4" d="M523.79,384.32c0,2.75-.08,5.47-.24,8.18h-.05c-3.65,.16-8.82,.45-15,1-38.17,3.38-65.98,12.31-74,15-22.3,7.48-17.64,9.11-40,17-32.8,11.58-60.2,14.22-80,16-14.47,1.3-33.91,2.24-57,1h-.03c-8.14-17.7-12.68-37.41-12.68-58.18,0-2.71,.08-5.39,.23-8.06,30.76-14.16,54.93-15.37,71.48-13.76,31.57,3.07,44.14,17.23,72,12,19.39-3.64,23.34-12.39,46-23,17.11-8.02,43.29-16.34,80.88-15,5.44,14.91,8.41,31.02,8.41,47.82Zm-28.29-2.82c3.81-5.49,5.43-13.9,2-20-6.34-11.29-26.55-8.59-31-8-8.08,1.08-13.74,3.86-20,7-18.96,9.52-17.49,16.31-31,21-13.03,4.53-21.72,.75-27,8-1.91,2.62-3.69,7.12-2,10,2.87,4.86,13.99,.87,35-2,20.58-2.81,24.79-1.05,47-5,17.65-3.14,23.34-5.73,27-11Zm-127,39c2.04-4.6-.38-11.66-5-15-7.17-5.19-14.46,2.35-24-1-12.01-4.22-8.35-18.92-21-27-12.71-8.12-29.97-1.95-41,2-7.04,2.52-14.58,5.34-19,13-.36,.62-6.26,11.12-2,17,3.61,4.97,12.04,3.26,32,2,21.93-1.38,24.11-3.08,30-1,11.19,3.95,10.54,11.17,22,15,10.27,3.43,24.76,2.3,28-5Z"/>
      <path class="cls-4" d="M486.5,464.5c.9,4.02-6.02,10.64-14,13-9.99,2.96-14.06-3-34-7-15.17-3.04-25.13-2.06-26-6-.61-2.75,3.68-5.78,4-6,5.01-3.46,9.67-.87,17-1,14.43-.26,18.05-10.73,28-8,3.63,1,2.35,2.17,11,7,9.39,5.24,13.38,5.23,14,8Z"/>
      <path class="cls-4" d="M452.34,262.52c14.36,8.04,27.16,18.55,37.81,30.95-5.5-.44-13.7-1.12-23.65-1.97-42.42-3.65-48.33-4.79-58-4-21.33,1.74-32.11,10.51-50,19-20.84,9.89-53.1,20.24-100.74,19.01,1.58-3.4,3.3-6.73,5.14-9.98,14.32,1.22,35.27,1.21,58.6-6.03,21.67-6.73,31.8-15.49,51-25,17.37-8.61,43.47-18.48,79.84-21.98Z"/>
      <path class="cls-4" d="M469.5,494.5l.13,.17c-23.59,18.28-53.19,29.15-85.34,29.15-27.4,0-52.94-7.89-74.49-21.54,9.98-7.48,23.19-15.36,39.7-20.78,55.76-18.28,106.11,5.77,120,13Z"/>
      <path class="cls-4" d="M440.61,256.67c-30.75,5.68-54.6,13-71.11,18.83-14.39,5.09-27.2,10.46-47,14-17.8,3.18-32.85,3.37-43,3l-.13-.11c25.56-29.16,63.09-47.57,104.92-47.57,20.04,0,39.09,4.23,56.32,11.85Z"/>
    </g>
  </g>
  <g id="Layer_2" data-name="Layer 2">
    <g class="cls-6">
      <path class="cls-2" d="M516,339c17.74,51.24-1.35,95.02-5,103-20.06,43.88-59.67,69.33-96,78-18.81,4.49-35.11,4.09-46,3,13.01-1.29,60.99-7.64,97-48,8.71-9.76,24.85-30.62,32-61,7.39-31.4,1.47-57.19-4-81-5.33-23.2-12.98-41.56-19-54,10.05,8.66,30,28.24,41,60Z"/>
    </g>
  </g>
</svg>