<?xml version="1.0" encoding="UTF-8"?>
<svg xmlns="http://www.w3.org/2000/svg" viewBox="0 0 768 768">
  <defs>
    <style>
      .cls-1 {
        fill: #695e5a;
      }

      .cls-2 {
        fill: #85745a;
      }

      .cls-3 {
        fill: #ae9c95;
      }

      .cls-4 {
        fill: #ccbda6;
      }

      .cls-5 {
        opacity: .5;
      }
    </style>
  </defs>
  <g id="Layer_1" data-name="Layer 1">
    <g>
      <path class="cls-3" d="M402.29,399.32c1.39-1.11,5.38,3.78,6,3-5.47,7.29-14.18,12-24,12-8.29,0-15.79-3.36-21.21-8.79l.21-.21c-1.18-3.45-2.19-7.86-2.84-11.98,6.46,.88,17.37,.52,20.84-.02,3.91-.6,7.8-1.7,9,0,1.06,1.51-1.14,3.58,0,6,1,2.12,3.88,3.07,6,3,2.34-.07,4-1.4,6-3Z"/>
      <path class="cls-3" d="M395.91,362.03c.2,.37,.24,.78,.16,1.26-.19,1.21-1.19,2.8-2.56,5-1.46,2.32-2.81,4.48-5.39,6.56-2.38,1.91-6.73,5.41-11.65,4.15-3.7-.94-6.42-5.37-7.18-6.68l-.11-.1c2.22-2.51,3.29-4.18,3.11-5.9-.33-3.11-4.08-5.13-6-6,3.97-2.99,8.71-5.01,13.87-5.71,1.36,1.89,3.43,4.1,6.5,5.31,4.51,1.78,8.24,.23,9.25,2.11Z"/>
      <path class="cls-4" d="M405.29,378.32c1.07,1.59,.56,3.67,0,6-.23,.93-.96,3.53-3,6-.48,.57-.59,.62-3,3-1.28,1.27,3.68,5.31,3,6-2,1.6-3.66,2.93-6,3-2.12,.07-5-.88-6-3-1.14-2.42,1.06-4.49,0-6-1.2-1.7-5.09-.6-9,0-3.47,.54-14.38,.9-20.84,.02-.87-5.56-1.08-10.58-.16-12.02,1.16-1.81,2.01-1.79,6-6,1.11-1.17,2.08-2.19,2.89-3.1l.11,.1c.76,1.31,3.48,5.74,7.18,6.68,4.92,1.26,9.27-2.24,11.65-4.15,2.58-2.08,3.93-4.24,5.39-6.56,1.37-2.2,2.37-3.79,2.56-5l.22,.03c.29,2,1.02,10.44,3,12,2.35,1.85,4.68,1.05,6,3Z"/>
      <path class="cls-2" d="M363.08,405.53c-5.43-5.43-8.79-12.93-8.79-21.21,0-9.82,4.71-18.53,12-24,1.92,.87,5.67,2.89,6,6,.18,1.72-.89,3.39-3.11,5.9-.81,.91-1.78,1.93-2.89,3.1-3.99,4.21-4.84,4.19-6,6-.92,1.44-.71,6.46,.16,12.02,.65,4.12,1.66,8.53,2.84,11.98l-.21,.21Z"/>
      <path class="cls-2" d="M414.29,384.32c0,6.75-2.23,12.98-6,18-.62,.78-4.61-4.11-6-3,.68-.69-4.28-4.73-3-6,2.41-2.38,2.52-2.43,3-3,2.04-2.47,2.77-5.07,3-6,.56-2.33,1.07-4.41,0-6-1.32-1.95-3.65-1.15-6-3-1.98-1.56-2.71-10-3-12l-.22-.03c.08-.48,.04-.89-.16-1.26-1.01-1.88-4.74-.33-9.25-2.11-3.07-1.21-5.14-3.42-6.5-5.31,1.35-.19,2.73-.29,4.13-.29,16.57,0,30,13.43,30,30Z"/>
    </g>
  </g>
  <g id="Layer_2" data-name="Layer 2">
    <g class="cls-5">
      <path class="cls-1" d="M412,373c.61,1.61,5.23,14.55-2,27-1.26,2.17-4.52,7.94-12.5,11.5-5.39,2.41-10.69,2.84-14.04,2.72,3.65-.52,9.24-1.99,14.54-6.22,6.73-5.38,9.04-12.1,10-15,3.16-9.55,1.08-17.88,0-22-.85-3.23-1.96-5.94-3-8.08,2.25,2.16,5.21,5.33,7,10.08Z"/>
    </g>
  </g>
</svg>