<?xml version="1.0" encoding="UTF-8"?>
<svg xmlns="http://www.w3.org/2000/svg" viewBox="0 0 768 768">
  <defs>
    <style>
      .cls-1 {
        fill: #f8d469;
      }

      .cls-2 {
        fill: #f8e969;
      }

      .cls-3 {
        fill: #eca51d;
      }

      .cls-4 {
        fill: #c19237;
      }

      .cls-5 {
        fill: #d9ae2e;
      }

      .cls-6 {
        fill: none;
        stroke: #f8e969;
        stroke-miterlimit: 10;
        stroke-width: 5px;
      }

      .cls-7 {
        opacity: .5;
      }
    </style>
  </defs>
  <g id="Layer_1" data-name="Layer 1">
    <g>
      <path class="cls-1" d="M568.89,526.4c-14.1-4.12-52.7-11.76-77.86-11.96-44.86-.35-69.58,13.74-105,21-27.69,5.68-124.67,11.37-177-3l-.38,.33c-3.52-4.01-6.48-7.78-8.84-11.18-4.07-5.86-10.98-17.31-18.02-31.77,60.57,1.35,132.86-1.84,210.09-10.14,81.37-8.74,156.17-21.87,216.8-37.04-7.45,30.47-21.08,58.97-39.79,83.76Z"/>
      <path class="cls-4" d="M568.89,526.4c-2.53,3.36-5.15,6.64-7.87,9.86l-.99-.82c-17.91,6.75-51.85,15.36-87,18-24.44,1.84-28.92-.97-66,0-45.7,1.2-54.25,5.86-87,6-19.28,.09-62.06-4.4-96-12l-.51,.5c-5.7-5.27-10.68-10.4-14.87-15.17l.38-.33c52.33,14.37,149.31,8.68,177,3,35.42-7.26,60.14-21.35,105-21,25.16,.2,63.76,7.84,77.86,11.96Z"/>
      <path class="cls-2" d="M607.15,328.42c-.44-1.61-.89-3.21-1.37-4.8,91.53,3.71,151.92,18.58,154.48,42.35,2.65,24.62-57.37,53.1-151.58,76.67-60.63,15.17-135.43,28.3-216.8,37.04-77.23,8.3-149.52,11.49-210.09,10.14-102.4-2.28-171.32-17.53-174.05-42.95-2.63-24.47,56.65-52.76,149.87-76.24-.31,3.38-.53,6.67-.66,9.87-44.29,13.77-70.59,29-69.31,42.94,1.31,14.28,31.32,24.65,79.36,30.05,53.17,5.98,128.42,5.89,211.3-1.69,99.65-9.11,186.49-26.87,236.26-46.29,29.04-11.33,45.46-23.23,44.45-34.32-.99-10.83-18.49-19.41-47.84-25.27-.43-2.29-.9-4.59-1.41-6.89-.28-1.29-.58-2.57-.89-3.84-.54-2.28-1.11-4.53-1.72-6.77Z"/>
      <path class="cls-1" d="M611.17,345.92c3.8,20.08,4.85,40.07,3.39,59.59-49.77,19.42-136.61,37.18-236.26,46.29-82.88,7.58-158.13,7.67-211.3,1.69-1.67-5.17-3.18-10.43-4.45-15.73-1.65-6.88-2.7-12.96-2.85-13.84-1.79-10.4-3.53-25.42-2.75-43.42,.13-3.2,.35-6.49,.66-9.87,.31-3.31,.7-6.7,1.2-10.17,.75-5.22,1.58-9.03,2.2-11.98l.37,.08c6.64,11.9,18.02,28.64,36.91,43.36,59.94,46.72,139.72,29.76,149.37,27.56,20.44-4.66,34.25-11.39,47.13-19.75,11.45-6.01,30.65-14.67,55.67-18.74,44.32-7.21,65.97,6.63,99.95-3.6,14.61-4.4,36.07-14.62,58.46-42.2,.31,1.27,.61,2.55,.89,3.84,.51,2.3,.98,4.6,1.41,6.89Z"/>
      <path class="cls-3" d="M607.15,328.42c.61,2.24,1.18,4.49,1.72,6.77-22.39,27.58-43.85,37.8-58.46,42.2-33.98,10.23-55.63-3.61-99.95,3.6-25.02,4.07-44.22,12.73-55.67,18.74,5.16-3.35,10.18-6.96,15.41-10.81l.02,.03c25.51-13.97,47.55-20.68,63.09-24.22,37.66-8.6,59.47-3.71,95.26-16.75,17.26-6.28,30.28-14.01,38.58-19.56Z"/>
      <path class="cls-1" d="M605.78,323.62c.48,1.59,.93,3.19,1.37,4.8-8.3,5.55-21.32,13.28-38.58,19.56-35.79,13.04-57.6,8.15-95.26,16.75-15.54,3.54-37.58,10.25-63.09,24.22l-.02-.03c17.07-12.54,36.44-27.57,70.87-44.07,47.54-22.79,90.61-32.5,119.07-37.13l.23-.09c1.99,5.2,3.8,10.53,5.41,15.99Z"/>
      <path class="cls-4" d="M394.79,399.73c-12.88,8.36-26.69,15.09-47.13,19.75-9.65,2.2-89.43,19.16-149.37-27.56-18.89-14.72-30.27-31.46-36.91-43.36l-.37-.08s.01-.05,.01-.07c0,0,1.18-5.65,3.54-14.11,34.41,24.27,64.74,32.82,85.53,36.24,73.33,12.06,121.32-24.32,252.07-57.46,39.06-9.9,71.42-15.94,92.16-19.44l.13-.06c2.12,4.57,4.1,9.26,5.92,14.05l-.23,.09c-28.46,4.63-71.53,14.34-119.07,37.13-34.43,16.5-53.8,31.53-70.87,44.07-5.23,3.85-10.25,7.46-15.41,10.81Z"/>
      <path class="cls-1" d="M594.45,293.58l-.13,.06c-20.74,3.5-53.1,9.54-92.16,19.44-130.75,33.14-178.74,69.52-252.07,57.46-20.79-3.42-51.12-11.97-85.53-36.24,2.68-9.63,6.87-22.9,12.56-35.65,6.89-15.42,59.78-112.22,159.67-133.86,93.04-20.15,210.57,27.4,257.66,128.79Z"/>
      <path class="cls-1" d="M560.03,535.44l.99,.82c-31.27,37.04-74.51,64.48-125.5,75.74-91.61,20.23-170.76-25.92-212-64.06l.51-.5c33.94,7.6,76.72,12.09,96,12,32.75-.14,41.3-4.8,87-6,37.08-.97,41.56,1.84,66,0,35.15-2.64,69.09-11.25,87-18Z"/>
    </g>
  </g>
  <g id="Layer_4" data-name="Layer 4">
    <g>
      <path class="cls-3" d="M365,565c1.36,2.05,1.58,5.38,0,7-1.33,1.36-2.9,.44-11,0-4.2-.23-5.46-.07-6-1-.97-1.66,1.26-5.2,4-7,3.84-2.53,10.48-2.8,13,1Z"/>
      <path class="cls-3" d="M350.56,580.45c2.1-1.8,4.45-1.25,4.13,2.44-.17,1.98-1.13,4.98-2.17,6.24-.88,1.05-1.98,3.64-4.61,2.28-1.36-.7-.98-4.3-.88-5.19,.18-1.59,2.04-4.49,3.53-5.77Z"/>
      <path class="cls-3" d="M334.7,576.36c6,4.74,7.84,16.12,3.7,21.22-6.16,7.59-26.99,2.97-39.55-6.3-5.86-4.32-5.95-6.73-13.03-10.92-10.37-6.13-18.53-5.89-19.31-10.2-.54-3.05,2.94-6.45,5.77-7.98,6.5-3.52,14.68,.05,23.69,3.97,6.57,2.86,5.6,3.38,10.15,5.21,14.28,5.71,21.98-.22,28.58,5Z"/>
    </g>
  </g>
  <g id="Layer_2" data-name="Layer 2">
    <g class="cls-7">
      <path class="cls-5" d="M615,375c6.38,98.19-54.81,162.63-65,173-5.1,5.19-74.16,73.32-174,68-22.84-1.22-41.45-5.97-54-10v-.5c30.08,.03,84.83-4.02,143.5-34,30.54-15.61,71.3-36.44,98-82,36.82-62.84,22.91-131.8,15-171-8.18-40.56-22.6-72.04-33.68-92.4l.18-.1c12.59,12.05,64.5,64.43,70,149Z"/>
    </g>
  </g>
  <g id="Layer_3" data-name="Layer 3">
    <path class="cls-2" d="M578.54,428.2c17.84-.11,35.68-.22,53.52-.33,1.66-.01,2.08-2.54,.4-2.95-4.39-1.06-9.04-.72-13.51-.46s-9.19,.73-13.76,1.34c-9.25,1.24-18.41,3.08-27.51,5.14l.8,2.89c12.86-3.35,25.82-6.35,38.85-8.99,1.91-.39,1.08-3.19-.8-2.89-12.01,1.93-23.82,4.89-35.6,7.9l.8,2.89c10.98-2.81,22.01-5.41,33.09-7.81,.98-.21,1.34-1.4,.9-2.2-.55-1.01-1.57-1.34-2.66-1.36-1.42-.02-2.87,.15-4.29,.24-3.08,.2-6.16,.45-9.23,.76-6.04,.6-12.05,1.41-18.04,2.4l1.85,1.85c-.04,.32-.38,.23,.16,.08,.4-.1,.78-.3,1.17-.44,.62-.24,1.24-.47,1.87-.71,1.32-.5,2.64-1,3.96-1.5,2.72-1.03,5.44-2.07,8.16-3.1,5.36-2.04,10.73-4.07,16.09-6.11,1.5-.57,1.4-2.98-.4-2.95-4.79,.09-9.41,1.74-13.87,3.35s-8.88,3.5-13.16,5.59c-1.57,.77-.45,3.14,1.16,2.74,7.24-1.78,14.48-3.56,21.73-5.34,1.88-.46,1.08-3.33-.8-2.89-7.95,1.85-15.77,4.21-23.42,7.07-1.82,.68-1.11,3.21,.8,2.89,8.45-1.43,16.86-3.13,25.2-5.09,1.9-.45,1.07-3.22-.8-2.89-6.9,1.2-13.72,2.8-20.44,4.79-1.9,.56-1.07,3.17,.8,2.89,6.84-1.01,13.68-2.01,20.51-3.02l-.8-2.89c-6.58,2.2-13.15,4.39-19.73,6.59-1.84,.61-1.1,3.28,.8,2.89,6.14-1.25,12.23-2.76,18.23-4.55,1.88-.56,1.08-3.21-.8-2.89-4.75,.81-9.5,1.62-14.25,2.44l.8,2.89c4.74-1.37,9.48-2.73,14.21-4.1l-.8-2.89c-7.62,2.69-15.17,5.58-22.65,8.66-1.78,.73-1.13,3.21,.8,2.89,2.35-.38,4.62-.99,6.84-1.85,1.22-.47,1.62-2.62,0-2.89-2.68-.45-5.35-.58-8.06-.31l.4,2.95,5.05-.86-.8-2.89c-2.63,.59-5.22,1.33-7.77,2.21-1.81,.62-1.08,3.43,.8,2.89,3.92-1.11,7.75-2.49,11.51-4.08,1.64-.7,.41-3.07-1.16-2.74l-7.16,1.5,.8,2.89c6.29-2.08,12.59-4.15,18.88-6.23,3.07-1.01,6.14-2.02,9.21-3.04,1.54-.51,3.17-.92,4.66-1.55,1.04-.45,2.03-1.49,1.53-2.7-.26-.62-.73-1.1-1.45-1.1-1.76,0-4.51,.34-5.82,1.72s.25,3.69,2.01,2.68c1.33-.76,.7-2.74-.76-2.8-2.07-.08-4.12,.11-6.15,.55-1.4,.3-1.46,2.63,0,2.89,2.19,.39,4.33,.31,6.45-.37,1.54-.49,1.36-3.06-.4-2.95-5.51,.36-10.47,2.65-15.66,4.29-4.58,1.45-9.86,2.36-14.27-.06v2.59c.44-.24,.71-.12,1.1,.15v-2.59c-.88,.6-1.71,1.03-2.76,1.26l1.16,2.74c9.85-6.22,21.03-10.24,32.6-11.61l-.4-2.95c-11.69,2.14-23.78,3.72-34.27,9.7-1.68,.96-.17,3.55,1.51,2.59,10.24-5.84,22.14-7.31,33.55-9.4,1.64-.3,1.29-3.15-.4-2.95-12.12,1.43-23.79,5.5-34.12,12.02-1.46,.92-.51,3.1,1.16,2.74,1.27-.27,2.41-.83,3.48-1.56,.96-.66,.96-1.93,0-2.59-1.27-.87-2.79-.86-4.13-.15-.98,.53-.97,2.06,0,2.59,10.55,5.78,20.92-3.14,31.44-3.82l-.4-2.95c-1.59,.5-3.2,.66-4.86,.37v2.89c1.77-.38,3.54-.51,5.35-.44l-.76-2.8-.11,.06h1.51l-.13-.06,.69,.9-.06-.13-.15,1.16-.25,.21c.19-.11,.39-.21,.6-.3,.34-.15,.68-.27,1.04-.37,.72-.2,1.43-.27,2.17-.27l-1.45-1.1,.29-.88-.38,.12c-.33,0-.85,.28-1.18,.39l-1.89,.62-4.25,1.4c-2.75,.91-5.51,1.82-8.26,2.73-5.51,1.82-11.01,3.63-16.52,5.45-1.84,.61-1.09,3.29,.8,2.89l7.16-1.5-1.16-2.74c-3.51,1.49-7.12,2.74-10.79,3.78l.8,2.89c2.55-.88,5.14-1.61,7.77-2.21,1.91-.43,1.07-3.21-.8-2.89l-5.05,.86c-1.65,.28-1.29,3.11,.4,2.95,2.43-.24,4.85-.2,7.26,.2v-2.89c-2.22,.85-4.49,1.47-6.84,1.85l.8,2.89c7.48-3.08,15.03-5.96,22.65-8.66,1.8-.64,1.08-3.43-.8-2.89-4.74,1.37-9.48,2.73-14.21,4.1-1.89,.54-1.07,3.21,.8,2.89,4.75-.81,9.5-1.62,14.25-2.44l-.8-2.89c-6.01,1.79-12.09,3.3-18.23,4.55l.8,2.89c6.58-2.2,13.15-4.39,19.73-6.59,1.87-.63,1.08-3.17-.8-2.89-6.84,1.01-13.68,2.01-20.51,3.02l.8,2.89c6.72-1.99,13.54-3.59,20.44-4.79l-.8-2.89c-8.34,1.97-16.75,3.66-25.2,5.09l.8,2.89c7.65-2.86,15.47-5.22,23.42-7.07l-.8-2.89c-7.24,1.78-14.48,3.56-21.73,5.34l1.16,2.74c4.05-1.98,8.2-3.75,12.44-5.29s8.57-3.16,13.07-3.25l-.4-2.95c-5.91,2.24-11.82,4.48-17.72,6.73-2.88,1.09-5.75,2.18-8.63,3.27-1.48,.56-2.95,1.12-4.43,1.68-1.1,.42-2.53,.82-2.72,2.19-.17,1.19,.63,2.05,1.85,1.85,5.24-.87,10.5-1.59,15.79-2.14,2.59-.27,5.18-.5,7.77-.7,1.3-.1,2.59-.19,3.89-.27,.65-.04,1.3-.08,1.95-.11,.32-.02,.65-.04,.97-.05,.22,0,.6,.1,.46-.14l.9-2.2c-11.08,2.4-22.11,5-33.09,7.81-1.87,.48-1.08,3.37,.8,2.89,11.78-3.01,23.59-5.97,35.6-7.9l-.8-2.89c-13.03,2.63-25.98,5.63-38.85,8.99-1.87,.49-1.08,3.32,.8,2.89,8.8-1.99,17.65-3.79,26.58-5.01,4.45-.61,8.92-1.06,13.4-1.33s8.95-.7,13.2,.33l.4-2.95c-17.84,.11-35.68,.22-53.52,.33-1.93,.01-1.93,3.01,0,3h0Z"/>
    <path class="cls-2" d="M578.06,447.52c4.64,.04,9.32-.46,13.85-1.48,4.54-1.02,8.69-2.88,12.95-4.71l-1.79,.76c5.39-2.27,11.22-2.97,16.46-5.69,3.49-1.81,4.81-6.98,2.69-10.26-2.29-3.56-6.53-4.63-10.26-2.69-.52,.27-1.05,.52-1.59,.76l1.79-.76c-2.73,1.14-5.62,1.78-8.46,2.58-3.37,.95-6.5,2.43-9.71,3.8l1.79-.76c-3.83,1.59-7.82,2.65-11.92,3.24l1.99-.27c-2.58,.34-5.18,.5-7.79,.48-3.92-.03-7.68,3.47-7.5,7.5s3.29,7.47,7.5,7.5h0Z"/>
    <path class="cls-2" d="M591.14,429.86c.57-.53,.38-.41-.57,.36,.23-.16,.46-.31,.7-.45,.49-.28,1-.51,1.51-.74l-1.79,.76c4.8-2.02,9.91-3.06,14.96-4.24,5.5-1.3,10.97-2.93,15.92-5.74,2.77-1.58,4.45-5.36,3.45-8.47s-3.83-5.51-7.23-5.51c-4.97,0-9.37,2.4-13.5,4.91-3.77,2.3-7.32,4.91-10.77,7.67-1.4,1.12-2.2,3.59-2.2,5.3,0,1.84,.82,4.04,2.2,5.3s3.31,2.29,5.3,2.2c2.11-.09,3.67-.89,5.3-2.2,.29-.24,.59-.47,.89-.7,.73-.58-1.53,1.15-.26,.21,.55-.4,1.09-.81,1.64-1.21,1.16-.84,2.35-1.64,3.55-2.42,2.37-1.53,4.82-3.06,7.41-4.18l-1.79,.76c.96-.38,1.9-.67,2.92-.84l-1.99,.27c.44-.05,.86-.07,1.3-.07-1.26-4.66-2.52-9.32-3.79-13.98-1.23,.7-2.49,1.31-3.79,1.86l1.79-.76c-4.8,1.97-9.89,2.99-14.92,4.19-2.49,.59-4.97,1.23-7.4,2.05-3.42,1.16-6.82,2.49-9.45,5.06-2.81,2.75-2.96,7.89,0,10.61s7.61,2.93,10.61,0h0Z"/>
    <path class="cls-6" d="M575.5,447.5c5.35-.53,12.42-2.44,19-4,7.25-1.72,16.61-3.85,22-6"/>
    <path class="cls-6" d="M582.5,419.5c7-2,31.61-10.85,37-13"/>
  </g>
</svg>