<?xml version="1.0" encoding="UTF-8"?>
<svg xmlns="http://www.w3.org/2000/svg" viewBox="0 0 768 768">
  <defs>
    <style>
      .cls-1 {
        fill: #c1e2ee;
      }

      .cls-2 {
        fill: #c7e4f3;
      }

      .cls-3 {
        fill: #161e50;
      }

      .cls-4 {
        fill: #376f8c;
      }

      .cls-5 {
        fill: #81bcdb;
      }

      .cls-6 {
        fill: #82f1eb;
      }

      .cls-7 {
        opacity: .25;
      }

      .cls-8 {
        fill: none;
        stroke: #c1e2ee;
        stroke-miterlimit: 10;
        stroke-width: .5px;
      }
    </style>
  </defs>
  <g id="Layer_2" data-name="Layer 2">
    <g>
      <path class="cls-6" d="M530,335.34c5.41,16.49,8.05,34.09,7.48,52.16-9.87,1.01-23.59,2.22-39.98,3-13.86,.66-38.26,1.74-68.28,.21,.19-2.2,.38-4.41,.57-6.62,2.02-23.83,3.55-46.89,4.6-68.74,9.3-.95,14.73-1.58,25.11-.85,30.13,2.13,54.12,12.4,70,21l.5-.16Z"/>
      <path class="cls-5" d="M537.48,387.5c-.1,3.33-.32,6.67-.64,10.02l-.34-.02c-10-.04-25.71,.08-45,1-36.32,1.74-40.38,4.2-61,4-.81-.01-1.6-.02-2.36-.03,.37-3.89,.73-7.81,1.08-11.76,30.02,1.53,54.42,.45,68.28-.21,16.39-.78,30.11-1.99,39.98-3Z"/>
      <path class="cls-6" d="M536.5,397.5l.34,.02c-.29,2.99-.67,5.99-1.14,8.99-.42,2.68-.9,5.32-1.46,7.94-7.19-1.45-18.23-3.3-31.74-3.95-31.55-1.51-49.58,4.79-76.25,11.09,.66-6.3,1.29-12.68,1.89-19.12,.76,.01,1.55,.02,2.36,.03,20.62,.2,24.68-2.26,61-4,19.29-.92,35-1.04,45-1Z"/>
      <path class="cls-4" d="M530,335.34l-.5,.16c-15.88-8.6-39.87-18.87-70-21-10.38-.73-15.81-.1-25.11,.85,.14-2.76,.26-5.51,.38-8.23,5.46-.31,11.76-.56,19.73-.62,27.44-.21,49.89,2.01,64.83,3.98,4.27,7.92,7.85,16.24,10.67,24.86Z"/>
      <path class="cls-5" d="M502.5,410.5c13.51,.65,24.55,2.5,31.74,3.95-4.79,22.85-14.52,43.51-27.89,61.05-12.35-.09-31.23,.61-53.85,5-14.27,2.77-19.52,5.17-34.58,8.6,3.04-21.1,5.85-43.77,8.33-67.51,26.67-6.3,44.7-12.6,76.25-11.09Z"/>
      <path class="cls-5" d="M513.47,300.49c2.08,3.25,4.04,6.58,5.86,9.99-14.94-1.97-37.39-4.19-64.83-3.98-7.97,.06-14.27,.31-19.73,.62,.17-3.89,.32-7.73,.46-11.53,5.68-.19,12.37-.3,21.27-.09,24.39,.57,44.17,3.04,56.97,4.99Z"/>
      <path class="cls-6" d="M452.5,480.5c22.62-4.39,41.5-5.09,53.85-5-23.2,30.46-57.35,51.51-95.6,58.15,2.49-13.84,4.9-28.76,7.17-44.55,15.06-3.43,20.31-5.83,34.58-8.6Z"/>
      <path class="cls-6" d="M513.47,300.49c-12.8-1.95-32.58-4.42-56.97-4.99-8.9-.21-15.59-.1-21.27,.09,.74-20.29,1.04-39.34,.92-56.77h.03c32.53,11.62,59.4,33.7,77.29,61.67Z"/>
      <path class="cls-2" d="M436.15,238.82c.12,17.43-.18,36.48-.92,56.77-4.86,.16-8.99,.39-13.14,.53,.56-24.53,.13-45.67-1.24-61.89-1.86-21.95-5.45-34.88-10.64-34.97-4.87-.08-10.49,11.16-16.16,30.59l-.02,.31c-3.29-.21-6.56-.31-9.82-.31,11.05-59.68,23.69-98.12,34.24-98.2,11.08-.08,17.29,42.28,17.7,107.17Z"/>
      <path class="cls-1" d="M435.23,295.59c-.14,3.8-.29,7.64-.46,11.53-4.79,.28-8.94,.6-13.02,.88,.14-4.04,.25-8.01,.34-11.88,4.15-.14,8.28-.37,13.14-.53Z"/>
      <path class="cls-1" d="M434.77,307.12c-.12,2.72-.24,5.47-.38,8.23-3.58,.36-7.73,.77-12.96,1.17,.12-2.88,.23-5.72,.32-8.52,4.08-.28,8.23-.6,13.02-.88Z"/>
      <path class="cls-2" d="M434.39,315.35c-1.05,21.85-2.58,44.91-4.6,68.74-.19,2.21-.38,4.42-.57,6.62-4.19-.22-8.48-.48-12.88-.81,2.46-26.01,4.15-50.8,5.09-73.38,5.23-.4,9.38-.81,12.96-1.17Z"/>
      <path class="cls-1" d="M429.22,390.71c-.35,3.95-.71,7.87-1.08,11.76-5.08-.1-9.28-.36-12.96-.71,.35-3.49,.7-7.02,1.04-10.56,.04-.43,.08-.87,.12-1.3,4.4,.33,8.69,.59,12.88,.81Z"/>
      <path class="cls-1" d="M428.14,402.47c-.6,6.44-1.23,12.82-1.89,19.12-4.28,1.01-8.78,2.02-13.59,3,.88-7.47,1.72-15.09,2.52-22.83,3.68,.35,7.88,.61,12.96,.71Z"/>
      <path class="cls-6" d="M384.21,229.85c3.26,0,6.53,.1,9.82,.31,4.69,.3,9.41,.81,14.15,1.55,4.29,.67,8.52,1.52,12.66,2.52h.01c1.37,16.22,1.8,37.36,1.24,61.89-6.72,.22-13.51,.22-23.59-.62-26.73-2.24-48.54-4.35-67-20-10.67-9.05-16.65-19.59-20-27l-.03-.05c21.86-11.91,46.75-18.58,72.74-18.6Z"/>
      <path class="cls-2" d="M426.25,421.59c-2.48,23.74-5.29,46.41-8.33,67.51-1.96,.45-4.09,.92-6.42,1.4-2.65,.55-5.51,1.14-8.59,1.76,3.55-20.31,6.87-43.19,9.75-67.67,4.81-.98,9.31-1.99,13.59-3Z"/>
      <path class="cls-5" d="M422.09,296.12c-.09,3.87-.2,7.84-.34,11.88-8.39,.58-16.48,1-29.25,.5-33.91-1.33-57.24-2.57-75-19-11.75-10.86-16.71-24.35-19-33l-.06-.09c4.21-2.88,8.55-5.53,13.03-7.96l.03,.05c3.35,7.41,9.33,17.95,20,27,18.46,15.65,40.27,17.76,67,20,10.08,.84,16.87,.84,23.59,.62Z"/>
      <path class="cls-4" d="M421.75,308c-.09,2.8-.2,5.64-.32,8.52-4.67,.35-10.19,.69-16.93,.98-41.79,1.79-63.13,2.51-85-6-11.22-4.36-28.49-13.26-46-33l-.46-.42c7.67-8.14,16.19-15.41,25.4-21.67l.06,.09c2.29,8.65,7.25,22.14,19,33,17.76,16.43,41.09,17.67,75,19,12.77,.5,20.86,.08,29.25-.5Z"/>
      <path class="cls-6" d="M421.43,316.52c-.94,22.58-2.63,47.37-5.09,73.38-5.15-.38-10.44-.84-15.84-1.4-30.74-3.18-33.15-6.14-57-9-26.09-3.13-63.96-4.47-111.96,4.99-.09-8.32,.51-16.76,1.84-25.26,4.95-31.63,19.25-59.47,39.66-81.15l.46,.42c17.51,19.74,34.78,28.64,46,33,21.87,8.51,43.21,7.79,85,6,6.74-.29,12.26-.63,16.93-.98Z"/>
      <path class="cls-5" d="M416.34,389.9c-.04,.43-.08,.87-.12,1.3-.34,3.54-.69,7.07-1.04,10.56-16.94-1.65-22.86-5.56-52.68-7.26-15.16-.86-30.64-.25-61,1-19.58,.81-42.81,2.04-69,4h-.08s-.01,.01-.01,.01c-.54-4.95-.84-9.97-.87-15.02,48-9.46,85.87-8.12,111.96-4.99,23.85,2.86,26.26,5.82,57,9,5.4,.56,10.69,1.02,15.84,1.4Z"/>
      <path class="cls-6" d="M415.18,401.76c-.8,7.74-1.64,15.36-2.52,22.83-3.24,.65-6.61,1.29-10.16,1.91-16.02,2.79-50.84,8.6-92,4-33.04-3.7-59.2-12.88-76-20l-.47,.09c-.67-3.66-1.21-7.35-1.61-11.08h.08c26.19-1.97,49.42-3.2,69-4.01,30.36-1.25,45.84-1.86,61-1,29.82,1.7,35.74,5.61,52.68,7.26Z"/>
      <path class="cls-2" d="M394.06,535.61c3.03-12.49,6.01-27.1,8.85-43.35,3.08-.62,5.94-1.21,8.59-1.76,2.33-.48,4.46-.95,6.42-1.4-2.27,15.79-4.68,30.71-7.17,44.55-11.28,62.6-24.33,103.26-35.18,103.34-10.87,.08-17.05-40.66-17.68-103.45,1,.17,2,.34,3.01,.5,.42,.07,.84,.13,1.26,.19,1.45,29.85,5.34,47.99,11.49,48.1,6.1,.1,13.36-17.53,20.41-46.72Z"/>
      <path class="cls-5" d="M402.5,426.5c3.55-.62,6.92-1.26,10.16-1.91-2.88,24.48-6.2,47.36-9.75,67.67-12.62,2.52-28.8,5.4-48.41,7.24-17.36,1.63-40.45,2.73-67.82,1.01-27.25-22.71-46.13-54.5-52.65-89.92l.47-.09c16.8,7.12,42.96,16.3,76,20,41.16,4.6,75.98-1.21,92-4Z"/>
      <path class="cls-6" d="M362.16,534.23c-.42-.06-.84-.12-1.26-.19-1.01-.16-2.01-.33-3.01-.5-27.14-4.79-51.39-16.51-71.21-33.03,27.37,1.72,50.46,.62,67.82-1.01,19.61-1.84,35.79-4.72,48.41-7.24-2.84,16.25-5.82,30.86-8.85,43.35-10.46,.64-21.13,.21-31.9-1.38Z"/>
    </g>
  </g>
  <g id="Layer_4" data-name="Layer 4">
    <g class="cls-7">
      <path class="cls-3" d="M511,296c29.78,43.34,26.17,88.67,25,101-1.59,16.78-8.39,59.58-44,95-25.63,25.49-54.17,35.2-69,39-41.64,10.67-75.88,.61-89-4,6.05-.3,14.69-.86,25-2,38.18-4.21,61.62-6.8,85-20,30.92-17.45,45.91-44.53,51-54,15.75-29.31,16.72-55.91,17-67,.97-38.76-12.87-67.23-22-86-10.77-22.15-23.09-38.51-32-49,12.55,6.67,34.98,20.78,53,47Z"/>
    </g>
  </g>
  <g id="Layer_5" data-name="Layer 5">
    <path class="cls-1" d="M402.14,521.7c.06,1.17-.11,2.34-.03,3.51,.04,.6,.12,1.22,.3,1.8,.22,.69,.58,1.56,1.24,1.95,.88,.52,1.9,.23,2.61-.43,.48-.44,.75-1.02,.98-1.62,.21-.54,.37-1.15,.32-1.73-.06-.84-.42-1.54-1.09-2.05-.54-.42-1.24-.74-1.9-.89-.96-.23-1.91-.05-2.65,.62-.58,.53-.58,1.59,0,2.12,.62,.57,1.5,.56,2.12,0-.19,.13-.22,.16-.09,.08-.22,.08-.26,.1-.11,.06-.44,.08-.12,.02,0,.02,.11,0,.06,0-.13-.02,.07,.02,.14,.03,.21,.06,.04,.01,.45,.16,.24,.08s.13,.06,.17,.08c.11,.05,.21,.12,.32,.17,.24,.12-.22-.23-.02-.02,.11,.11,.09,.08-.07-.1,.08,.13,.07,.1-.03-.11l.03,.09c.03,.16,.03,.12,0-.12,0,.06,0,.13,0,.19-.01,.16,0,.13,.02-.11-.09,.2-.11,.44-.18,.65-.03,.08-.08,.17-.09,.25,.1-.22,.11-.26,.04-.11-.03,.05-.05,.1-.08,.16-.03,.05-.06,.1-.09,.15l.13-.16s-.07,.09-.11,.13c-.12,.1-.08,.08,.11-.07-.05,.03-.1,.06-.15,.09,.22-.15,.46-.13,.72,.05,.31-.04,.54,.07,.67,.31-.04-.06-.07-.12-.1-.17-.03-.05-.18-.42-.1-.18s-.05-.16-.06-.2c-.07-.23-.12-.46-.16-.69-.03-.17-.02-.13,.01,.09,0-.07-.01-.14-.02-.2,0-.1-.02-.2-.02-.31-.05-1.12,.1-2.24,.04-3.36-.04-.78-.66-1.54-1.5-1.5-.78,.03-1.55,.66-1.5,1.5h0Z"/>
    <path class="cls-1" d="M397.81,522.27c0,.98,0,1.97,0,2.95s.06,2.08-.06,3.08c-.09,.75-.54,1.36-.92,2-.5,.83-.96,1.69-1.39,2.56-.52,1.05,.37,2.71,1.69,2.2,1.18-.45,2.42-.66,3.65-.9s2.53-.51,3.8-.75c.55-.1,1.1-.2,1.66-.23,.68-.04,1.4,.15,2.02-.22,1.26-.74,.72-2.37,.4-3.49-.58-2.07-1.9-4.77-4.24-5.24-2.46-.49-4.62,2.36-4.83,4.58-.16,1.63,1.53,2.55,2.91,1.8,1.08-.59,1.7-1.74,2.14-2.84,.49-1.21,.74-2.54-.34-3.51-.94-.85-2.32-.83-3.41-.33-2.18,1.02-2.81,4.03-2.21,6.2,.38,1.38,1.81,2,3.11,1.52,1.1-.4,2.16-1.43,2.49-2.56,.57-1.94-1.44-2.81-2.98-2.11-1.26,.58-2.48,1.86-2.29,3.35s1.7,2.22,3.1,2.09,2.73-.79,3.67-1.86l-2.36-1.82c-.39,.73-.54,1.52-.11,2.27,.46,.79,1.59,1.14,2.39,.67,1.54-.9,.99-2.78,.38-4.07s-1.53-2.27-2.42-3.29c-.7-.8-1.57-1.76-1.7-2.87l-1.5,1.5c3.87-.42,7.98-.67,11.61-2.18l-1.69-2.2c-1.96,3.46-3.45,7.16-4.94,10.84l2.95,.4c-.12-2.05,.19-4.09,.29-6.13,.05-.99,.12-2.14-.87-2.72s-2.07-.18-2.73,.63c-.39,.48-.57,1.04-.31,1.64,.22,.5,.78,.99,1.37,.92,1.89-.21,3.64-.71,5.34-1.56l-2.26-1.3c.07,1.1-.19,2.02-.82,2.92-.46,.66-.12,1.67,.54,2.05,.75,.44,1.59,.13,2.05-.54,.9-1.29,1.33-2.87,1.23-4.44-.08-1.17-1.21-1.82-2.26-1.3-1.19,.59-2.5,1-3.83,1.15l1.06,2.56c.31-.3,.12-.31-.55-.01l-.66-.39,.1,.11-.39-.66c0-.18,0-.11,0,.2,0,.14,0,.29-.01,.43-.01,.29-.03,.57-.05,.86-.04,.62-.1,1.24-.15,1.85-.1,1.24-.18,2.47-.1,3.71,.11,1.76,2.32,1.95,2.95,.4,1.39-3.45,2.81-6.89,4.64-10.13,.58-1.03-.42-2.73-1.69-2.2-3.4,1.41-7.19,1.68-10.81,2.07-.73,.08-1.61,.63-1.5,1.5,.22,1.81,1.08,3.23,2.25,4.61,.5,.59,1.06,1.15,1.52,1.78,.24,.33,.46,.68,.64,1.04,.09,.17,.16,.34,.22,.52l.08,.26c.06,.38,.13,.27,.2-.33l1.06-.44h-.19c.35,.14,.71,.29,1.06,.43l-.15-.13,.39,.66-.05,.4c.76-1.44-1.19-3.15-2.36-1.82-.53,.6-1.03,.82-1.79,1-.05,.01-.16-.02-.21,.01-.15,.24-.06,.51,.25,.81l.12-.19c.11-.09,.23-.18,.34-.27,.27-.23,.33,.02,0-.1l-.66-.39,.13,.12-.39-1.46c-.05,.33-.15,.47-.42,.69-.07,.06-.19,.1-.25,.18,.73,.11,.99,.27,.77,.5-.05,.06-.06,0-.02-.18,.05-.71-.16-1.57,.27-2.21,.14-.21,.34-.25,.52-.37,0,0,.17-.04,.16,.02l-.39-.56c-.05,.09-.08,.19-.11,.29-.11,.31-.23,.62-.38,.92-.08,.15-.16,.32-.27,.45l-.15,.17c-.33,.25-.19,.27,.43,.04l.66,.39-.12-.12,.39,.66-.04-.23v.8c.15-.67,.43-1.37,.9-1.89s.66-.29,1.1,.19,.76,1.08,.98,1.68c.24,.64,.62,1.59,.58,2.25l.74-1.3-.12,.07,.76-.2c-1.93,0-3.75,.33-5.64,.71s-3.74,.6-5.48,1.26l1.69,2.2c.45-.91,.94-1.81,1.46-2.68s1.03-1.74,1.18-2.77,.12-2.18,.13-3.27,0-2.26,0-3.4c-.01-1.93-3.01-1.93-3,0h0Z"/>
    <path class="cls-1" d="M399.64,523.19c.74-.4,1.61-.52,2.43-.65,.91-.14,1.82-.29,2.73-.44,1.89-.32,3.76-.68,5.61-1.18,.78-.21,1.26-1.07,1.05-1.85s-1.06-1.26-1.85-1.05c-1.92,.52-3.87,.89-5.82,1.21s-3.95,.42-5.67,1.36c-.71,.39-.94,1.37-.54,2.05s1.34,.93,2.05,.54h0Z"/>
    <path class="cls-1" d="M397.55,520.82c.08,.89-.26,1.71-.48,2.56s-.41,1.68-.56,2.53c-.31,1.77-.47,3.56-.47,5.36,0,.97,1.5,.97,1.5,0,0-1.8,.15-3.59,.48-5.35,.16-.85,.36-1.69,.59-2.52s.51-1.68,.43-2.57c-.09-.95-1.59-.96-1.5,0h0Z"/>
    <path class="cls-1" d="M397.04,527.22c-.09,.52-.18,1.06-.37,1.56-.18,.47-.49,.8-.79,1.19-.72,.94-.77,2.26-.95,3.39-.07,.4,.1,.81,.52,.92,.36,.1,.86-.12,.92-.52,.1-.6,.19-1.2,.3-1.8,.09-.51,.23-.9,.56-1.3,.39-.46,.68-.93,.88-1.49,.18-.5,.28-1.03,.37-1.56,.07-.4-.11-.81-.52-.92-.36-.1-.85,.12-.92,.52h0Z"/>
    <path class="cls-1" d="M397.41,535.15c1.03-.03,2.04-.35,3.07-.44s1.96-.14,2.93-.25c2.07-.24,4.12-.64,6.17-1.05,.95-.19,.55-1.63-.4-1.45-1.99,.4-3.99,.8-6.01,1.02-.97,.11-1.95,.15-2.92,.25s-1.89,.4-2.85,.42-.97,1.53,0,1.5h0Z"/>
    <path class="cls-1" d="M411.32,521.07c-.01,.61-.19,1.19-.35,1.77s-.31,1.22-.45,1.83c-.29,1.22-.55,2.45-.78,3.68-.08,.4,.11,.81,.52,.92,.37,.1,.85-.12,.92-.52,.24-1.28,.52-2.55,.82-3.82s.79-2.56,.82-3.86c.02-.97-1.48-.97-1.5,0h0Z"/>
    <path class="cls-1" d="M409.71,525.85c-.65,1.14-1.05,2.4-1.17,3.71-.06,.65-.06,1.32-.04,1.97,.03,.71,.42,1.25,.77,1.85,.31,.54,1.22,.46,1.37-.18,.06-.27,.12-.53,.18-.8,.22-.94-1.23-1.34-1.45-.4-.06,.27-.12,.53-.18,.8l1.37-.18c-.14-.25-.29-.5-.43-.74s-.13-.32-.14-.6c-.01-.57-.01-1.15,.04-1.72,.1-1.04,.45-2.05,.97-2.95,.48-.84-.82-1.6-1.3-.76h0Z"/>
    <path class="cls-1" d="M409.51,528.68c-.72,2.41-1.48,4.8-2.3,7.18l1.47,.2-.14-4.3c-.02-.7-1.05-1.08-1.4-.38l-1.24,2.47,1.4,.38c-.02-.71,.01-1.42,.09-2.13h-1.5c-.05,.48-.15,.95-.26,1.41l1.25-.33-.45-.49c-.36-.39-1.16-.23-1.25,.33-.07,.39-.16,.76-.29,1.14l1.37-.18-.07-.29c-.12-.78-1.24-.64-1.45,0-.09,.27-.19,.47-.37,.69l1.25,.33-.23-.86c-.13-.5-.9-.79-1.25-.33-.38,.49-.78,.95-1.21,1.39l1.25,.33c-.08-.49-.1-.98-.11-1.48,0-.81-.97-.93-1.4-.38l-1.09,1.43,1.4,.38c-.06-.79-.06-1.58-.03-2.37s-1.03-.99-1.4-.38l-1.27,2.12,1.4,.38c0-.61,.05-1.19,.2-1.79,.19-.79-1.01-1.38-1.37-.58l-.94,2.1,1.4,.38-.11-1.18c-.07-.72-.99-1.05-1.4-.38l-.71,1.17,1.4,.38c.04-.52,.1-1.03,.18-1.55,.14-.84-.87-1.3-1.37-.58l-1.39,2.01,1.4,.38c-.03-.5-.01-.97,.09-1.45,.16-.79-.96-1.37-1.37-.58-.22,.43-.45,.85-.69,1.27-.09,.16-.36,.45-.37,.62-.14,.16-.08,.19,.17,.11,.28,.05,.32,0,.12-.16-.35-.61-1.15-.36-1.66-.39l.65,.37-.05-.07,.08,.58c.26-1.09,.82-2.19,1.22-3.24,.34-.9-1.11-1.29-1.45-.4-.38,1.01-.84,2.01-1.15,3.04-.25,.83,.26,1.17,1.01,1.19,.23,0,.21-.02,.42,.12,.13,.09,.23,.21,.38,.29,.32,.16,.68,.16,.99-.02,.38-.22,.58-.67,.79-1.03,.29-.5,.57-1.01,.83-1.52l-1.37-.58c-.13,.62-.18,1.22-.14,1.85,.05,.76,.97,1,1.4,.38l1.39-2.01-1.37-.58c-.11,.65-.19,1.29-.24,1.94-.06,.77,1.03,.98,1.4,.38l.71-1.17-1.4-.38,.11,1.18c.06,.65,1.06,1.13,1.4,.38l.94-2.1-1.37-.58c-.18,.72-.26,1.44-.25,2.19s1.01,1.02,1.4,.38l1.27-2.12-1.4-.38c-.04,.79-.03,1.58,.03,2.37s.95,.96,1.4,.38l1.09-1.43-1.4-.38c0,.64,.06,1.25,.16,1.88,.09,.57,.89,.7,1.25,.33,.43-.44,.83-.91,1.21-1.39l-1.25-.33,.23,.86c.13,.51,.89,.78,1.25,.33s.59-.83,.75-1.36h-1.45c.04,.26,.11,.41,.22,.65,.31,.63,1.17,.38,1.37-.18,.13-.37,.23-.75,.29-1.14l-1.25,.33,.45,.49c.38,.41,1.12,.21,1.25-.33,.15-.6,.24-1.2,.31-1.81,.11-.96-1.39-.95-1.5,0-.08,.71-.11,1.42-.09,2.13s1.05,1.07,1.4,.38l1.24-2.47-1.4-.38,.14,4.3c.03,.86,1.2,1,1.47,.2,.81-2.38,1.58-4.77,2.3-7.18,.28-.93-1.17-1.32-1.45-.4h0Z"/>
    <path class="cls-1" d="M398.57,520.87c2.65-.12,5.15-.97,7.7-1.62,1.3-.33,2.61-.58,3.96-.62,1.11-.03,2.14-.06,3-.85l-1.28-.53c-.16,1.64-.99,3.08-1.62,4.57-.48,1.14-1.23,2.87-.95,4.14,.15,.66,.71,1.09,.75,1.79,.05,.87-.23,1.8-.46,2.63-.44,1.57-1.03,3.08-1.39,4.67-.18,.8,.95,1.35,1.37,.58,.33-.6,.65-1.21,.98-1.81,.46-.85-.84-1.61-1.3-.76-.33,.6-.65,1.21-.98,1.81l1.37,.58c.39-1.69,1.04-3.3,1.48-4.98,.35-1.34,.74-2.93,.02-4.2-.25-.44-.41-.64-.32-1.18,.07-.41,.17-.82,.28-1.22,.21-.74,.51-1.45,.82-2.15,.66-1.46,1.3-2.86,1.45-4.47,.06-.69-.84-.94-1.28-.53-.73,.68-2.25,.39-3.18,.49-1.16,.13-2.29,.37-3.42,.67-2.31,.6-4.59,1.38-7,1.49-.96,.04-.97,1.54,0,1.5h0Z"/>
    <line class="cls-8" x1="398.02" y1="519.47" x2="394.07" y2="536.79"/>
    <line class="cls-8" x1="413.5" y1="516.5" x2="410.5" y2="534.5"/>
    <path class="cls-1" d="M396.61,530.14c.97,0,.97-1.5,0-1.5s-.97,1.5,0,1.5h0Z"/>
    <path class="cls-1" d="M396.45,530.3c.97,0,.97-1.5,0-1.5s-.97,1.5,0,1.5h0Z"/>
    <path class="cls-1" d="M409.22,535.89c1.93,0,1.93-3,0-3s-1.93,3,0,3h0Z"/>
    <path class="cls-1" d="M410.02,534.17s0,.05,0,.01c0,.02,0,.05,0,.07,0,.02-.02,.12,0,.05-.02,.09-.04,.17-.07,.26-.05,.16-.1,.31-.16,.47-.03,.08-.06,.15-.09,.23,0,.01-.05,.12-.03,.07-.01,.04-.03,.07-.05,.1-.07,.16-.15,.32-.23,.48-.09,.17-.05,.41,.13,.51,.17,.09,.42,.05,.51-.13,.18-.36,.34-.72,.48-1.1s.3-.8,.21-1.22c-.04-.19-.28-.32-.46-.26-.2,.07-.3,.25-.26,.46h0Z"/>
  </g>
</svg>