<?xml version="1.0" encoding="UTF-8"?>
<svg xmlns="http://www.w3.org/2000/svg" viewBox="0 0 768 768">
  <defs>
    <style>
      .cls-1 {
        fill: #f1c94b;
      }

      .cls-2 {
        fill: #a07425;
      }

      .cls-3 {
        fill: #936f2f;
      }

      .cls-4 {
        fill: #db8636;
      }

      .cls-5 {
        fill: #e2ac4a;
      }

      .cls-6 {
        fill: #644918;
      }

      .cls-7 {
        opacity: .5;
      }
    </style>
  </defs>
  <g id="Layer_1" data-name="Layer 1">
    <g>
      <path class="cls-4" d="M484.81,384.33c0,4.12-.25,8.18-.74,12.16-8.26-.3-25.73-.31-39.31,1.66-27.7,4.01-69.86,16.56-70.9,31.91-.34,4.98,3.63,10.26,8.42,12.37s11.87,1.69,16.67-2.53c3.99-3.5,4.6-8.02,4.72-9.27-.52,.72-5.7,7.77-13.14,7.56-4.1-.12-9.07-2.44-9.43-5.43-.87-7.28,25.57-19.38,48.84-22.59,20.57-2.83,38.05,1.37,49.83,5.66-9.34,28.34-30.95,51.1-58.54,62-11.46,1.6-25.84,2-41.73-1.33-12.56-2.63-21.49-6.64-29-10-14.04-6.29-21.07-9.44-26-16-7.73-10.28-3.65-17.85-9-30-3.45-7.84-11.19-18.36-30.87-26.94-.43-3.02-.7-6.01-.81-8.95,11.02,3.73,27.02,8.29,46.68,10.89,39.8,5.27,102.79,3.62,110-19,2.34-7.32-1.17-16.88-7-22s-15.77-7.37-24-3c-6.83,3.63-9.36,10.16-10,12,.99-.88,10.8-9.35,21-6,5.62,1.84,11.63,7.36,11,12-1.54,11.29-42.63,18.67-76,14-29.67-4.16-52.33-17.72-67-29l-.35-.12c3.61-11.11,8.48-19.06,10.66-22.55,13.2-21.07,34.84-37.72,59.62-44.59l.07,.26c8.25,2.74,18.05,7.65,22,17,2.93,6.94,.59,11.49,4,17,4.7,7.6,15.41,9.06,28,10,14.04,1.05,33.24,1.67,56.66,.02,9.75,15.01,15.65,32.92,15.65,52.81Zm-36.31,60.17c5.95-1.42,12.38-6.78,12-12-.57-7.78-15.98-10.81-17-11-1.47-.27-17.22-2.97-25,7-2.88,3.7-5.36,10.02-3,13,2.28,2.89,6.91-.1,18,1,8.8,.87,10.1,3.17,15,2Zm-66-76c5.24-4.82,6.43-12.9,5-19-1.91-8.18-7.59-8.78-22-23-11.8-11.64-13.09-16.26-18-16-7.31,.39-7.95,10.84-21,16-4.71,1.87-6.44,1.22-12,4-4.55,2.28-11.5,5.75-12,11-.51,5.38,6.03,9.94,9,12,8.65,6.02,13.09,3.71,26,8,14.62,4.85,15.52,9.99,27,11,4.69,.41,12.46,1.1,18-4Zm-22.07,81.07c4.59-2.23,7.88-8.9,6.21-13.5-2.49-6.9-14.32-4.24-18.47-11.99-4.02-7.48,3.7-16.16,.29-18.97-2.97-2.45-12.17,1.38-16.26,8.29-3.78,6.4-1.96,13.38-1.5,15.16,3.65,14,20.67,25.42,29.73,21.01Z"/>
      <path class="cls-1" d="M484.07,396.49c-.79,6.67-2.25,13.14-4.3,19.34-11.78-4.29-29.26-8.49-49.83-5.66-23.27,3.21-49.71,15.31-48.84,22.59,.36,2.99,5.33,5.31,9.43,5.43,7.44,.21,12.62-6.84,13.14-7.56-.12,1.25-.73,5.77-4.72,9.27-4.8,4.22-11.88,4.64-16.67,2.53s-8.76-7.39-8.42-12.37c1.04-15.35,43.2-27.9,70.9-31.91,13.58-1.97,31.05-1.96,39.31-1.66Z"/>
      <path class="cls-5" d="M460.5,432.5c.38,5.22-6.05,10.58-12,12-4.9,1.17-6.2-1.13-15-2-11.09-1.1-15.72,1.89-18-1-2.36-2.98,.12-9.3,3-13,7.78-9.97,23.53-7.27,25-7,1.02,.19,16.43,3.22,17,11Z"/>
      <path class="cls-2" d="M458.24,317.54c4.02,4.31,7.68,8.98,10.92,13.98-23.42,1.65-42.62,1.03-56.66-.02-12.59-.94-23.3-2.4-28-10-3.41-5.51-1.07-10.06-4-17-3.95-9.35-13.75-14.26-22-17l-.07-.26c4.13-1.15,8.35-2.02,12.63-2.59,5.06,1.34,11.87,4.02,17.44,9.85,5.96,6.23,6.78,12.18,9,16,4.43,7.61,18.46,13.73,60.74,7.04Z"/>
      <path class="cls-4" d="M384.31,283.83c27.02,.32,54.54,12.85,73.93,33.71-42.28,6.69-56.31,.57-60.74-7.04-2.22-3.82-3.04-9.77-9-16-5.57-5.83-12.38-8.51-17.44-9.85,4.36-.59,8.78-.87,13.25-.82Z"/>
      <path class="cls-2" d="M433.5,354.5c5.83,5.12,9.34,14.68,7,22-7.21,22.62-70.2,24.27-110,19-19.66-2.6-35.66-7.16-46.68-10.89,0-.09-.01-.19-.01-.28-.39-11.41,1.62-21.58,4.34-29.95l.35,.12c14.67,11.28,37.33,24.84,67,29,33.37,4.67,74.46-2.71,76-14,.63-4.64-5.38-10.16-11-12-10.2-3.35-20.01,5.12-21,6,.64-1.84,3.17-8.37,10-12,8.23-4.37,18.17-2.12,24,3Z"/>
      <path class="cls-2" d="M379.5,476.5c15.89,3.33,30.27,2.93,41.73,1.33-11.43,4.52-23.89,7-36.92,7-31.83,0-57.3-15.14-74.65-35.92,.84-3.19,3.61-16.53-5.16-27.41-5.42-6.73-12.5-9.1-15.6-9.9-2.01-6.03-3.44-12.1-4.27-18.04,19.68,8.58,27.42,19.1,30.87,26.94,5.35,12.15,1.27,19.72,9,30,4.93,6.56,11.96,9.71,26,16,7.51,3.36,16.44,7.37,29,10Z"/>
      <path class="cls-1" d="M387.5,349.5c1.43,6.1,.24,14.18-5,19-5.54,5.1-13.31,4.41-18,4-11.48-1.01-12.38-6.15-27-11-12.91-4.29-17.35-1.98-26-8-2.97-2.06-9.51-6.62-9-12,.5-5.25,7.45-8.72,12-11,5.56-2.78,7.29-2.13,12-4,13.05-5.16,13.69-15.61,21-16,4.91-.26,6.2,4.36,18,16,14.41,14.22,20.09,14.82,22,23Z"/>
      <path class="cls-5" d="M366.64,436.07c1.67,4.6-1.62,11.27-6.21,13.5-9.06,4.41-26.08-7.01-29.73-21.01-.46-1.78-2.28-8.76,1.5-15.16,4.09-6.91,13.29-10.74,16.26-8.29,3.41,2.81-4.31,11.49-.29,18.97,4.15,7.75,15.98,5.09,18.47,11.99Z"/>
      <path class="cls-4" d="M304.5,421.5c8.77,10.88,6,24.22,5.16,27.41-9.41-11.28-16.43-24.23-20.76-37.31,3.1,.8,10.18,3.17,15.6,9.9Z"/>
    </g>
  </g>
  <g id="Layer_3" data-name="Layer 3">
    <path class="cls-3" d="M388.81,352.24c.98,6.83-2.14,11.87-3.03,13.26-.86,1.35-3.31,5.07-8.08,7.14-4.25,1.85-8.04,1.39-11.11,1.02-3.91-.47-6.69-1.63-10.1-3.06-4.31-1.81-4.36-2.41-10.1-5.1-3.4-1.6-6.23-2.92-10.1-4.08-2.55-.77-2.35-.51-9.09-2.04-8.11-1.85-10-2.59-11.11-3.06-3.22-1.38-5.62-3-7.07-4.08,9.71,2.13,17.67,3.36,23.24,4.08,8.77,1.14,9.8,.82,14.14,2.04,9.86,2.77,11.37,6.35,19.2,7.14,3.44,.35,9.51,.99,14.14-3.06,5.45-4.76,5.12-11.76,5.05-13.26-.21-4.44-2.04-7.68-3.03-9.18,1.1,.87,6.03,4.97,7.07,12.24Z"/>
  </g>
  <g id="Layer_2" data-name="Layer 2">
    <g class="cls-7">
      <path class="cls-6" d="M479,351c16.19,44.98-7.12,83.97-9,87-1.28,2.06-28.28,43.97-78,47-18.36,1.12-33.21-3.47-42-7,10.65-.05,27.19-1.32,46-8,13.1-4.66,31.4-11.16,47-29,17.24-19.72,20.85-41.47,22-49,3.07-20.14-.92-36.37-5-53-3.1-12.63-6.95-22.85-10-30,7.59,6.61,21.2,20.33,29,42Z"/>
    </g>
  </g>
</svg>